<svg width="88" height="76" viewBox="0 0 88 76" fill="none" xmlns="http://www.w3.org/2000/svg">
<path d="M46.8882 75.9944C40.9725 75.9944 35.3422 75.2683 31.0344 73.9497C28.7605 73.2537 26.907 72.4079 25.5257 71.4359C24.3075 70.5787 22.8413 69.1673 22.4384 67.1683L21.1193 64.0536C21.0478 63.9925 20.9725 63.9259 20.8937 63.8538C19.9313 62.9663 18.4216 61.1903 17.8253 58.3873C14.4932 56.423 13.236 52.4648 12.2772 49.4459C11.9555 48.433 11.434 46.7913 11.0425 46.221C8.91995 45.6826 7.22204 45.2237 5.6084 43.9859C3.99406 42.7475 2.76018 40.948 1.34967 37.7746C-0.0175124 34.6999 -0.16574 28.7704 0.122857 24.6271C0.381469 20.9145 1.27843 13.9735 4.38039 9.19957C7.16734 4.91035 10.6277 4.00999 13.04 4.00999C13.4554 4.00999 13.8812 4.03678 14.3055 4.08958C18.4939 4.61099 21.6339 6.74972 23.638 10.4463C25.1791 13.2888 25.7586 16.5431 26.2243 19.158C26.2271 19.1744 26.2301 19.1908 26.233 19.2073C27.2071 16.5181 28.8112 14.8723 29.9347 13.9879C30.5573 12.8395 31.583 11.4194 33.2473 10.0912C34.8943 8.77697 36.8748 7.78348 39.1619 7.12091C39.0642 6.78589 38.9852 6.5185 38.9255 6.32006C38.4608 4.79499 38.7909 2.52616 41.2587 1.17801C43.2018 0.114869 45.8918 0 46.9581 0C47.142 0 47.3279 0.00298751 47.5107 0.00886506C49.659 0.078798 52.5797 0.584674 54.2985 2.59759C55.1188 3.55204 55.3821 4.84908 54.9962 6.05946L54.6355 7.176C56.8518 7.84135 58.7757 8.82201 60.3819 10.108C61.9292 11.3479 62.9144 12.6673 63.5258 13.7244C64.7044 14.6851 66.6823 16.7098 67.6447 20.0394C68.2961 22.2912 68.3148 24.1791 68.1114 25.6206C68.3911 25.8944 68.6793 26.2001 68.9658 26.5384C68.9623 25.8415 68.9433 25.1271 68.9086 24.3973C68.6411 18.787 69.9322 14.2996 72.7456 11.0595C75.2942 8.12436 78.9112 6.45854 83.2054 6.24197L83.2852 6.23798H83.3651C85.7071 6.23798 87.6124 8.28794 87.6124 10.8078C87.6124 13.2719 85.7901 15.2867 83.5195 15.3746C82.9905 15.4189 81.4616 15.6976 80.6674 16.4636C80.5902 16.5381 80.5135 16.6113 80.4378 16.6832C79.8001 17.2896 79.6674 17.4157 79.4526 18.3928C79.0616 20.1716 78.952 23.5298 79.1171 28.6591C79.3054 34.4753 79.0572 42.7112 74.9363 48.2756C74.816 48.9116 74.6496 49.4815 74.4573 49.9889C75.1094 51.0329 75.6953 52.4268 75.9263 54.2288C76.5735 59.27 74.2825 62.3288 72.8858 63.6863L71.2358 67.5859C71.1237 67.9787 70.967 68.3627 70.7674 68.7341L70.7453 68.8016L70.5279 69.1432C69.0977 71.3813 65.9997 73.1335 61.32 74.3507C57.1867 75.4261 52.1963 75.9944 46.8882 75.9944Z" fill="white"/>
<path d="M84.4406 10.8079C84.4406 11.5797 83.9584 12.2056 83.3653 12.2056C83.3653 12.2056 80.3487 12.3642 78.4656 14.1807C76.7443 15.8417 75.5495 16.4222 75.947 28.7613C76.1067 33.6938 76.0655 42.0699 71.9218 46.977C71.7453 48.7353 71.0897 49.8181 70.6519 50.3594C71.3096 50.9156 72.4705 52.215 72.7803 54.6321C73.3502 59.0718 70.8624 61.3091 70.2438 61.7912L68.2232 66.5661C68.1598 66.86 68.0371 67.1487 67.8563 67.4321L67.8552 67.4353C65.8917 70.5079 57.2512 72.8224 46.8884 72.8224C35.2758 72.8224 25.8254 69.9168 25.5124 66.2924L23.7001 62.0133C23.5827 61.9457 23.5193 61.9044 23.5076 61.897C23.4865 61.8833 23.3036 61.7596 23.0371 61.5153C22.2357 60.7762 20.8749 59.1215 20.7522 56.3216C20.7502 56.2815 20.7512 56.2391 20.7491 56.1979C14.8618 54.6278 15.8314 44.1623 12.1107 43.2192C8.06003 42.1936 6.63477 41.8552 4.24828 36.4861C1.8608 31.117 2.74373 5.84574 13.9134 7.23712C25.083 8.62751 21.6541 24.1998 25.3326 25.0807C26.8128 25.4349 27.85 24.9411 28.5606 24.2231C28.5342 23.3085 28.6399 22.2005 29.01 20.9201C29.8918 17.8697 31.869 16.4528 32.4283 16.1039C32.7772 15.3004 33.5713 13.891 35.2261 12.5704C37.2244 10.9759 39.891 9.95554 43.154 9.53156C42.7004 7.93715 42.2045 6.20625 41.9623 5.40372C41.865 5.08444 41.8429 4.47327 42.7796 3.96152C43.7555 3.42756 45.573 3.11994 47.4086 3.17911C48.6425 3.21926 50.8672 3.46353 51.8864 4.65727C51.99 4.77781 52.0228 4.94377 51.9742 5.09609L50.5383 9.54111C53.7726 9.97356 56.416 10.996 58.3996 12.5841C59.8734 13.7651 60.6612 15.0138 61.0587 15.8375C61.451 16.0987 63.6639 17.6899 64.5976 20.9201C65.4625 23.9102 64.8894 25.9561 64.5542 26.7841C65.4297 27.3783 67.6511 29.1409 68.4029 32.1447C69.1273 35.0428 68.4886 37.4778 68.1502 38.4591C68.4674 38.6071 68.9083 38.8608 69.3841 39.2785C69.4507 39.3367 69.5152 39.397 69.5787 39.4582C71.5834 36.1065 72.3806 30.6211 72.0771 24.2464C71.5929 14.0866 76.9683 9.73248 83.3652 9.41001C83.9584 9.41011 84.4406 10.036 84.4406 10.8079Z" fill="white"/>
<path d="M70.6895 60.7363L68.2227 66.5656C68.1595 66.8606 68.0367 67.1491 67.8563 67.4321L67.8554 67.4349H67.8545C65.8915 70.508 57.251 72.8228 46.8884 72.8228C35.2755 72.8228 25.8252 69.9163 25.5119 66.2926L23.3464 61.1778C23.5938 61.4049 23.7587 61.514 23.7587 61.514C23.7587 61.514 29.9122 65.5608 46.8032 65.5608C63.695 65.5608 69.8524 61.5112 69.8524 61.5112C69.8515 61.5112 70.3243 61.7512 70.1282 61.295L70.6895 60.7363Z" fill="#150F1B"/>
<path d="M32.6066 17.4254C32.5891 17.4254 32.5715 17.4244 32.5537 17.4225C32.3227 17.3957 32.1482 17.2009 32.1482 16.9684C32.1482 16.6902 32.2378 16.4187 32.4147 16.1613C32.5471 15.9685 32.8035 15.9064 33.0095 16.0175C33.2153 16.1285 33.3046 16.3768 33.2162 16.5934C33.0958 16.889 33.0527 17.0695 33.0523 17.0713C33.0035 17.2803 32.8168 17.4254 32.6066 17.4254Z" fill="#150F1B"/>
<path d="M61.0035 17.4263C60.7928 17.4263 60.606 17.2808 60.5577 17.0713C60.5559 17.0639 60.5124 16.885 60.3945 16.5947C60.3066 16.3779 60.396 16.1297 60.602 16.019C60.8082 15.9082 61.0645 15.9704 61.1967 16.1633C61.3727 16.4201 61.4619 16.6909 61.4619 16.9682C61.4619 17.2015 61.2868 17.3973 61.0551 17.4234C61.0378 17.4253 61.0205 17.4263 61.0035 17.4263Z" fill="#150F1B"/>
<path d="M63.9718 27.4153C63.8503 27.4153 63.7311 27.3661 63.6451 27.2802C63.5046 27.1396 63.4708 26.9245 63.5613 26.7475C63.5696 26.7314 63.5816 26.7113 63.5916 26.6962C63.704 26.529 63.9122 26.4546 64.1053 26.5136C64.298 26.5724 64.4297 26.7502 64.4297 26.9517V26.9572C64.4298 27.2102 64.2247 27.4153 63.9718 27.4153Z" fill="#150F1B"/>
<path d="M67.5632 39.1793C67.5264 39.1793 67.4895 39.1749 67.4532 39.1659C67.3482 39.1409 67.2542 39.0791 67.1893 38.99C67.1032 38.8717 67.0787 38.7192 67.1237 38.5798C67.1394 38.531 67.1669 38.4787 67.1979 38.4377C67.3165 38.2807 67.5221 38.217 67.7088 38.2797C67.8954 38.3423 68.0211 38.5171 68.0211 38.714V38.7213C68.0211 38.8677 67.9511 39.0053 67.8328 39.0915C67.7536 39.1493 67.6589 39.1793 67.5632 39.1793Z" fill="#150F1B"/>
<path d="M46.8051 55.6682C44.4005 55.6682 42.0297 55.5805 39.7584 55.4076C39.5062 55.3884 39.3173 55.1684 39.3366 54.9162C39.3558 54.6639 39.577 54.4748 39.828 54.4943C42.0762 54.6654 44.4237 54.7522 46.8051 54.7522C49.1865 54.7522 51.534 54.6654 53.7823 54.4943C54.0336 54.4745 54.2545 54.6639 54.2737 54.9162C54.2929 55.1684 54.104 55.3884 53.8518 55.4076C51.5806 55.5805 49.2096 55.6682 46.8051 55.6682Z" fill="#150F1B"/>
<path d="M69.9662 50.882C69.8945 50.882 69.8246 50.8652 69.7616 50.8338C69.6415 50.7744 69.5499 50.6636 69.5182 50.5262C69.4776 50.3507 69.5438 50.1712 69.6808 50.0633C69.8385 49.9356 70.0644 49.926 70.2334 50.0455C70.4166 50.1751 70.479 50.4185 70.3806 50.6202C70.3599 50.6625 70.3302 50.7059 70.2979 50.7399C70.2128 50.8292 70.0952 50.8805 69.9718 50.8819C69.9699 50.882 69.968 50.882 69.9662 50.882Z" fill="#150F1B"/>
<path d="M46.8032 66.0188C41.9588 66.0188 34.9073 65.6649 28.8245 63.9787C25.1477 62.9595 23.5722 61.9395 23.507 61.8966C23.4861 61.8827 23.3032 61.7598 23.0367 61.515C22.2356 60.7767 20.8746 59.121 20.7519 56.3219C20.7279 55.777 20.7533 55.2084 20.8276 54.632C21.2617 51.2483 23.3344 50.0702 23.4223 50.0217C23.6438 49.8998 23.9224 49.9803 24.0444 50.2018C24.1661 50.4226 24.0865 50.6999 23.8667 50.8227C23.7951 50.8633 22.1078 51.8507 21.7362 54.7488C21.6686 55.2734 21.6454 55.789 21.667 56.2816C21.7753 58.7524 22.9602 60.1987 23.6569 60.8409C23.8686 61.0354 24.0113 61.1317 24.0127 61.1327C24.0248 61.1406 25.5732 62.1342 29.1402 63.1155C35.1104 64.7579 42.0407 65.1027 46.8032 65.1027C51.566 65.1027 58.497 64.7577 64.4689 63.1141C68.037 62.1321 69.5863 61.1378 69.6015 61.1279C69.8132 60.9899 70.0968 61.0491 70.2352 61.2605C70.3736 61.4718 70.3151 61.755 70.1041 61.8938C70.0387 61.9367 68.4625 62.9574 64.7847 63.9773C58.7002 65.6647 51.6479 66.0188 46.8032 66.0188Z" fill="#150F1B"/>
<path d="M46.8051 30.9639C46.3955 30.9639 45.9826 30.9609 45.5783 30.955C45.3253 30.9513 45.1233 30.7433 45.127 30.4904C45.1307 30.2374 45.3374 30.0314 45.5916 30.0391C45.9916 30.0449 46.3998 30.0479 46.8051 30.0479C47.058 30.0479 47.263 30.253 47.263 30.5059C47.263 30.7587 47.058 30.9639 46.8051 30.9639Z" fill="#150F1B"/>
<path d="M45.5853 30.955C45.5831 30.955 45.5808 30.955 45.5785 30.955C41.2241 30.8917 37.1729 30.4917 34.1711 29.8287C30.9779 29.1233 29.3026 28.1995 29.187 27.0814C28.939 26.5832 28.0108 24.3756 29.0099 20.9201C30.0208 17.4236 32.4717 16.0729 32.5755 16.0171C32.7756 15.9096 33.0243 15.965 33.1598 16.1473C33.2953 16.3297 33.2768 16.5838 33.1161 16.7445C33.0898 16.7708 33.0714 16.7905 33.0586 16.8047C33.0586 16.806 33.0587 16.8072 33.0588 16.8085C33.0614 16.8534 33.0642 16.9054 33.0642 16.9684C33.0642 17.0745 33.171 18.0299 36.8708 18.9096C39.519 19.5392 43.0471 19.8859 46.805 19.8859C50.563 19.8859 54.091 19.5392 56.7392 18.9096C60.439 18.03 60.5458 17.0745 60.5458 16.9684V16.9531C60.5459 16.7088 60.5406 16.6188 60.4357 16.5128C60.2733 16.3486 60.2585 16.0891 60.4015 15.9076C60.5444 15.726 60.8001 15.6793 60.9979 15.7986C61.0236 15.814 63.5761 17.3868 64.5976 20.9202C65.5925 24.3604 64.6848 26.5506 64.424 27.0752C64.3746 27.5854 64.0056 28.0559 63.3255 28.4754C63.1101 28.6081 62.828 28.5412 62.6953 28.326C62.5625 28.1107 62.6294 27.8285 62.8446 27.6958C63.2491 27.4464 63.4895 27.1904 63.512 26.9872C63.5065 26.9062 63.5224 26.8235 63.5613 26.7477C63.5651 26.7402 63.5697 26.7319 63.5745 26.7236C63.6509 26.5841 64.6998 24.5704 63.7177 21.1746C63.1771 19.3049 62.157 18.039 61.4149 17.3178C61.1382 18.3274 59.64 19.1615 56.951 19.8008C54.2355 20.4463 50.6322 20.8019 46.805 20.8019C42.9778 20.8019 39.3745 20.4463 36.6589 19.8008C34.0513 19.1809 32.5635 18.3776 32.2236 17.4088C31.4959 18.0511 30.4449 19.2544 29.8896 21.1746C28.8793 24.6692 30.0231 26.707 30.0348 26.7271C30.0751 26.7969 30.0963 26.876 30.0963 26.9565C30.0963 27.4712 31.4173 28.2824 34.3684 28.9343C37.3115 29.5844 41.2972 29.9768 45.5915 30.0391C45.8445 30.0428 46.0465 30.2508 46.0428 30.5037C46.0395 30.7543 45.8351 30.955 45.5853 30.955Z" fill="#150F1B"/>
<path d="M46.8052 43.4498C41.2305 43.4498 35.9848 43.0021 32.0345 42.1893C27.8609 41.3305 25.695 40.1983 25.5927 38.8231C25.3764 38.2991 24.3544 35.5451 25.2051 32.1452C26.1403 28.4024 29.2838 26.6291 29.4171 26.5554C29.5589 26.4771 29.7316 26.4795 29.8712 26.5619C30.0108 26.6443 30.0965 26.7942 30.0965 26.9563C30.0965 27.3638 31.0785 28.2565 34.759 29.0176C37.9717 29.682 42.2498 30.0478 46.8051 30.0478C48.7533 30.0478 50.6638 29.9805 52.4836 29.8478C52.7357 29.8307 52.9553 30.0191 52.9737 30.2713C52.9921 30.5237 52.8024 30.743 52.5502 30.7615C50.7083 30.8957 48.7754 30.9639 46.8051 30.9639C42.1893 30.9639 37.8454 30.5913 34.5735 29.9147C31.7095 29.3226 29.9755 28.5668 29.3971 27.6617C28.5376 28.2791 26.7256 29.8383 26.0936 32.3673C25.2472 35.7501 26.4522 38.5054 26.4646 38.5329C26.4909 38.5916 26.5048 38.6561 26.5048 38.7206C26.5048 39.3644 28.0014 40.4242 32.219 41.2921C36.1104 42.0929 41.2904 42.5339 46.8051 42.5339C49.1416 42.5339 51.4342 42.4543 53.6188 42.2973C53.8706 42.2797 54.0903 42.469 54.1085 42.7213C54.1266 42.9736 53.9367 43.1928 53.6845 43.2109C51.4781 43.3694 49.1636 43.4498 46.8052 43.4498Z" fill="#150F1B"/>
<path d="M64.5918 41.3819C64.4012 41.3819 64.2233 41.2621 64.1584 41.0716C64.0768 40.8322 64.2046 40.5719 64.444 40.4902C66.7779 39.6942 67.0774 39.0024 67.1033 38.7583C67.0983 38.6988 67.105 38.6381 67.1239 38.5797C67.1298 38.5615 67.1373 38.5429 67.146 38.5244C67.2243 38.3414 68.3354 35.6522 67.5139 32.3673C66.8796 29.8296 65.0817 28.2818 64.2177 27.6638C63.783 28.3551 62.6772 28.95 60.8719 29.4684C60.6287 29.5383 60.3751 29.3978 60.3053 29.1546C60.2354 28.9116 60.3759 28.6578 60.6191 28.588C62.7548 27.9746 63.5133 27.3258 63.5138 26.9565C63.514 26.7937 63.6007 26.6433 63.7412 26.5614C63.882 26.4794 64.0555 26.4783 64.1971 26.5584C64.3307 26.634 67.4789 28.4497 68.4025 32.1451C69.2414 35.5 68.2532 38.2353 68.0185 38.812C67.9557 39.7933 66.8814 40.6267 64.7397 41.3572C64.6906 41.3739 64.6408 41.3819 64.5918 41.3819Z" fill="#150F1B"/>
<path d="M39.7937 55.409C39.7821 55.409 39.7703 55.4086 39.7585 55.4077C35.6969 55.0983 32.0381 54.5221 29.1776 53.7414C26.1865 52.9252 24.2334 51.9455 23.3723 50.8294C23.3476 50.7977 23.3224 50.7639 23.297 50.7276C22.9508 50.4061 21.1174 48.4781 21.7906 44.2588C21.8368 43.9658 21.8955 43.6629 21.9649 43.3595C22.9332 39.1113 25.8085 38.3095 25.9305 38.2774C26.0676 38.2415 26.2141 38.2709 26.3267 38.3577C26.4391 38.4445 26.505 38.5784 26.505 38.7204C26.505 39.2316 27.4787 40.0493 30.2112 40.8118C32.7365 41.5164 36.3523 42.0538 40.3926 42.3249C40.6451 42.3419 40.8358 42.5602 40.8189 42.8126C40.802 43.0649 40.5847 43.256 40.3313 43.2389C36.1709 42.9596 32.5863 42.4254 29.9651 41.6941C27.5538 41.0213 26.1572 40.2473 25.7304 39.3413C24.9859 39.7171 23.489 40.7952 22.858 43.5634C22.7932 43.8469 22.7385 44.1292 22.6953 44.4023C22.0533 48.4262 23.8591 50.0056 23.9363 50.0709C23.9432 50.0766 23.9518 50.0844 23.9584 50.0906C23.9824 50.1134 24.0047 50.1396 24.0233 50.1671C24.0457 50.2004 24.0695 50.2337 24.0956 50.2671C25.6043 52.2227 31.7789 53.881 39.8282 54.4943C40.0803 54.5135 40.2692 54.7336 40.25 54.9857C40.2316 55.2261 40.0308 55.409 39.7937 55.409Z" fill="#150F1B"/>
<path d="M46.8051 43.4497C44.5932 43.4497 42.415 43.3788 40.3311 43.2389C40.0788 43.222 39.8879 43.0036 39.9049 42.7513C39.9218 42.4989 40.1393 42.3078 40.3925 42.325C42.456 42.4636 44.6136 42.5337 46.8051 42.5337C47.058 42.5337 47.2631 42.7388 47.2631 42.9917C47.2631 43.2447 47.058 43.4497 46.8051 43.4497Z" fill="#150F1B"/>
<path d="M65.4372 53.4267C65.243 53.4267 65.0628 53.3022 65.0009 53.1073C64.9243 52.8662 65.0576 52.6087 65.2986 52.5321C68.0771 51.6492 69.1532 50.7819 69.5645 50.1996C69.5924 50.1496 69.6297 50.1048 69.6749 50.0681C69.8004 49.9586 71.7911 48.1337 70.7497 43.5633C70.1209 40.8047 68.6221 39.722 67.8752 39.3427C67.6551 39.7989 67.1875 40.2255 66.4773 40.6166C66.2558 40.7386 65.9771 40.6578 65.8552 40.4363C65.7332 40.2147 65.814 39.9362 66.0355 39.8141C66.7252 39.4344 67.1051 39.0461 67.1055 38.7207C67.1057 38.5775 67.1729 38.4426 67.2871 38.3561C67.4014 38.2696 67.5494 38.2414 67.6873 38.2803C67.825 38.3189 68.5539 38.5487 69.3841 39.2787C70.471 40.2342 71.2521 41.6454 71.6429 43.3598C72.7438 48.1909 70.7308 50.341 70.3162 50.7234C69.6093 51.7281 68.015 52.6302 65.5762 53.4051C65.5299 53.4198 65.4831 53.4267 65.4372 53.4267Z" fill="#150F1B"/>
<path d="M69.8526 61.9694C69.7059 61.9694 69.5619 61.899 69.4733 61.7685C69.3313 61.5592 69.3858 61.2744 69.5951 61.1324C69.7114 61.0535 72.4363 59.1494 71.8712 54.7491C71.5928 52.5778 70.576 51.479 70.0535 51.0475C69.7758 51.3503 69.4132 51.6444 68.9705 51.9253C68.7569 52.0609 68.474 51.9976 68.3384 51.7841C68.203 51.5705 68.2661 51.2875 68.4797 51.152C68.9923 50.8266 69.3648 50.4954 69.5867 50.1674C69.7204 49.97 69.9829 49.9081 70.1906 50.025C70.2785 50.0745 72.3493 51.2753 72.7799 54.6326C73.4158 59.585 70.2449 61.7985 70.1096 61.8902C70.0307 61.9436 69.9412 61.9694 69.8526 61.9694Z" fill="#150F1B"/>
<path d="M46.8052 20.8017C39.5217 20.8017 32.1484 19.4849 32.1484 16.9683C32.1484 16.9342 32.1522 16.9002 32.1598 16.8669C32.1654 16.8421 32.2192 16.6136 32.3683 16.2476C32.6805 15.4772 33.4674 13.974 35.2261 12.5707C37.334 10.8889 40.1825 9.84426 43.6922 9.46611C43.9437 9.43941 44.1696 9.62092 44.1966 9.87235C44.2237 10.1238 44.0418 10.3496 43.7903 10.3767C40.4563 10.7361 37.7671 11.715 35.7973 13.2867C34.2018 14.5597 33.4957 15.9042 33.2168 16.5924C33.1364 16.7897 33.0905 16.9358 33.0687 17.0118C33.1073 17.2329 33.4798 18.103 36.8711 18.9092C39.5193 19.5388 43.0473 19.8855 46.8052 19.8855C50.5632 19.8855 54.0912 19.5388 56.7394 18.9092C60.1307 18.103 60.5032 17.2329 60.5418 17.0118C60.5202 16.9365 60.4744 16.791 60.3946 16.5945C60.1161 15.9087 59.4122 14.5685 57.8267 13.299C55.8683 11.7307 53.1953 10.7496 49.8821 10.3831C49.6307 10.3553 49.4494 10.1289 49.4772 9.87754C49.5051 9.6261 49.7322 9.44528 49.9828 9.47267C53.4715 9.8586 56.3032 10.9054 58.3994 12.584C60.1469 13.9833 60.9313 15.4815 61.2434 16.25C61.3914 16.6147 61.445 16.8419 61.4507 16.8665C61.4583 16.8999 61.4622 16.934 61.4622 16.9683C61.4622 18.1361 59.9445 19.089 56.9514 19.8006C54.2357 20.4462 50.6324 20.8017 46.8052 20.8017Z" fill="#150F1B"/>
<path d="M44.5393 13.2078C44.3392 13.2078 44.1554 13.0757 44.0987 12.8737C44.0824 12.8159 42.469 7.08132 41.9619 5.40392C41.8654 5.08474 41.8433 4.47289 42.7791 3.96124C43.7556 3.42738 45.5735 3.12055 47.4082 3.17942C48.6429 3.21907 50.8666 3.46384 51.8865 4.65738C51.9899 4.77832 52.0231 4.94428 51.9742 5.0956L49.5215 12.6908C49.4437 12.9315 49.1857 13.0634 48.9449 12.9859C48.7043 12.9082 48.5722 12.65 48.6499 12.4093L51.0171 5.07857C49.5186 3.77315 44.8511 3.87218 43.2186 4.76477C43.0081 4.87994 42.809 5.04011 42.8388 5.13874C43.3484 6.8245 44.9643 12.5677 44.9805 12.6254C45.049 12.8689 44.9072 13.1219 44.6636 13.1904C44.622 13.2022 44.5802 13.2078 44.5393 13.2078Z" fill="#150F1B"/>
<path d="M46.48 6.86976C45.8571 6.86976 45.2874 6.79614 44.7743 6.64861C43.8347 6.37854 43.4306 5.94818 43.3877 5.89996C43.2193 5.71118 43.2359 5.42169 43.4246 5.25334C43.6117 5.08667 43.8974 5.10132 44.0664 5.28492C44.0994 5.31799 45.3556 6.53325 49.0044 5.59394C49.2495 5.53088 49.4991 5.67831 49.5622 5.92327C49.6253 6.16824 49.4778 6.41799 49.2328 6.48104C48.2266 6.74015 47.3064 6.86976 46.48 6.86976Z" fill="#150F1B"/>
<path d="M64.7112 50.7602C66.072 50.7602 67.1751 49.0031 67.1751 46.8356C67.1751 44.6682 66.072 42.9111 64.7112 42.9111C63.3504 42.9111 62.2473 44.6682 62.2473 46.8356C62.2473 49.0031 63.3504 50.7602 64.7112 50.7602Z" fill="#150F1B"/>
<path d="M83.3649 12.2056C83.9586 12.2056 84.44 11.5799 84.44 10.808C84.44 10.0362 83.9586 9.41046 83.3649 9.41046C82.7711 9.41046 82.2898 10.0362 82.2898 10.808C82.2898 11.5799 82.7711 12.2056 83.3649 12.2056Z" fill="#150F1B"/>
<path d="M64.7112 42.9111C70.2492 42.3069 72.5605 34.4053 72.0767 24.2461C71.593 14.0869 76.9683 9.73293 83.3647 9.41046V12.2056C83.3647 12.2056 80.3481 12.3643 78.4655 14.1809C76.7445 15.8416 75.5493 16.4224 75.947 28.7614C76.1697 35.6715 76.0026 49.3404 64.7112 50.7602V42.9111Z" fill="#150F1B"/>
<path d="M29.7259 27.2847L29.0202 23.6733C28.3258 24.6525 27.1709 25.5209 25.3324 25.0813C21.6537 24.2 25.0832 8.62731 13.9136 7.23682C2.74396 5.84634 1.86093 31.1168 4.24801 36.4863C6.6342 41.8559 8.06035 42.1939 12.1109 43.2198C15.926 44.1862 14.8085 55.167 21.2094 56.302C21.1874 55.8037 21.2076 55.267 21.2818 54.6908C21.6912 51.4986 23.6431 50.4232 23.6431 50.4232C23.6431 50.4232 23.6431 50.4232 23.6422 50.4223C23.5872 50.3765 21.5547 48.6425 22.2426 44.3309C21.5574 44.8814 20.6808 45.2524 19.6164 45.0555C16.7008 44.5159 16.9701 40.3042 14.7021 39.1702C12.4341 38.0363 7.19645 40.8438 7.41262 29.7199C7.6288 18.597 9.84275 13.3044 14.1625 13.3044C18.4823 13.3044 19.5083 20.9182 20.8585 25.2381C22.2086 29.5588 22.8269 29.262 24.9933 28.8352C25.7014 28.696 26.2757 29.1348 26.7291 29.7897L29.7259 27.2847Z" fill="#150F1B"/>
</svg>
