<svg width="20" height="22" viewBox="0 0 20 22" fill="none" xmlns="http://www.w3.org/2000/svg">
<path d="M17.875 5.26977C18.2187 5.46523 18.5041 5.74874 18.7018 6.09113C18.8995 6.43351 19.0025 6.8224 19 7.21777V14.5018C19 15.3108 18.557 16.0568 17.842 16.4498L11.092 20.7198C10.7574 20.9035 10.3818 20.9998 10 20.9998C9.61824 20.9998 9.24264 20.9035 8.908 20.7198L2.158 16.4498C1.80817 16.2586 1.51612 15.9769 1.31241 15.6342C1.1087 15.2916 1.0008 14.9004 1 14.5018V7.21677C1 6.40777 1.443 5.66277 2.158 5.26977L8.908 1.28977C9.25254 1.09981 9.63956 1.00018 10.033 1.00018C10.4264 1.00018 10.8135 1.09981 11.158 1.28977L17.908 5.26977H17.875Z" stroke="#150F1B" stroke-width="2" stroke-linecap="round" stroke-linejoin="round"/>
<path d="M7 10.9998C7 11.7954 7.31607 12.5585 7.87868 13.1211C8.44129 13.6837 9.20435 13.9998 10 13.9998C10.7956 13.9998 11.5587 13.6837 12.1213 13.1211C12.6839 12.5585 13 11.7954 13 10.9998C13 10.2041 12.6839 9.44107 12.1213 8.87847C11.5587 8.31586 10.7956 7.99979 10 7.99979C9.20435 7.99979 8.44129 8.31586 7.87868 8.87847C7.31607 9.44107 7 10.2041 7 10.9998Z" stroke="#150F1B" stroke-width="2" stroke-linecap="round" stroke-linejoin="round"/>
</svg>
