<svg width="20" height="22" viewBox="0 0 20 22" fill="none" xmlns="http://www.w3.org/2000/svg">
<path d="M12.9999 5.99996L6.49995 12.5C6.10212 12.8978 5.87863 13.4374 5.87863 14C5.87863 14.5626 6.10212 15.1021 6.49995 15.5C6.89777 15.8978 7.43734 16.1213 7.99995 16.1213C8.56256 16.1213 9.10212 15.8978 9.49995 15.5L15.9999 8.99996C16.7956 8.20432 17.2426 7.12518 17.2426 5.99996C17.2426 4.87475 16.7956 3.79561 15.9999 2.99996C15.2043 2.20432 14.1252 1.75732 12.9999 1.75732C11.8747 1.75732 10.7956 2.20432 9.99995 2.99996L3.49995 9.49996C2.30647 10.6934 1.63599 12.3121 1.63599 14C1.63599 15.6878 2.30647 17.3065 3.49995 18.5C4.69342 19.6934 6.31212 20.3639 7.99995 20.3639C9.68777 20.3639 11.3065 19.6934 12.4999 18.5L18.9999 12" stroke="#7B44DC" stroke-width="2" stroke-linecap="round" stroke-linejoin="round"/>
</svg>
