<svg width="95" height="115" viewBox="0 0 95 115" fill="none" xmlns="http://www.w3.org/2000/svg">
<path d="M40.2239 44.5213C41.309 43.4362 41.309 41.6768 40.2239 40.5917C39.1387 39.5066 37.3794 39.5066 36.2943 40.5917C35.2091 41.6768 35.2091 43.4362 36.2943 44.5213C37.3794 45.6065 39.1387 45.6065 40.2239 44.5213Z" fill="white"/>
<path d="M37.3117 45.1368C35.6901 45.1368 34.3708 43.8175 34.3708 42.196C34.3708 40.5739 35.6901 39.2543 37.3117 39.2543C38.9332 39.2543 40.2525 40.5739 40.2525 42.196C40.2525 43.8175 38.9332 45.1368 37.3117 45.1368Z" fill="white"/>
<path d="M30.4147 57.2184C28.7826 57.2184 27.4548 55.8906 27.4548 54.2585C27.4548 52.6264 28.7827 51.2986 30.4147 51.2986C32.0468 51.2986 33.3747 52.6264 33.3747 54.2585C33.3747 55.8906 32.0468 57.2184 30.4147 57.2184Z" fill="white"/>
<path d="M24.518 48.1008C24.4963 46.7546 25.1811 44.0921 27.8856 42.6528C28.5493 42.2996 28.7268 41.884 28.734 41.8666C28.7338 41.867 28.718 41.9057 28.6939 41.9956L33.5721 42.9949C33.2451 45.2847 31.9815 47.275 30.1923 48.3187C29.8789 48.5015 29.3016 49.1466 29.0417 49.5104L24.6401 55.673L24.518 48.1008Z" fill="white"/>
<path d="M37.4989 45.7095C36.0201 45.7095 34.8171 44.5064 34.8171 43.0278C34.8171 41.5491 36.0202 40.3461 37.4989 40.3461C38.9776 40.3461 40.1807 41.549 40.1807 43.0278C40.1807 44.5065 38.9776 45.7095 37.4989 45.7095Z" fill="white"/>
<path d="M57.8042 114.064C55.4909 114.064 53.279 113.763 51.5759 113.215C50.2801 112.8 49.3122 112.265 48.6181 111.582C48.2023 111.172 47.7261 110.549 47.518 109.712C47.0781 109.837 46.6141 109.904 46.135 109.904H44.392C44.2278 110.438 43.9125 111.028 43.3345 111.593C42.6413 112.271 41.6773 112.802 40.3876 113.216C38.6857 113.763 36.4739 114.064 34.1606 114.064C31.8472 114.064 29.6352 113.763 27.9323 113.215C26.6364 112.8 25.6686 112.265 24.9745 111.582C24.5703 111.184 24.1091 110.584 23.8924 109.782C23.5359 109.862 23.1651 109.904 22.7848 109.904H21.041C20.8772 110.437 20.5627 111.026 19.9873 111.59C19.2941 112.269 18.3293 112.801 17.0375 113.216C15.3355 113.763 13.1233 114.064 10.8095 114.064C8.49615 114.064 6.28423 113.763 4.58127 113.215C3.28527 112.8 2.31726 112.265 1.62335 111.581C1.07319 111.039 0.417358 110.122 0.417358 108.832V93.6073C0.417358 92.5852 0.856984 90.6928 3.80135 89.5043C4.03808 89.4083 4.3013 89.3133 4.5794 89.2237C6.28682 88.6761 8.49858 88.3751 10.8105 88.3751C11.4816 88.3751 12.1459 88.4001 12.7942 88.45V77.0318C12.7942 76.01 13.2336 74.1183 16.1769 72.9296L16.1867 72.9257C16.4346 72.8268 16.6945 72.7336 16.9594 72.6486C18.6609 72.1017 20.8728 71.8003 23.1863 71.8003C23.3811 71.8003 23.5751 71.8024 23.7683 71.8066V60.4927C23.7683 59.5786 24.1194 57.9694 26.2961 56.7894C26.4804 56.4834 26.6732 56.1904 26.8709 55.9063C26.3192 55.6922 25.8191 55.3707 25.3988 54.9533C24.2988 53.8622 23.8344 52.2595 24.0924 50.4417C24.3682 48.5096 25.3777 46.6775 26.8623 45.4135C27.1809 45.1424 27.4973 44.9157 27.7764 44.7156C28.0856 44.4942 28.3775 44.2848 28.5333 44.1118C28.8372 43.7741 29.0558 43.0952 29.2871 42.3766C29.4171 41.9724 29.5517 41.5546 29.722 41.1209C30.8502 38.2528 33.2142 35.7608 36.3788 34.1031C36.8608 33.8506 37.3706 33.6115 37.9007 33.3896C37.9046 33.3863 37.9621 33.3365 37.9621 33.3365L38.0139 33.2963C39.9054 31.8282 42.0495 31.0522 44.2144 31.0522C46.1058 31.0522 48.7611 31.6516 51.4966 34.2001C51.468 34.1404 51.4395 34.0797 51.4116 34.0184C50.4517 31.9207 50.543 30.0308 50.7187 28.9816C50.5733 28.1667 50.5076 27.0715 50.749 25.7823C50.9814 24.5417 51.4566 23.3171 52.1683 22.1207L51.8929 21.9526C51.0611 21.4425 50.5627 20.5601 50.5551 19.5895L50.555 19.578C50.5517 18.5413 50.9633 16.9237 52.9434 15.1048C53.531 14.5655 55.0744 13.2749 56.7275 12.9238C57.0118 12.8632 57.2957 12.8322 57.5697 12.8322C58.8897 12.8322 60.0283 13.5562 60.5421 14.7218C60.5556 14.7522 60.5705 14.7855 60.5866 14.8214C61.913 14.2653 63.2319 13.9609 64.5299 13.9129C64.6483 13.9084 64.7692 13.9061 64.888 13.9061C66.1351 13.9061 67.1517 14.1496 67.9044 14.4264C67.9716 14.4245 68.0415 14.4234 68.1139 14.4234C68.8179 14.4234 69.7632 14.5238 70.8152 14.9048C70.0924 13.6244 69.3639 12.1479 69.0135 10.5329C68.4112 7.75584 69.1055 5.17136 71.0217 3.05877C72.3247 1.62161 74.0481 0.861816 76.0056 0.861816C78.139 0.861816 81.6798 1.79841 86.4332 6.26071C88.9081 8.58402 91.7226 11.983 92.4313 14.3392C93.1043 16.5768 93.2619 18.049 92.9752 19.4208C92.6994 20.7407 92.0489 21.7374 91.278 22.8401C91.3811 23.2868 91.7325 24.1112 91.9771 24.6853C92.4433 25.7792 92.9718 27.0192 93.2163 28.3388C93.4328 29.5066 93.3935 30.5867 93.1004 31.5678C93.9674 33.2442 93.9729 34.7879 93.8723 35.6565C93.8678 35.695 93.863 35.7332 93.8579 35.7709L94.4868 37.7342C94.9157 38.523 95.2222 39.7263 94.794 41.423C94.514 42.5326 93.9408 43.7777 93.0903 45.1241C91.503 47.6375 89.0048 50.4183 86.0561 52.9543C82.1493 56.3147 76.5756 59.9055 72.649 59.9055C72.0924 59.9055 71.5681 59.8331 71.0906 59.6904L70.9119 59.637L70.875 59.6195C70.5562 59.5063 70.2584 59.36 69.9853 59.1822L67.621 58.0107C67.0026 57.9652 66.1946 57.8181 65.3113 57.4319C63.9297 56.828 62.7697 55.8244 61.8635 54.4492C61.2297 53.4882 60.907 52.57 60.7584 51.7724C60.5096 51.6267 60.2538 51.4554 59.9951 51.2545C55.5173 50.1943 51.8668 46.2054 49.4676 43.2276C47.3962 40.6564 45.9427 39.0713 45.024 38.3815C44.609 38.0699 44.588 38.0688 44.0505 38.042C43.9816 38.0385 43.9119 38.035 43.8407 38.0309C43.8226 38.0299 43.804 38.0294 43.785 38.0294C43.3908 38.0294 42.9018 38.234 42.5428 38.4376C42.4097 38.7069 42.2994 39.2125 42.5678 40.1556C43.2591 42.5875 43.5186 45.1216 43.3398 47.6886C43.2639 48.7812 43.0521 50.1859 42.0785 51.3519C41.2912 52.295 40.0923 52.8582 38.8717 52.8583C38.562 52.8583 38.2587 52.8216 37.9673 52.7502C37.9993 53.7643 38.0941 54.7505 38.3754 55.6142C39.0988 55.7447 39.7728 55.9096 40.3898 56.1079C41.6865 56.5245 42.6539 57.0592 43.3476 57.7426C43.8465 58.2341 44.4322 59.0338 44.5374 60.1405H46.1353C48.9379 60.1405 51.2178 62.4206 51.2178 65.2231V71.705C51.2178 71.8829 51.2087 72.0588 51.1907 72.2321C51.7625 72.3484 52.3011 72.4875 52.802 72.6484C54.099 73.0647 55.0668 73.5994 55.7602 74.283C56.6036 75.1127 56.883 75.9975 56.9493 76.6811H58.5487C61.3512 76.6811 63.6312 78.9612 63.6312 81.7638V88.2456C63.6312 88.5301 63.6077 88.8092 63.5626 89.0812C63.7221 89.126 63.8782 89.1729 64.0308 89.2219C65.326 89.6379 66.2919 90.1709 66.9853 90.8516C67.768 91.6203 68.0669 92.4341 68.1603 93.0926L68.1971 93.2038L68.1972 93.255H69.7789C72.5815 93.255 74.8615 95.5354 74.8615 98.3385V104.82C74.8615 107.623 72.5814 109.903 69.7789 109.903H68.0359C67.872 110.436 67.5579 111.024 66.9833 111.588C66.29 112.268 65.3246 112.8 64.0321 113.215C62.3293 113.763 60.1174 114.064 57.8042 114.064Z" fill="white"/>
<path d="M31.1003 55.9266C29.5521 55.9266 28.2926 54.667 28.2926 53.1189C28.2926 51.5708 29.5521 50.3113 31.1003 50.3113C32.6484 50.3113 33.9079 51.5708 33.9079 53.1189C33.9078 54.667 32.6484 55.9266 31.1003 55.9266Z" fill="white"/>
<path d="M29.3902 56.6598C27.9305 56.6598 26.743 55.4573 26.743 53.9792C26.743 52.5012 27.9305 51.2986 29.3902 51.2986C30.8498 51.2986 32.0374 52.5012 32.0374 53.9792C32.0374 55.4574 30.8498 56.6598 29.3902 56.6598Z" fill="white"/>
<path d="M37.4443 53.0481C35.9575 53.0481 34.7479 51.8385 34.7479 50.3517C34.7479 48.8649 35.9575 47.6552 37.4443 47.6552C38.931 47.6552 40.1407 48.8649 40.1407 50.3517C40.1407 51.8385 38.931 53.0481 37.4443 53.0481Z" fill="white"/>
<path d="M38.0701 53.8955C36.4323 53.8955 35.0999 52.5865 35.0999 50.9774C35.0999 49.3684 36.4323 48.0593 38.0701 48.0593C39.7078 48.0593 41.0402 49.3683 41.0402 50.9774C41.0402 52.5864 39.7078 53.8955 38.0701 53.8955Z" fill="white"/>
<path d="M38.2619 42.8403C38.4189 42.8403 38.5463 42.713 38.5463 42.556C38.5463 42.3989 38.4189 42.2716 38.2619 42.2716C38.1048 42.2716 37.9775 42.3989 37.9775 42.556C37.9775 42.713 38.1048 42.8403 38.2619 42.8403Z" fill="white"/>
<path d="M37.7581 42.1959C37.7581 42.442 37.5577 42.6424 37.3116 42.6424C37.0646 42.6424 36.8651 42.442 36.8651 42.1959C36.8651 41.949 37.0646 41.7486 37.3116 41.7486C37.5577 41.7486 37.7581 41.949 37.7581 42.1959Z" fill="white"/>
<path d="M30.4147 54.724C30.157 54.724 29.9491 54.5153 29.9491 54.2585C29.9491 54.0015 30.157 53.7928 30.4147 53.7928C30.6717 53.7928 30.8804 54.0015 30.8804 54.2585C30.8804 54.5153 30.6716 54.724 30.4147 54.724Z" fill="white"/>
<path d="M28.9355 46.1642C29.9108 45.5953 30.8591 44.349 31.103 42.6422C31.103 42.6422 30.751 43.9536 29.0574 44.8547C26.9781 45.9613 27.012 48.0607 27.012 48.0607C27.012 48.0607 27.9603 46.7332 28.9355 46.1642Z" fill="white"/>
<path d="M37.3114 43.0278C37.3114 43.1313 37.3953 43.2152 37.4989 43.2152C37.6024 43.2152 37.6863 43.1313 37.6863 43.0278C37.6863 42.9242 37.6023 42.8403 37.4989 42.8403C37.3954 42.8403 37.3114 42.9242 37.3114 43.0278Z" fill="white"/>
<path d="M84.4292 51.0633C79.8755 54.9802 75.2169 57.4113 72.6486 57.4113C72.3352 57.4113 72.0524 57.3747 71.8047 57.3007L71.803 57.2999C71.5935 57.2367 71.4106 57.1469 71.2551 57.0281L68.2328 55.5307C67.7231 55.5556 65.5472 55.5075 63.9459 53.0771C63.0728 51.7535 63.0936 50.6202 63.1826 50.0665C62.737 49.9858 61.9545 49.7297 61.1215 48.9374C56.9968 48.2756 53.4232 44.1624 51.4094 41.6632C46.3717 35.4099 45.5352 35.6302 43.9829 35.5412C42.478 35.4547 41.087 36.3868 40.7885 36.6013C40.1891 37.313 39.5355 38.6167 40.1682 40.8391C40.7827 43.0009 41.0072 45.2732 40.8509 47.5156C40.796 48.3071 40.6721 49.1444 40.1633 49.7539C39.6545 50.3633 38.636 50.6077 38.0623 50.0591C37.4645 49.487 37.6731 48.4976 37.9765 47.7293C38.384 46.7 38.8887 45.6956 39.0824 44.6073C39.2752 43.5181 39.1031 42.2884 38.3166 41.511C38.0106 41.2084 37.5774 40.9806 37.1593 41.0803C36.8051 41.1652 36.5423 41.4628 36.3453 41.7696C35.4805 43.119 35.4532 44.821 35.4539 46.4249C35.4548 48.017 35.4556 49.611 35.4556 51.2032C35.4565 53.2926 35.4747 55.4643 36.3868 57.3442C36.4765 57.5304 36.5747 57.7117 36.6787 57.8897C37.7745 58.0102 38.7797 58.2115 39.6261 58.4833C41.6365 59.1293 42.0589 59.9325 42.0589 60.4929V62.6355H46.1346C47.5622 62.6355 48.7229 63.797 48.7229 65.2238V71.7057C48.7229 73.1333 47.5621 74.2948 46.1346 74.2948H42.0589V74.7629C43.3676 74.4586 44.9324 74.2948 46.5736 74.2948C47.4433 74.2948 48.2914 74.3413 49.092 74.4303C50.187 74.5508 51.1922 74.7521 52.0387 75.0239C53.0439 75.3465 53.6517 75.7082 54.0084 76.0599C54.365 76.4108 54.4706 76.7517 54.4715 77.0319V79.1762H58.5481C59.9748 79.1762 61.1363 80.3369 61.1363 81.7644V88.2463C61.1363 89.6739 59.9748 90.8354 58.5481 90.8354H54.4715V91.1122C55.5 90.9526 56.6324 90.8695 57.804 90.8695C58.6736 90.8695 59.5225 90.916 60.3224 91.005C61.4174 91.1255 62.4235 91.3267 63.269 91.5978C65.2753 92.2422 65.7001 93.0428 65.7018 93.6033C65.7018 93.6049 65.7026 93.6058 65.7026 93.6074V95.7501H69.7783C71.2059 95.7501 72.3666 96.9116 72.3666 98.3392V104.82C72.3666 106.248 71.2059 107.409 69.7783 107.409H65.7026V108.832C65.7026 108.834 65.7018 108.835 65.7018 108.837C65.6993 109.397 65.2737 110.197 63.269 110.841C61.8048 111.311 59.8643 111.57 57.804 111.57C55.7436 111.57 53.8031 111.311 52.3389 110.841C50.3276 110.196 49.9053 109.392 49.9053 108.832L49.906 108.831V94.7532C48.8776 94.9111 47.7443 94.9951 46.5736 94.9951C44.9324 94.9951 43.3675 94.8313 42.0589 94.5269V95.75H46.1346C47.5622 95.75 48.7229 96.9115 48.7229 98.3391V104.82C48.7229 106.248 47.5621 107.409 46.1346 107.409H42.0589V108.832C42.0589 108.835 42.0589 108.838 42.058 108.84C42.058 108.841 42.058 108.841 42.058 108.841C42.0539 109.401 41.6257 110.199 39.6252 110.841C38.1611 111.311 36.2205 111.57 34.1601 111.57C32.0998 111.57 30.1592 111.311 28.6951 110.841C26.6838 110.196 26.2615 109.392 26.2615 108.832C26.2615 108.83 26.2623 108.829 26.2623 108.828V94.7905C25.3028 94.9252 24.261 94.9951 23.186 94.9951C21.5605 94.9951 20.009 94.8338 18.7078 94.5353V95.7501H22.7843C24.2111 95.7501 25.3727 96.9116 25.3727 98.3392V104.82C25.3727 106.248 24.2112 107.409 22.7843 107.409H18.7078V108.832C18.7078 108.835 18.7078 108.837 18.707 108.839C18.7037 109.399 18.2779 110.198 16.275 110.841C14.8108 111.311 12.8694 111.57 10.8091 111.57C8.74881 111.57 6.80819 111.311 5.34399 110.841C3.3327 110.196 2.91125 109.392 2.91125 108.832V93.6075C2.91125 93.1087 3.24543 92.4186 4.73461 91.8174C4.91917 91.7426 5.12207 91.6694 5.34407 91.5979C6.80905 91.1281 8.74881 90.8695 10.81 90.8695C11.6797 90.8695 12.5278 90.9161 13.3285 91.0051C14.0235 91.0816 14.6829 91.1905 15.2881 91.3293V77.0319C15.2881 76.5338 15.6224 75.8437 17.1106 75.2426C17.2961 75.1685 17.4981 75.0954 17.721 75.0239C19.1852 74.5533 21.1257 74.2948 23.186 74.2948C24.0557 74.2948 24.9046 74.3413 25.7045 74.4303C25.8932 74.451 26.0795 74.4744 26.2624 74.5002V60.4929C26.2624 59.994 26.5958 59.3031 28.0858 58.7019C28.8058 57.2785 29.9099 56.0779 30.8179 54.7593C31.7948 53.3399 32.5731 51.6255 32.2438 49.9327C31.8147 51.0593 31.3525 52.2333 30.4388 53.019C29.5242 53.8039 28.0109 54.0325 27.1562 53.1837C26.5509 52.5834 26.442 51.6355 26.5617 50.7924C26.7529 49.4522 27.4489 48.19 28.479 47.3129C29.1018 46.7833 29.8409 46.3875 30.3872 45.7805C31.3068 44.7587 31.5404 43.3136 32.0434 42.0332C33.032 39.5198 35.1439 37.5659 37.5359 36.3129C38.1387 35.997 38.759 35.7218 39.3917 35.479C39.4258 35.3975 39.4757 35.3251 39.543 35.2669C42.8339 32.7127 47.332 32.5797 51.4027 37.7945C53.957 41.067 56.6774 43.4333 59.0869 44.2365C59.0927 44.1792 59.0994 44.1218 59.1069 44.0652C59.1643 43.657 59.2749 43.3452 59.368 43.1373C58.7852 42.7972 57.4374 41.8677 56.5652 40.1308C55.6606 38.3308 56.0089 36.5199 56.1886 35.8547C55.6723 35.5887 54.5216 34.8237 53.6801 32.9821C52.7697 30.9925 53.1863 29.2697 53.2694 28.9746C53.1156 28.4001 52.9743 27.4497 53.2004 26.2416C53.5048 24.617 54.3744 22.9924 55.7862 21.4068L53.1921 19.8237C53.104 19.7697 53.0499 19.6741 53.0491 19.5702C53.0458 18.5491 54.0385 17.4857 54.6305 16.942C55.5101 16.1346 56.5369 15.5144 57.2453 15.3639C57.9238 15.2192 58.1724 15.5302 58.2597 15.7289C58.4809 16.2269 58.9705 17.2911 59.4237 18.2689C61.2122 17.0941 62.9598 16.4672 64.6219 16.4057C65.9979 16.3541 66.9874 16.7125 67.4995 16.9611C67.9236 16.8954 69.5 16.7558 71.2286 17.8856C71.9544 18.3604 72.4766 18.8618 72.8516 19.324C73.5059 19.3765 74.2276 19.1802 74.8071 18.3779C76.2479 16.3824 67.9502 10.1583 72.8689 4.73478C77.7869 -0.689567 88.9415 11.3979 90.0424 15.058C91.1432 18.718 90.5837 19.4896 89.0214 21.7137C87.5864 23.7566 92.5043 28.5066 90.2669 31.7783C90.2835 31.7991 90.3018 31.8191 90.3184 31.8398C91.4451 33.2724 91.4758 34.6659 91.3943 35.3701C91.3668 35.6038 91.3286 35.7418 91.3244 35.7576C91.3219 35.7668 91.3078 35.8141 91.2787 35.8973L92.2008 38.7757C93.5834 40.6952 90.1562 46.1378 84.4292 51.0633Z" fill="white"/>
<path d="M31.4136 53.1189C31.4136 52.9458 31.2733 52.8055 31.1002 52.8055C30.9272 52.8055 30.7869 52.9458 30.7869 53.1189C30.7869 53.2919 30.9272 53.4322 31.1002 53.4322C31.2733 53.4322 31.4136 53.292 31.4136 53.1189Z" fill="white"/>
<path d="M29.543 53.9792C29.543 53.8764 29.4745 53.793 29.3901 53.793C29.3058 53.793 29.2373 53.8763 29.2373 53.9792C29.2373 54.0822 29.3058 54.1655 29.3901 54.1655C29.4745 54.1655 29.543 54.0822 29.543 53.9792Z" fill="white"/>
<path d="M37.4443 50.5537C37.5559 50.5537 37.6464 50.4633 37.6464 50.3516C37.6464 50.24 37.5559 50.1495 37.4443 50.1495C37.3327 50.1495 37.2422 50.24 37.2422 50.3516C37.2423 50.4633 37.3328 50.5537 37.4443 50.5537Z" fill="white"/>
<path d="M38.0701 51.4012C38.333 51.4012 38.546 51.2114 38.546 50.9774C38.546 50.7434 38.333 50.5537 38.0701 50.5537C37.8073 50.5537 37.5942 50.7434 37.5942 50.9774C37.5942 51.2114 37.8073 51.4012 38.0701 51.4012Z" fill="white"/>
<path d="M67.5657 55.1999L71.2549 57.0281C71.4111 57.1467 71.5941 57.2369 71.8031 57.3L71.8048 57.3009L71.8053 57.3005C74.0769 57.9833 79.3195 55.4595 84.4295 51.0637C90.1561 46.1376 93.5833 40.6955 92.2006 38.7758L91.0987 35.335C91.0731 35.5519 91.0381 35.6756 91.0381 35.6756C91.0381 35.6756 89.7202 40.2815 81.3911 47.4466C73.0615 54.6119 68.3074 55.227 68.3074 55.227C68.3078 55.2266 68.1765 55.5455 68.0796 55.2374L67.5657 55.1999Z" fill="#150F1B"/>
<path d="M67.9729 17.688C67.9815 17.6806 67.9898 17.6727 67.9976 17.6642C68.1002 17.5529 68.1036 17.3828 68.005 17.2682C67.887 17.131 67.7276 17.0351 67.5312 16.9832C67.3842 16.9442 67.2314 17.0224 67.1769 17.1646C67.1224 17.3067 67.1838 17.467 67.3192 17.5363C67.504 17.6309 67.6018 17.7018 67.6027 17.7025C67.7156 17.7849 67.8692 17.7772 67.9729 17.688Z" fill="#150F1B"/>
<path d="M53.9704 29.7343C54.0743 29.6449 54.1046 29.494 54.0396 29.3701C54.0373 29.3656 53.9829 29.2589 53.9179 29.0658C53.8693 28.9216 53.7199 28.8371 53.5714 28.87C53.4228 28.9027 53.3228 29.0422 53.3394 29.1934C53.3615 29.3947 53.4324 29.5661 53.5501 29.7028C53.649 29.8178 53.8185 29.8402 53.9438 29.7547C53.9531 29.7484 53.962 29.7415 53.9704 29.7343Z" fill="#150F1B"/>
<path d="M56.3237 35.8875L56.3213 35.8848C56.2359 35.7855 56.2254 35.6419 56.2955 35.5311C56.3657 35.4201 56.4999 35.3685 56.6262 35.4032C56.6376 35.4064 56.652 35.4112 56.6629 35.4157C56.7826 35.4645 56.8571 35.585 56.8475 35.7139C56.8416 35.7927 56.8036 35.8675 56.7437 35.9191C56.6191 36.0263 56.431 36.0122 56.3237 35.8875Z" fill="#150F1B"/>
<path d="M59.7929 43.3148C59.6979 43.3225 59.605 43.2843 59.5429 43.2121L59.5397 43.2085C59.4562 43.1114 59.4441 42.9719 59.5096 42.8618C59.5751 42.7517 59.7035 42.6959 59.8286 42.723C59.8612 42.7301 59.897 42.7442 59.9254 42.7616C60.0067 42.8112 60.0594 42.8968 60.067 42.9917C60.0728 43.0632 60.0526 43.1335 60.0115 43.1904C59.9974 43.2102 59.9811 43.2281 59.963 43.2437C59.9158 43.2842 59.8565 43.3096 59.7929 43.3148Z" fill="#150F1B"/>
<path d="M77.1937 42.5691C78.3794 41.5491 79.5113 40.5001 80.558 39.4514C80.6742 39.3349 80.674 39.1463 80.5576 39.0301C80.4412 38.9139 80.2518 38.9145 80.1363 39.0305C79.1002 40.0686 77.9795 41.1072 76.8052 42.1174C75.6308 43.1276 74.4365 44.0806 73.2552 44.9499C73.1229 45.0468 73.0943 45.2339 73.1918 45.3664C73.2894 45.4989 73.4758 45.5273 73.6083 45.4298C74.8016 44.5515 76.008 43.589 77.1937 42.5691Z" fill="#150F1B"/>
<path d="M63.7397 50.0361C63.6782 50.0877 63.5986 50.1123 63.5187 50.1043C63.4883 50.1012 63.4552 50.0925 63.4271 50.0803C63.293 50.0226 63.2205 49.8762 63.2558 49.7345C63.2885 49.6039 63.404 49.5129 63.5359 49.5089C63.6492 49.504 63.758 49.5644 63.8124 49.6681C63.855 49.7493 63.8569 49.8429 63.8229 49.9231C63.8051 49.9653 63.7778 50.0033 63.7424 50.0337C63.7416 50.0345 63.7407 50.0353 63.7397 50.0361Z" fill="#150F1B"/>
<path d="M81.5854 47.6724C83.9742 45.6175 87.3014 42.4517 89.5856 39.0399C90.9663 36.9777 91.3105 35.8064 91.3245 35.7576C91.3289 35.7419 91.367 35.6036 91.3946 35.3699C91.4764 34.666 91.4452 33.2722 90.3183 31.8399C90.0991 31.5611 89.8453 31.2915 89.5642 31.0388C87.9148 29.5543 86.393 29.8526 86.329 29.8661C86.1681 29.8999 86.0649 30.0578 86.0987 30.2188C86.1323 30.3793 86.2892 30.4823 86.4496 30.4495C86.5022 30.4392 87.753 30.2104 89.1656 31.4818C89.4214 31.7118 89.6516 31.9562 89.8499 32.2084C90.8446 33.4726 90.8737 34.6885 90.8026 35.3007C90.7807 35.4864 90.7512 35.5944 90.7509 35.5955C90.7483 35.6045 90.4062 36.7513 89.0635 38.7484C86.8162 42.0908 83.545 45.2006 81.1965 47.2209C78.8479 49.2413 75.2837 52.0112 71.6417 53.7339C69.4657 54.7632 68.28 54.9301 68.2682 54.9317C68.1053 54.9534 67.9906 55.103 68.012 55.2659C68.0334 55.4288 68.1823 55.5436 68.3452 55.5225C68.3957 55.516 69.6059 55.3507 71.8521 54.2935C75.5686 52.5443 79.1964 49.7275 81.5854 47.6724Z" fill="#150F1B"/>
<path d="M66.7143 30.3869C66.9164 30.2132 67.1186 30.0366 67.3155 29.8622C67.4387 29.753 67.4501 29.5648 67.3409 29.4417C67.2318 29.3185 67.0425 29.3046 66.9204 29.4162C66.7257 29.5887 66.5256 29.7634 66.3258 29.9353C66.2011 30.0426 66.187 30.2307 66.2942 30.3554C66.4014 30.4801 66.5896 30.4942 66.7143 30.3869Z" fill="#150F1B"/>
<path d="M66.8949 29.8367C66.7858 29.7136 66.7973 29.5253 66.9204 29.4162C69.0115 27.5639 70.8105 25.6796 71.986 24.1106C73.1647 22.5373 73.472 21.5769 73.2537 21.3231C73.2195 21.2834 73.1964 21.2354 73.1868 21.1839C73.184 21.169 72.8836 19.679 70.903 18.3843C69.8147 17.6729 68.786 17.5254 68.1548 17.5173C68.3981 18.1393 68.0051 19.1665 66.9822 20.5784C65.917 22.0486 64.291 23.7524 62.4037 25.3758C60.5165 26.9993 58.5887 28.3525 56.9758 29.1861C55.3787 30.0115 54.2861 30.2357 53.7214 29.8551C53.6615 30.5255 53.6953 31.5825 54.2219 32.7338C55.178 34.825 56.5495 35.373 56.6463 35.4094C56.6522 35.4115 56.658 35.4136 56.663 35.4157C56.7143 35.4366 56.7573 35.4707 56.789 35.5129C56.8862 35.6035 57.1134 35.6278 57.4186 35.5792C57.5811 35.5533 57.7338 35.6641 57.7596 35.8267C57.7855 35.9891 57.6748 36.1418 57.5122 36.1677C56.9988 36.2493 56.6173 36.1738 56.3765 35.9431C56.0253 35.7951 54.6486 35.1001 53.68 32.9817C52.6849 30.806 53.2765 28.9477 53.2826 28.9292C53.3295 28.7865 53.4755 28.7011 53.6229 28.73C53.7703 28.7589 53.8732 28.8931 53.8628 29.043C53.856 29.1398 53.8915 29.1864 53.9953 29.3068L54.0018 29.3144C54.0467 29.3667 54.5047 29.7925 56.7023 28.6568C58.2752 27.8439 60.1621 26.5183 62.0152 24.9242C63.8683 23.3302 65.461 21.6626 66.4998 20.2288C67.9512 18.2257 67.5985 17.7091 67.5535 17.6569C67.5268 17.6258 67.5061 17.599 67.4883 17.5757C67.4879 17.5751 67.4874 17.5744 67.4869 17.5738C67.4746 17.5721 67.4571 17.5702 67.433 17.5684C67.2856 17.5573 67.1687 17.4399 67.1582 17.2925C67.1477 17.1452 67.2468 17.0122 67.3911 16.9804C67.4659 16.9639 69.2475 16.5903 71.2292 17.8856C73.1877 19.1658 73.6664 20.6481 73.7554 20.999C74.1727 21.5994 73.7385 22.7656 72.4631 24.4679C71.2642 26.0682 69.4361 27.984 67.3157 29.8623C67.3146 29.8633 67.3135 29.8642 67.3124 29.8652C67.189 29.9711 67.0031 29.9588 66.8949 29.8367Z" fill="#150F1B"/>
<path d="M72.0107 36.544C74.7597 34.1793 77.1565 31.7334 78.7597 29.6568C80.4535 27.4629 81.0412 25.9858 80.5083 25.2643C80.3927 24.9141 79.7284 23.1226 77.8667 21.8069C75.8179 20.358 73.5156 20.817 73.4186 20.8373C73.3155 20.8588 73.2313 20.9332 73.1974 21.0331C73.1635 21.1329 73.1849 21.2432 73.2537 21.3232C73.4265 21.5242 73.3209 22.381 71.8288 24.3175C70.5264 26.0079 68.572 28.003 66.3257 29.9354C65.365 30.7618 64.3943 31.5391 63.4407 32.2456C63.3091 32.3441 63.2808 32.5301 63.3787 32.6623C63.4766 32.7946 63.6632 32.8223 63.7954 32.7244C64.7606 32.0093 65.7427 31.223 66.7143 30.3871C68.9904 28.4292 70.9744 26.4028 72.3009 24.6812C73.4619 23.1744 73.9965 22.0661 73.8977 21.3745C74.5834 21.3143 76.1385 21.3145 77.5228 22.2935C79.3751 23.6026 79.9497 25.4724 79.9553 25.4912C79.9672 25.5314 79.9877 25.569 80.015 25.6008C80.2882 25.9183 79.9998 27.0758 78.2881 29.2929C76.7088 31.3384 74.3416 33.7532 71.6222 36.0925C70.47 37.0837 69.3058 38.0168 68.1618 38.8661C68.0302 38.9642 68.0022 39.1508 68.1003 39.283C68.1983 39.415 68.3849 39.4426 68.5171 39.3445C69.6723 38.4866 70.8478 37.5444 72.0107 36.544Z" fill="#150F1B"/>
<path d="M62.3626 43.0693C62.4565 42.9884 62.4935 42.8539 62.4447 42.7324C62.3834 42.5798 62.2099 42.5056 62.0573 42.5669C60.5686 43.1645 60.1275 42.9503 60.0113 42.841C59.9885 42.8095 59.9594 42.7824 59.9253 42.7617C59.9148 42.7552 59.9031 42.7491 59.8909 42.7437C59.7747 42.6867 58.0861 41.8319 57.0977 39.8636C56.334 38.3432 56.564 36.8172 56.7279 36.146C57.2356 36.3025 58.0332 36.1267 59.1433 35.6166C59.2928 35.5479 59.3583 35.371 59.2896 35.2215C59.2209 35.072 59.044 35.0066 58.8945 35.0753C57.5811 35.6788 56.9318 35.6806 56.7749 35.4987C56.7058 35.4185 56.5993 35.3811 56.4952 35.4004C56.391 35.4196 56.305 35.4927 56.2691 35.5923C56.2353 35.6862 55.4531 37.917 56.5652 40.131C57.5746 42.1412 59.2223 43.0709 59.5827 43.2557C60.0299 43.713 60.9132 43.6682 62.2791 43.12C62.3105 43.1074 62.3385 43.0901 62.3626 43.0693Z" fill="#150F1B"/>
<path d="M80.5413 39.467C80.547 39.4621 80.5526 39.4569 80.5581 39.4514C82.4297 37.5759 83.9895 35.7397 85.0689 34.1414C86.1976 32.4701 86.7451 31.1585 86.6963 30.2429C86.695 30.2168 86.6931 30.1895 86.6903 30.1608C86.7247 29.8554 86.8109 28.1269 84.6891 26.3319C84.542 26.207 84.3846 26.0826 84.2217 25.9625C81.9422 24.2784 80.1841 25.1026 80.1104 25.1386C80.0275 25.1791 79.9678 25.2557 79.9491 25.3462C79.9305 25.4367 79.9548 25.5307 80.015 25.6007C80.2318 25.8528 80.0986 26.6691 79.0746 28.2041C78.1282 29.6227 76.5731 31.4216 74.6959 33.2692C74.5786 33.3846 74.5771 33.5733 74.6925 33.6905C74.8079 33.8078 74.9961 33.8098 75.1138 33.6939C77.0469 31.7914 78.5879 30.0074 79.5703 28.5349C80.4739 27.1803 80.8342 26.2062 80.6604 25.5784C81.187 25.4478 82.3824 25.3445 83.8678 26.4419C84.0201 26.5541 84.1668 26.6702 84.3039 26.7866C86.3274 28.4985 86.1069 30.0433 86.0966 30.1082C86.0957 30.114 86.0946 30.1214 86.0941 30.1273C86.092 30.1487 86.0921 30.1712 86.0946 30.1926C86.0976 30.2185 86.1 30.2451 86.1013 30.2725C86.1869 31.8769 83.8455 35.3138 80.1364 39.0307C80.0202 39.1472 80.0204 39.3358 80.1369 39.452C80.2478 39.5626 80.4243 39.5676 80.5413 39.467Z" fill="#150F1B"/>
<path d="M72.0107 36.544C73.1015 35.6056 74.1455 34.6467 75.1137 33.6938C75.231 33.5784 75.2325 33.3897 75.1171 33.2725C75.0018 33.1552 74.8134 33.1532 74.6958 33.2691C73.7371 34.2127 72.7029 35.1626 71.6222 36.0922C71.4975 36.1995 71.4833 36.3876 71.5906 36.5123C71.698 36.6371 71.886 36.6512 72.0107 36.544Z" fill="#150F1B"/>
<path d="M67.0551 49.3674C67.1508 49.285 67.187 49.1472 67.1348 49.0248C67.0703 48.8734 66.8953 48.8029 66.744 48.8675C64.9993 49.6108 64.1009 49.6396 63.651 49.5268C63.6161 49.5141 63.5787 49.5078 63.5408 49.5088C63.4324 49.508 61.6767 49.4526 60.2515 46.7572C59.3914 45.1301 59.6712 43.9605 59.8786 43.4565C60.1806 43.5881 60.5922 43.6001 61.1084 43.4917C61.2693 43.4579 61.3725 43.2999 61.3387 43.1389C61.3048 42.9779 61.1469 42.8747 60.9858 42.9086C60.4847 43.0139 60.1326 42.9835 59.9944 42.8232C59.9335 42.7527 59.8432 42.7147 59.7502 42.7205C59.6572 42.7263 59.5722 42.7752 59.5207 42.8529C59.4692 42.9303 59.2072 43.3528 59.1074 44.065C58.9768 44.9972 59.1903 46.0244 59.7248 47.0356C61.2313 49.8849 63.1359 50.0913 63.5026 50.1039C64.2775 50.2995 65.4462 50.068 66.9776 49.4156C67.0065 49.4033 67.0325 49.3869 67.0551 49.3674Z" fill="#150F1B"/>
<path d="M68.5014 55.4529C68.5738 55.3907 68.615 55.2949 68.6032 55.1929C68.5845 55.0294 68.4368 54.9122 68.2733 54.9309C68.1826 54.9413 66.0312 55.1583 64.4432 52.7488C63.6595 51.5599 63.6948 50.5868 63.7694 50.1524C64.0349 50.1839 64.3383 50.1751 64.6758 50.1259C64.8386 50.1022 64.9513 49.9509 64.9276 49.7881C64.9038 49.6253 64.7526 49.5126 64.5898 49.5363C64.199 49.5934 63.8748 49.588 63.6263 49.5204C63.4766 49.4798 63.321 49.5606 63.2681 49.7063C63.2458 49.7681 62.734 51.2386 63.9458 53.0768C65.7329 55.7886 68.2356 55.535 68.3413 55.523C68.4028 55.5158 68.4578 55.4905 68.5014 55.4529Z" fill="#150F1B"/>
<path d="M62.4037 25.3758C65.9953 22.2862 69.0726 18.5091 68.0051 17.2681C67.9906 17.2513 67.9743 17.2361 67.9565 17.223C67.9432 17.2131 67.8198 17.1233 67.591 17.0061C67.1103 16.7586 66.0846 16.3511 64.6221 16.4051C62.8692 16.47 61.0214 17.1632 59.1303 18.4655C58.995 18.559 58.9605 18.7444 59.0539 18.8798C59.1472 19.0153 59.3327 19.0496 59.4683 18.9562C61.2647 17.7191 63.0061 17.0611 64.6441 17.0006C65.9709 16.9516 66.8894 17.315 67.3188 17.5361C67.4422 17.5993 67.5268 17.6519 67.5698 17.6801C67.6446 17.8055 67.8301 18.3926 66.4997 20.2287C65.4609 21.6625 63.8682 23.33 62.0151 24.9241C60.1619 26.5182 58.2752 27.8438 56.7022 28.6567C54.6878 29.6977 54.1351 29.4267 54.0223 29.334C54.001 29.2877 53.9619 29.1965 53.9178 29.0658C53.7642 28.6095 53.5429 27.65 53.7861 26.3514C54.0865 24.7473 54.9885 23.1296 56.4669 21.5435C56.579 21.4232 56.5724 21.2346 56.452 21.1224C56.3316 21.0102 56.143 21.0175 56.031 21.1372C54.4744 22.8074 53.522 24.5248 53.2005 26.2417C52.9324 27.6731 53.181 28.7446 53.3531 29.2559C53.4348 29.4985 53.5047 29.6333 53.5124 29.6479C53.5228 29.6676 53.5353 29.686 53.5499 29.7029C54.0453 30.2787 55.1979 30.1049 56.9757 29.1861C58.5888 28.3525 60.5165 26.9993 62.4037 25.3758Z" fill="#150F1B"/>
<path d="M60.2997 20.67C60.3983 20.5851 60.4329 20.442 60.3753 20.3183C60.3588 20.2829 58.7218 16.7707 58.2603 15.7284C58.1725 15.5301 57.9239 15.219 57.2454 15.3637C56.5374 15.5146 55.5108 16.1345 54.6311 16.9419C54.0391 17.4852 53.0463 18.5491 53.0497 19.5703C53.05 19.6738 53.1041 19.7696 53.1924 19.8236L57.6237 22.5286C57.7641 22.6143 57.9474 22.5699 58.0332 22.4295C58.1189 22.289 58.0746 22.1057 57.9341 22.0199L53.6572 19.4092C53.8425 18.1298 56.1861 16.1987 57.3697 15.9464C57.5223 15.9139 57.6886 15.9084 57.7157 15.9697C58.1794 17.0171 59.8188 20.5346 59.8354 20.57C59.9049 20.7192 60.0821 20.7837 60.2312 20.7142C60.2564 20.7023 60.2795 20.6874 60.2997 20.67Z" fill="#150F1B"/>
<path d="M56.6541 18.3678C56.9613 18.1036 57.2109 17.8256 57.4014 17.5353C57.7501 17.0035 57.7668 16.6199 57.7676 16.5779C57.7705 16.4134 57.6395 16.2777 57.4751 16.2748C57.3121 16.2719 57.1774 16.4003 57.172 16.5626C57.1697 16.5928 57.0659 17.725 54.868 18.8097C54.7205 18.8825 54.6599 19.0611 54.7328 19.2086C54.8056 19.3562 54.9842 19.4168 55.1318 19.3439C55.7378 19.0448 56.2466 18.7184 56.6541 18.3678Z" fill="#150F1B"/>
<path d="M66.2753 47.7546C66.9463 47.1774 66.745 45.8431 65.8256 44.7743C64.9062 43.7055 63.617 43.3069 62.946 43.8841C62.2749 44.4613 62.4762 45.7957 63.3956 46.8645C64.315 47.9333 65.6042 48.3318 66.2753 47.7546Z" fill="#150F1B"/>
<path d="M40.6662 35.5001C40.9936 35.8808 41.0217 36.3935 40.7289 36.6453C40.4361 36.8972 39.9334 36.7928 39.606 36.4122C39.2786 36.0316 39.2505 35.5188 39.5432 35.267C39.836 35.0151 40.3387 35.1196 40.6662 35.5001Z" fill="#150F1B"/>
<path d="M62.9525 43.874C59.9653 45.9253 55.4738 43.0093 51.4029 37.7944C47.332 32.5795 42.8344 32.7126 39.5433 35.2669L40.729 36.6453C40.729 36.6453 42.284 35.4439 43.9829 35.5411C45.536 35.63 46.3717 35.4093 51.4097 41.6626C54.2311 45.1645 60.1118 51.834 66.282 47.7444L62.9525 43.874Z" fill="#150F1B"/>
<path d="M73.5757 21.3279L72.3917 19.2476C73.1495 19.4359 74.0874 19.3742 74.8075 18.3775C76.2477 16.3825 67.9507 10.1581 72.8687 4.73435C77.7868 -0.689443 88.9418 11.3973 90.0424 15.0577C91.1435 18.7178 90.5835 19.4894 89.0214 21.7135C87.55 23.8084 92.7591 28.7492 90.0841 32.0241C89.8835 31.769 89.6459 31.5129 89.3649 31.2602C87.8089 29.8598 86.3902 30.1575 86.3902 30.1575C86.3902 30.1575 86.3902 30.1575 86.3903 30.1566C86.3979 30.1107 86.6647 28.3935 84.4966 26.5592C85.0679 26.54 85.6576 26.3511 86.0989 25.8025C87.3078 24.2996 85.3884 22.337 86.0258 20.8157C86.6631 19.2945 90.4368 18.4571 85.6116 13.0634C80.7867 7.67025 77.4499 5.99949 75.3197 7.83194C73.1895 9.66439 75.9134 13.8541 77.08 16.5569C78.2471 19.2603 77.8162 19.3762 76.5669 20.0847C76.1587 20.3164 76.0616 20.7764 76.1159 21.2917L73.5757 21.3279Z" fill="#150F1B"/>
<path d="M39.6265 58.4828C38.7805 58.2112 37.7747 58.0104 36.6796 57.8894C35.8794 57.8006 35.0309 57.7542 34.161 57.7542C32.1006 57.7542 30.1601 58.0127 28.6956 58.4828C28.4733 58.5544 28.2707 58.6276 28.086 58.7021C26.5964 59.3033 26.2628 59.9939 26.2628 60.4926C26.2628 60.8048 26.3939 61.1927 26.8586 61.5865C27.0105 61.7158 27.1989 61.8451 27.4294 61.9732C27.7577 62.1555 28.173 62.3337 28.6956 62.5017C30.1601 62.9718 32.1007 63.2311 34.161 63.2311C36.101 63.2311 37.9344 63.0011 39.3643 62.5822C39.4531 62.556 39.5407 62.5292 39.6264 62.5017C40.516 62.2157 41.0952 61.8993 41.4633 61.5865C41.9281 61.1927 42.0592 60.8048 42.0592 60.4926C42.0592 59.9319 41.6374 59.1287 39.6265 58.4828ZM39.4442 61.9344C39.3649 61.96 39.2839 61.985 39.2011 62.0089C37.8254 62.4135 36.0481 62.6352 34.1611 62.6352C32.1609 62.6352 30.2847 62.3861 28.8779 61.9344C28.2481 61.7319 27.7453 61.4971 27.3985 61.2505C27.0488 61.002 26.8587 60.7422 26.8587 60.4926C26.8587 60.1732 27.1703 59.8366 27.7286 59.5291C28.039 59.3575 28.4257 59.1955 28.8779 59.0501C30.2847 58.5985 32.1609 58.35 34.1611 58.35C35.1859 58.35 36.178 58.4149 37.0907 58.5395C37.9606 58.6574 38.7578 58.8296 39.4442 59.0501C40.7086 59.4564 41.4634 59.9957 41.4634 60.4926C41.4634 60.9895 40.7086 61.5281 39.4442 61.9344Z" fill="#150F1B"/>
<path d="M42.0585 75.717V75.7253C42.0591 75.7283 42.0585 75.7313 42.0579 75.7336C42.0585 75.7384 42.0579 75.7432 42.0573 75.7473C42.043 76.299 41.611 77.073 39.6954 77.7034C39.6722 77.7111 39.649 77.7183 39.6257 77.726C39.5107 77.763 39.3922 77.7987 39.2712 77.8327C39.1938 77.8547 39.1151 77.8768 39.0353 77.8971C38.9179 77.9281 38.7975 77.9579 38.6754 77.9865C37.3664 78.2909 35.8011 78.4548 34.1602 78.4548C33.086 78.4548 32.0439 78.3845 31.0852 78.2499C30.8826 78.2218 30.6837 78.1909 30.4894 78.1569C30.4793 78.1551 30.4697 78.1533 30.4596 78.1515C30.4495 78.1497 30.4393 78.1479 30.4298 78.1461C30.4257 78.1455 30.4221 78.145 30.4179 78.1437C30.3816 78.1378 30.3452 78.1312 30.3095 78.1241C30.2594 78.1151 30.2094 78.1056 30.1606 78.0961C30.1189 78.0877 30.0772 78.08 30.036 78.0711C30.005 78.0651 29.9741 78.0586 29.9437 78.052C29.905 78.0437 29.8668 78.0359 29.8287 78.0275C29.8257 78.0269 29.8234 78.0264 29.8204 78.0257C29.7888 78.0191 29.7578 78.012 29.7274 78.0049C29.6982 77.9983 29.669 77.9918 29.6398 77.9846C29.3074 77.9071 28.9916 77.8207 28.6955 77.726C26.6846 77.0801 26.2621 76.2769 26.2621 75.7169C26.2621 75.7133 26.2621 75.7103 26.2627 75.7068C26.2675 75.5472 26.3992 75.419 26.56 75.419C26.7244 75.419 26.8579 75.5525 26.8579 75.7169V75.7223C26.8633 76.218 27.6176 76.7536 28.8772 77.1588C29.302 77.2952 29.7691 77.4132 30.2702 77.5109C30.3429 77.5253 30.4156 77.539 30.4895 77.5526C30.6312 77.5782 30.7755 77.602 30.9214 77.6247C30.9756 77.633 31.0298 77.6414 31.0853 77.6492C32.038 77.7868 33.0813 77.8589 34.1603 77.8589C35.8155 77.8589 37.3855 77.6885 38.6755 77.3739C38.6922 77.3704 38.7082 77.3661 38.7249 77.362C38.9132 77.3155 39.0955 77.2655 39.2713 77.2124C39.2814 77.2095 39.291 77.2065 39.3005 77.2035C39.3488 77.1893 39.397 77.1737 39.4441 77.1589C40.7085 76.7525 41.4628 76.2139 41.4628 75.717C41.4628 75.7134 41.4628 75.7104 41.4634 75.7069C41.4658 75.6319 41.4956 75.5645 41.5439 75.5132C41.5981 75.4554 41.6749 75.4191 41.7608 75.4191C41.7887 75.4191 41.8162 75.4232 41.8418 75.4304C41.9668 75.4655 42.0585 75.5805 42.0585 75.717Z" fill="#150F1B"/>
<path d="M26.8585 60.4926V75.717C26.8585 75.7188 26.8585 75.7206 26.8579 75.7224C26.8555 75.8844 26.7232 76.0149 26.5606 76.0149C26.3962 76.0149 26.2627 75.8815 26.2627 75.717V60.4926C26.2627 60.3282 26.3962 60.1947 26.5606 60.1947C26.725 60.1947 26.8585 60.3281 26.8585 60.4926Z" fill="#150F1B"/>
<path d="M42.059 60.4926V75.717C42.059 75.7194 42.059 75.7224 42.0584 75.7253C42.059 75.7283 42.0584 75.7313 42.0578 75.7337C42.0584 75.7384 42.0578 75.7432 42.0572 75.7474C42.0423 75.8975 41.9154 76.0149 41.761 76.0149C41.5966 76.0149 41.4631 75.8814 41.4631 75.717V60.4926C41.4631 60.3281 41.5966 60.1946 41.761 60.1946C41.9256 60.1947 42.059 60.3281 42.059 60.4926Z" fill="#150F1B"/>
<path d="M46.1353 74.2947H41.7608C41.5963 74.2947 41.4629 74.1614 41.4629 73.9968C41.4629 73.8322 41.5963 73.6989 41.7608 73.6989H46.1353C47.234 73.6989 48.1278 72.8047 48.1278 71.7056V65.2238C48.1278 64.1251 47.234 63.2313 46.1353 63.2313H41.7608C41.5963 63.2313 41.4629 63.0979 41.4629 62.9333C41.4629 62.7688 41.5963 62.6354 41.7608 62.6354H46.1353C47.5625 62.6354 48.7236 63.7965 48.7236 65.2238V71.7056C48.7235 73.1333 47.5624 74.2947 46.1353 74.2947Z" fill="#150F1B"/>
<path d="M45.75 72.5753H41.7607C41.5962 72.5753 41.4628 72.442 41.4628 72.2774C41.4628 72.1128 41.5962 71.9795 41.7607 71.9795H45.75C46.1129 71.9795 46.4082 71.6838 46.4082 71.3204V65.609C46.4082 65.2461 46.1129 64.9509 45.75 64.9509H41.7607C41.5962 64.9509 41.4628 64.8176 41.4628 64.653C41.4628 64.4884 41.5962 64.3551 41.7607 64.3551H45.75C46.4415 64.3551 47.0039 64.9176 47.0039 65.609V71.3204C47.004 72.0124 46.4415 72.5753 45.75 72.5753Z" fill="#150F1B"/>
<path d="M38.6755 91.3377C38.0606 91.1947 37.3885 91.0827 36.6795 91.0046C35.8793 90.9159 35.0308 90.8693 34.1609 90.8693C33.0861 90.8693 32.0446 90.9397 31.0853 91.0743C30.8827 91.1023 30.6843 91.1333 30.4895 91.1679V91.772C30.6831 91.7368 30.8821 91.7041 31.0853 91.6749C32.038 91.5372 33.0813 91.4651 34.1609 91.4651C35.1857 91.4651 36.1778 91.5301 37.0906 91.6546C37.653 91.7309 38.1845 91.8298 38.6755 91.9496C38.7309 91.9633 38.7857 91.977 38.8399 91.9913C38.971 92.0246 39.0991 92.0604 39.2242 92.098C39.2403 92.1021 39.2558 92.1069 39.2713 92.1117V91.4915C39.0795 91.4366 38.8811 91.3853 38.6755 91.3377ZM41.4633 93.7526C41.4568 93.7508 41.4508 93.749 41.4443 93.7466C41.3978 93.9153 41.2697 94.0863 41.0689 94.2531C40.7251 94.5409 40.168 94.8167 39.4441 95.0497C39.3649 95.0753 39.2839 95.1004 39.2011 95.1242C37.8253 95.5288 36.048 95.7504 34.161 95.7504C32.1608 95.7504 30.2846 95.5014 28.8778 95.0497C28.394 94.8942 27.9853 94.7196 27.6647 94.5349C27.5676 94.4795 27.4788 94.4228 27.3984 94.3657C27.2548 94.2637 27.1386 94.1601 27.0516 94.0565C26.9878 94.0684 26.9229 94.0809 26.8586 94.0922C26.7114 94.119 26.5613 94.144 26.4093 94.1672C26.4999 94.3382 26.6423 94.5175 26.8544 94.6981C26.8556 94.6993 26.8574 94.7004 26.8586 94.7016C27.0104 94.831 27.1988 94.9602 27.4293 95.0883C27.7576 95.2706 28.1729 95.4488 28.6955 95.6168C30.16 96.0869 32.1006 96.3461 34.1609 96.3461C36.1009 96.3461 37.9343 96.1161 39.3642 95.6972C39.453 95.671 39.5406 95.6442 39.6263 95.6168C40.5159 95.3308 41.0951 95.0144 41.4633 94.7015C41.5652 94.6151 41.6516 94.5287 41.7236 94.4436C41.8821 94.2559 41.9727 94.0736 42.0186 93.9043C41.8268 93.8568 41.6415 93.8062 41.4633 93.7526Z" fill="#150F1B"/>
<path d="M34.1605 111.57C32.1005 111.57 30.1596 111.311 28.6953 110.841C26.6844 110.195 26.2623 109.392 26.2623 108.832C26.2623 108.668 26.3957 108.534 26.5602 108.534C26.7247 108.534 26.8582 108.668 26.8582 108.832C26.8582 109.329 27.613 109.868 28.8774 110.274C30.2844 110.725 32.1607 110.974 34.1605 110.974C36.1607 110.974 38.0371 110.725 39.4439 110.274C40.7081 109.868 41.4629 109.329 41.4629 108.832C41.4629 108.668 41.5963 108.534 41.7608 108.534C41.9254 108.534 42.0588 108.668 42.0588 108.832C42.0588 109.392 41.6368 110.195 39.6261 110.841C38.1619 111.311 36.2209 111.57 34.1605 111.57Z" fill="#150F1B"/>
<path d="M26.4093 94.1672C26.5612 94.1439 26.7113 94.119 26.8585 94.0922V94.6969V94.7017V108.832C26.8585 108.833 26.8585 108.834 26.8579 108.835V108.836C26.8585 108.836 26.8579 108.837 26.8579 108.838C26.8555 109 26.7232 109.13 26.5606 109.13C26.3962 109.13 26.2627 108.997 26.2627 108.832V108.822V94.7906V94.1895L26.4093 94.1672Z" fill="#150F1B"/>
<path d="M42.059 93.914V108.832C42.059 108.835 42.059 108.838 42.0584 108.841C42.059 108.844 42.0584 108.846 42.0578 108.849C42.05 109.006 41.9201 109.13 41.761 109.13C41.5966 109.13 41.4631 108.997 41.4631 108.832V93.7525C41.6413 93.8062 41.8266 93.8568 42.0185 93.9044C42.0316 93.908 42.0453 93.911 42.059 93.914Z" fill="#150F1B"/>
<path d="M46.1353 107.41H41.7608C41.5963 107.41 41.4629 107.276 41.4629 107.112C41.4629 106.947 41.5963 106.814 41.7608 106.814H46.1353C47.234 106.814 48.1278 105.92 48.1278 104.82V98.3387C48.1278 97.24 47.234 96.3462 46.1353 96.3462H41.7608C41.5963 96.3462 41.4629 96.2129 41.4629 96.0483C41.4629 95.8837 41.5963 95.7504 41.7608 95.7504H46.1353C47.5625 95.7504 48.7236 96.9115 48.7236 98.3387V104.82C48.7235 106.248 47.5624 107.41 46.1353 107.41Z" fill="#150F1B"/>
<path d="M45.75 105.69H41.7607C41.5962 105.69 41.4628 105.557 41.4628 105.392C41.4628 105.228 41.5962 105.094 41.7607 105.094H45.75C46.1129 105.094 46.4082 104.799 46.4082 104.435V98.7239C46.4082 98.361 46.1129 98.0658 45.75 98.0658H41.7607C41.5962 98.0658 41.4628 97.9325 41.4628 97.7679C41.4628 97.6033 41.5962 97.47 41.7607 97.47H45.75C46.4415 97.47 47.0039 98.0325 47.0039 98.7239V104.435C47.004 105.127 46.4415 105.69 45.75 105.69Z" fill="#150F1B"/>
<path d="M18.1124 93.7633C18.1046 93.7615 18.0975 93.7591 18.0897 93.7567C18.0408 93.9247 17.9104 94.0951 17.7078 94.262C17.3635 94.5462 16.8106 94.819 16.0932 95.0497C16.0139 95.0753 15.9329 95.1003 15.8501 95.1242C14.4743 95.5288 12.697 95.7504 10.81 95.7504C8.80988 95.7504 6.93365 95.5014 5.52688 95.0497C4.89713 94.8471 4.3942 94.6123 4.04749 94.3656C3.69771 94.1172 3.50766 93.8574 3.50766 93.6077C3.50766 93.2883 3.81928 92.9517 4.37759 92.6443C4.68796 92.4727 5.07471 92.3106 5.52695 92.1652C6.93372 91.7136 8.80996 91.4651 10.8101 91.4651C11.8349 91.4651 12.827 91.5301 13.7398 91.6546C14.288 91.7291 14.8075 91.825 15.2883 91.9406C15.3479 91.955 15.4068 91.9699 15.4653 91.9854C15.4659 91.9854 15.4659 91.9854 15.4659 91.9854C15.5892 92.0164 15.7096 92.0498 15.827 92.0837H15.8276C15.8466 92.0896 15.8651 92.095 15.8842 92.1009V91.4813C15.6924 91.4271 15.4933 91.3764 15.2884 91.3294C14.683 91.1906 14.0241 91.0815 13.3287 91.0047C12.5285 90.9159 11.6801 90.8694 10.8102 90.8694C8.74987 90.8694 6.80925 91.128 5.34475 91.5981C5.12251 91.6696 4.91993 91.7428 4.73521 91.8173C3.24564 92.4185 2.91199 93.1091 2.91199 93.6078C2.91199 93.9201 3.04306 94.3079 3.50783 94.7017C3.65973 94.831 3.84804 94.9603 4.07858 95.0884C4.40689 95.2706 4.82216 95.4489 5.34475 95.6168C6.80925 96.0869 8.74987 96.3461 10.8102 96.3461C12.7502 96.3461 14.5835 96.1161 16.0135 95.6973C16.1022 95.671 16.1898 95.6442 16.2757 95.6168C17.1653 95.3308 17.7444 95.0145 18.1126 94.7016C18.2115 94.6176 18.2955 94.5336 18.3664 94.4513C18.5261 94.2643 18.6184 94.0819 18.6661 93.9127C18.4746 93.8663 18.29 93.8163 18.1124 93.7633ZM18.0897 93.7567C18.0408 93.9247 17.9104 94.0951 17.7078 94.262C17.3635 94.5462 16.8106 94.819 16.0932 95.0497C16.0139 95.0753 15.9329 95.1003 15.8501 95.1242C14.4743 95.5288 12.697 95.7504 10.81 95.7504C8.80988 95.7504 6.93365 95.5014 5.52688 95.0497C4.89713 94.8471 4.3942 94.6123 4.04749 94.3656C3.69771 94.1172 3.50766 93.8574 3.50766 93.6077V94.7016C3.65955 94.8309 3.84789 94.9602 4.07843 95.0883C4.40674 95.2706 4.82199 95.4488 5.34457 95.6167C6.80908 96.0868 8.74972 96.3461 10.81 96.3461C12.7501 96.3461 14.5834 96.1161 16.0133 95.6972C16.1021 95.6709 16.1897 95.6442 16.2755 95.6167C17.1651 95.3307 17.7443 95.0144 18.1124 94.7015V93.7631C18.1046 93.7615 18.0975 93.7591 18.0897 93.7567Z" fill="#150F1B"/>
<path d="M10.8098 111.57C8.74982 111.57 6.80886 111.311 5.34459 110.841C3.33377 110.195 2.91162 109.392 2.91162 108.832C2.91162 108.668 3.04503 108.534 3.20953 108.534C3.37404 108.534 3.50745 108.668 3.50745 108.832C3.50745 109.329 4.26229 109.868 5.52672 110.274C6.93372 110.725 8.80998 110.974 10.8098 110.974C12.81 110.974 14.6864 110.725 16.0933 110.274C17.3575 109.868 18.1122 109.329 18.1122 108.832C18.1122 108.668 18.2456 108.534 18.4101 108.534C18.5746 108.534 18.708 108.668 18.708 108.832C18.708 109.392 18.2861 110.195 16.2754 110.841C14.8112 111.311 12.8702 111.57 10.8098 111.57Z" fill="#150F1B"/>
<path d="M3.20978 109.13C3.04527 109.13 2.91187 108.997 2.91187 108.832V93.6075C2.91187 93.4429 3.04527 93.3096 3.20978 93.3096C3.37428 93.3096 3.50769 93.4429 3.50769 93.6075V108.832C3.50769 108.997 3.37428 109.13 3.20978 109.13Z" fill="#150F1B"/>
<path d="M18.7083 93.9229V108.832C18.7083 108.835 18.7083 108.838 18.7077 108.841C18.7077 108.844 18.7077 108.846 18.7071 108.849C18.6993 109.006 18.5694 109.13 18.4103 109.13C18.2459 109.13 18.1124 108.997 18.1124 108.832V93.7633C18.29 93.8163 18.4746 93.8664 18.6659 93.9128C18.6797 93.9164 18.6939 93.92 18.7083 93.9229Z" fill="#150F1B"/>
<path d="M22.7847 107.41H18.4102C18.2457 107.41 18.1123 107.276 18.1123 107.112C18.1123 106.947 18.2457 106.814 18.4102 106.814H22.7847C23.8834 106.814 24.7772 105.92 24.7772 104.82V98.3386C24.7772 97.2399 23.8834 96.3461 22.7847 96.3461H18.4102C18.2457 96.3461 18.1123 96.2128 18.1123 96.0482C18.1123 95.8836 18.2457 95.7503 18.4102 95.7503H22.7847C24.2119 95.7503 25.373 96.9114 25.373 98.3386V104.82C25.373 106.248 24.2119 107.41 22.7847 107.41Z" fill="#150F1B"/>
<path d="M22.3995 105.69H18.4102C18.2457 105.69 18.1123 105.557 18.1123 105.392C18.1123 105.228 18.2457 105.094 18.4102 105.094H22.3995C22.7624 105.094 23.0576 104.799 23.0576 104.435V98.7239C23.0576 98.361 22.7624 98.0658 22.3995 98.0658H18.4102C18.2457 98.0658 18.1123 97.9325 18.1123 97.7679C18.1123 97.6033 18.2457 97.47 18.4102 97.47H22.3995C23.091 97.47 23.6534 98.0325 23.6534 98.7239V104.435C23.6534 105.127 23.091 105.69 22.3995 105.69Z" fill="#150F1B"/>
<path d="M63.2696 91.598C62.4235 91.3263 61.4178 91.1256 60.3227 91.0046C59.5225 90.9159 58.6741 90.8693 57.8042 90.8693C56.6328 90.8693 55.5001 90.9527 54.4717 91.1118C54.2692 91.1429 54.0702 91.1768 53.8759 91.2143V91.8202C54.0696 91.7821 54.268 91.7464 54.4717 91.7142C55.4924 91.5509 56.6268 91.4651 57.8042 91.4651C58.829 91.4651 59.821 91.5301 60.7338 91.6546C61.6037 91.7726 62.4009 91.9448 63.0873 92.1652C64.3516 92.5716 65.1065 93.1109 65.1065 93.6077C65.1065 94.1046 64.3515 94.6433 63.0873 95.0496C63.0081 95.0752 62.927 95.1003 62.8442 95.1241C61.4684 95.5287 59.6912 95.7503 57.8042 95.7503C55.804 95.7503 53.9278 95.5013 52.5211 95.0496C52.0003 94.8816 51.5654 94.6922 51.2347 94.4913H51.2341C51.1655 94.4502 51.1012 94.4079 51.0416 94.3656C50.8777 94.2489 50.749 94.1302 50.6591 94.0116C50.6072 94.0224 50.5548 94.0331 50.5018 94.0438C50.3486 94.0742 50.192 94.1028 50.0322 94.1291C50.1163 94.2995 50.2503 94.4782 50.4535 94.6593C50.469 94.6737 50.485 94.6873 50.5017 94.7016C50.6536 94.831 50.8419 94.9602 51.0725 95.0883C51.4008 95.2706 51.816 95.4488 52.3386 95.6168C53.8031 96.0869 55.7438 96.3461 57.8041 96.3461C59.7441 96.3461 61.5774 96.1161 63.0074 95.6972C63.0961 95.671 63.1837 95.6442 63.2696 95.6168C64.1591 95.3308 64.7383 95.0144 65.1065 94.7015C65.5713 94.3077 65.7023 93.9198 65.7023 93.6077C65.7024 93.0471 65.2805 92.244 63.2696 91.598Z" fill="#150F1B"/>
<path d="M57.8041 111.57C55.7441 111.57 53.8031 111.311 52.3389 110.841C50.328 110.195 49.9059 109.392 49.9059 108.832C49.9059 108.668 50.0393 108.534 50.2038 108.534C50.3683 108.534 50.5017 108.668 50.5017 108.832C50.5017 109.329 51.2566 109.868 52.521 110.274C53.928 110.725 55.8042 110.974 57.8041 110.974C59.8043 110.974 61.6807 110.725 63.0875 110.274C64.3517 109.868 65.1065 109.329 65.1065 108.832C65.1065 108.668 65.2399 108.534 65.4044 108.534C65.5689 108.534 65.7023 108.668 65.7023 108.832C65.7023 109.392 65.2802 110.195 63.2696 110.841C61.8055 111.311 59.8644 111.57 57.8041 111.57Z" fill="#150F1B"/>
<path d="M50.0324 94.1291C50.192 94.103 50.3488 94.0743 50.502 94.0439V94.6505V94.7017V108.832C50.502 108.997 50.3685 109.13 50.204 109.13C50.0396 109.13 49.9061 108.997 49.9061 108.832V94.7529V94.15L50.0324 94.1291Z" fill="#150F1B"/>
<path d="M65.4047 109.13C65.2402 109.13 65.1068 108.997 65.1068 108.832V93.6075C65.1068 93.4429 65.2402 93.3096 65.4047 93.3096C65.5692 93.3096 65.7026 93.4429 65.7026 93.6075V108.832C65.7026 108.997 65.5693 109.13 65.4047 109.13Z" fill="#150F1B"/>
<path d="M69.7788 107.41H65.4044C65.2399 107.41 65.1064 107.276 65.1064 107.112C65.1064 106.947 65.2399 106.814 65.4044 106.814H69.7788C70.8775 106.814 71.7713 105.92 71.7713 104.82V98.3387C71.7713 97.24 70.8775 96.3462 69.7788 96.3462H65.4044C65.2399 96.3462 65.1064 96.2129 65.1064 96.0483C65.1064 95.8837 65.2399 95.7504 65.4044 95.7504H69.7788C71.2061 95.7504 72.3672 96.9115 72.3672 98.3387V104.82C72.3672 106.248 71.2061 107.41 69.7788 107.41Z" fill="#150F1B"/>
<path d="M69.3937 105.69H65.4044C65.2399 105.69 65.1064 105.557 65.1064 105.392C65.1064 105.228 65.2399 105.094 65.4044 105.094H69.3937C69.7566 105.094 70.0518 104.799 70.0518 104.435V98.7239C70.0518 98.361 69.7565 98.0658 69.3937 98.0658H65.4044C65.2399 98.0658 65.1064 97.9325 65.1064 97.7679C65.1064 97.6033 65.2399 97.47 65.4044 97.47H69.3937C70.0851 97.47 70.6476 98.0325 70.6476 98.7239V104.435C70.6476 105.127 70.0851 105.69 69.3937 105.69Z" fill="#150F1B"/>
<path d="M30.43 78.1462C30.4258 78.1456 30.4222 78.1451 30.4181 78.1438C30.3817 78.1379 30.3454 78.1313 30.3097 78.1242C30.2596 78.1152 30.2096 78.1057 30.1608 78.0962C30.1191 78.0878 30.0773 78.0801 30.0362 78.0712C30.0052 78.0652 29.9742 78.0587 29.9438 78.0521C29.9051 78.0438 29.867 78.036 29.8288 78.0276C29.8259 78.027 29.8235 78.0265 29.8205 78.0258C29.789 78.0192 29.7579 78.0121 29.7276 78.005C29.6983 77.9984 29.6692 77.9919 29.64 77.9847C29.326 78.1605 28.9321 78.3267 28.4698 78.4751C28.3906 78.5007 28.3095 78.5258 28.2267 78.5496C26.851 78.9541 25.0736 79.1758 23.1867 79.1758C21.1865 79.1758 19.3103 78.9268 17.9035 78.4751C17.2737 78.2725 16.7708 78.0377 16.4241 77.7911C16.0743 77.5427 15.8843 77.2828 15.8843 77.0332V78.1271C16.0362 78.2564 16.2245 78.3857 16.455 78.5138C16.7834 78.6961 17.1986 78.8743 17.7212 79.0423C19.1857 79.5124 21.1263 79.7716 23.1867 79.7716C25.1267 79.7716 26.96 79.5416 28.39 79.1227C28.4787 79.0965 28.5663 79.0697 28.6521 79.0423C29.5184 78.7634 30.0904 78.4565 30.4598 78.1515C30.4497 78.1498 30.4396 78.148 30.43 78.1462ZM30.43 78.1462C30.4258 78.1456 30.4222 78.1451 30.4181 78.1438C30.3817 78.1379 30.3454 78.1313 30.3097 78.1242C30.2596 78.1152 30.2096 78.1057 30.1608 78.0962C30.1191 78.0878 30.0773 78.0801 30.0362 78.0712C30.0052 78.0652 29.9742 78.0587 29.9438 78.0521C29.9051 78.0438 29.867 78.036 29.8288 78.0276C29.8259 78.027 29.8235 78.0265 29.8205 78.0258C29.789 78.0192 29.7579 78.0121 29.7276 78.005C29.6983 77.9984 29.6692 77.9919 29.64 77.9847C29.326 78.1605 28.9321 78.3267 28.4698 78.4751C28.3906 78.5007 28.3095 78.5258 28.2267 78.5496C26.851 78.9541 25.0736 79.1758 23.1867 79.1758C21.1865 79.1758 19.3103 78.9268 17.9035 78.4751C17.2737 78.2725 16.7708 78.0377 16.4241 77.7911C16.0743 77.5427 15.8843 77.2828 15.8843 77.0332V78.1271C16.0362 78.2564 16.2245 78.3857 16.455 78.5138C16.7834 78.6961 17.1986 78.8743 17.7212 79.0423C19.1857 79.5124 21.1263 79.7716 23.1867 79.7716C25.1267 79.7716 26.96 79.5416 28.39 79.1227C28.4787 79.0965 28.5663 79.0697 28.6521 79.0423C29.5184 78.7634 30.0904 78.4565 30.4598 78.1515C30.4497 78.1498 30.4396 78.148 30.43 78.1462ZM30.43 78.1462C30.4258 78.1456 30.4222 78.1451 30.4181 78.1438C30.3817 78.1379 30.3454 78.1313 30.3097 78.1242C30.2596 78.1152 30.2096 78.1057 30.1608 78.0962C30.1191 78.0878 30.0773 78.0801 30.0362 78.0712C30.0052 78.0652 29.9742 78.0587 29.9438 78.0521C29.9051 78.0438 29.867 78.036 29.8288 78.0276C29.8259 78.027 29.8235 78.0265 29.8205 78.0258C29.789 78.0192 29.7579 78.0121 29.7276 78.005C29.6983 77.9984 29.6692 77.9919 29.64 77.9847C29.326 78.1605 28.9321 78.3267 28.4698 78.4751C28.3906 78.5007 28.3095 78.5258 28.2267 78.5496C26.851 78.9541 25.0736 79.1758 23.1867 79.1758C21.1865 79.1758 19.3103 78.9268 17.9035 78.4751C17.2737 78.2725 16.7708 78.0377 16.4241 77.7911C16.0743 77.5427 15.8843 77.2828 15.8843 77.0332V78.1271C16.0362 78.2564 16.2245 78.3857 16.455 78.5138C16.7834 78.6961 17.1986 78.8743 17.7212 79.0423C19.1857 79.5124 21.1263 79.7716 23.1867 79.7716C25.1267 79.7716 26.96 79.5416 28.39 79.1227C28.4787 79.0965 28.5663 79.0697 28.6521 79.0423C29.5184 78.7634 30.0904 78.4565 30.4598 78.1515C30.4497 78.1498 30.4396 78.148 30.43 78.1462ZM30.43 78.1462C30.4258 78.1456 30.4222 78.1451 30.4181 78.1438C30.3817 78.1379 30.3454 78.1313 30.3097 78.1242C30.2596 78.1152 30.2096 78.1057 30.1608 78.0962C30.1191 78.0878 30.0773 78.0801 30.0362 78.0712C30.0052 78.0652 29.9742 78.0587 29.9438 78.0521C29.9051 78.0438 29.867 78.036 29.8288 78.0276C29.8259 78.027 29.8235 78.0265 29.8205 78.0258C29.789 78.0192 29.7579 78.0121 29.7276 78.005C29.6983 77.9984 29.6692 77.9919 29.64 77.9847C29.326 78.1605 28.9321 78.3267 28.4698 78.4751C28.3906 78.5007 28.3095 78.5258 28.2267 78.5496C26.851 78.9541 25.0736 79.1758 23.1867 79.1758C21.1865 79.1758 19.3103 78.9268 17.9035 78.4751C17.2737 78.2725 16.7708 78.0377 16.4241 77.7911C16.0743 77.5427 15.8843 77.2828 15.8843 77.0332V78.1271C16.0362 78.2564 16.2245 78.3857 16.455 78.5138C16.7834 78.6961 17.1986 78.8743 17.7212 79.0423C19.1857 79.5124 21.1263 79.7716 23.1867 79.7716C25.1267 79.7716 26.96 79.5416 28.39 79.1227C28.4787 79.0965 28.5663 79.0697 28.6521 79.0423C29.5184 78.7634 30.0904 78.4565 30.4598 78.1515C30.4497 78.1498 30.4396 78.148 30.43 78.1462ZM30.43 78.1462C30.4258 78.1456 30.4222 78.1451 30.4181 78.1438C30.3817 78.1379 30.3454 78.1313 30.3097 78.1242C30.2596 78.1152 30.2096 78.1057 30.1608 78.0962C30.1191 78.0878 30.0773 78.0801 30.0362 78.0712C30.0052 78.0652 29.9742 78.0587 29.9438 78.0521C29.9051 78.0438 29.867 78.036 29.8288 78.0276C29.8259 78.027 29.8235 78.0265 29.8205 78.0258C29.789 78.0192 29.7579 78.0121 29.7276 78.005C29.6983 77.9984 29.6692 77.9919 29.64 77.9847C29.326 78.1605 28.9321 78.3267 28.4698 78.4751C28.3906 78.5007 28.3095 78.5258 28.2267 78.5496C26.851 78.9541 25.0736 79.1758 23.1867 79.1758C21.1865 79.1758 19.3103 78.9268 17.9035 78.4751C17.2737 78.2725 16.7708 78.0377 16.4241 77.7911C16.0743 77.5427 15.8843 77.2828 15.8843 77.0332V78.1271C16.0362 78.2564 16.2245 78.3857 16.455 78.5138C16.7834 78.6961 17.1986 78.8743 17.7212 79.0423C19.1857 79.5124 21.1263 79.7716 23.1867 79.7716C25.1267 79.7716 26.96 79.5416 28.39 79.1227C28.4787 79.0965 28.5663 79.0697 28.6521 79.0423C29.5184 78.7634 30.0904 78.4565 30.4598 78.1515C30.4497 78.1498 30.4396 78.148 30.43 78.1462ZM30.43 78.1462C30.4258 78.1456 30.4222 78.1451 30.4181 78.1438C30.3817 78.1379 30.3454 78.1313 30.3097 78.1242C30.2596 78.1152 30.2096 78.1057 30.1608 78.0962C30.1191 78.0878 30.0773 78.0801 30.0362 78.0712C30.0052 78.0652 29.9742 78.0587 29.9438 78.0521C29.9051 78.0438 29.867 78.036 29.8288 78.0276C29.8259 78.027 29.8235 78.0265 29.8205 78.0258C29.789 78.0192 29.7579 78.0121 29.7276 78.005C29.6983 77.9984 29.6692 77.9919 29.64 77.9847C29.326 78.1605 28.9321 78.3267 28.4698 78.4751C28.3906 78.5007 28.3095 78.5258 28.2267 78.5496C26.851 78.9541 25.0736 79.1758 23.1867 79.1758C21.1865 79.1758 19.3103 78.9268 17.9035 78.4751C17.2737 78.2725 16.7708 78.0377 16.4241 77.7911C16.0743 77.5427 15.8843 77.2828 15.8843 77.0332V78.1271C16.0362 78.2564 16.2245 78.3857 16.455 78.5138C16.7834 78.6961 17.1986 78.8743 17.7212 79.0423C19.1857 79.5124 21.1263 79.7716 23.1867 79.7716C25.1267 79.7716 26.96 79.5416 28.39 79.1227C28.4787 79.0965 28.5663 79.0697 28.6521 79.0423C29.5184 78.7634 30.0904 78.4565 30.4598 78.1515C30.4497 78.1498 30.4396 78.148 30.43 78.1462ZM30.4896 77.5528C30.4157 77.5391 30.343 77.5254 30.2703 77.5112C30.1268 77.6727 29.9141 77.8323 29.64 77.9849C29.326 78.1606 28.9321 78.3269 28.4698 78.4753C28.3906 78.5009 28.3095 78.5259 28.2267 78.5498C26.851 78.9543 25.0736 79.176 23.1867 79.176C21.1865 79.176 19.3103 78.9269 17.9035 78.4753C17.2737 78.2727 16.7708 78.0379 16.4241 77.7912C16.0743 77.5428 15.8843 77.283 15.8843 77.0334V77.0328C15.8849 76.7134 16.1964 76.3774 16.7541 76.0699C17.0646 75.8983 17.4513 75.7363 17.9035 75.5909C19.3103 75.1393 21.1864 74.8908 23.1867 74.8908C24.2115 74.8908 25.2035 74.9557 26.1163 75.0803C26.1657 75.0869 26.2146 75.094 26.2629 75.1006C26.4661 75.1304 26.6644 75.1626 26.8587 75.1977V74.593C26.6639 74.559 26.4655 74.528 26.2629 74.5001C26.08 74.4744 25.8941 74.4512 25.7052 74.4303C24.905 74.3416 24.0565 74.295 23.1867 74.295C21.1263 74.295 19.1857 74.5536 17.7212 75.0237C17.499 75.0953 17.2964 75.1685 17.1117 75.243C15.6233 75.8436 15.2891 76.5335 15.2885 77.0323V77.0335C15.2885 77.3456 15.4195 77.7336 15.8843 78.1274C16.0362 78.2566 16.2245 78.386 16.455 78.514C16.7834 78.6963 17.1986 78.8745 17.7212 79.0425C19.1857 79.5126 21.1263 79.7718 23.1867 79.7718C25.1267 79.7718 26.96 79.5418 28.39 79.1229C28.4787 79.0967 28.5663 79.0699 28.6521 79.0425C29.5184 78.7636 30.0904 78.4568 30.4598 78.1517C30.4699 78.1434 30.4794 78.1357 30.489 78.1273L30.4896 78.1267C30.6904 77.9562 30.8286 77.7871 30.9216 77.625C30.7755 77.6023 30.6314 77.5785 30.4896 77.5528ZM30.43 78.1462C30.4258 78.1456 30.4222 78.1451 30.4181 78.1438C30.3817 78.1379 30.3454 78.1313 30.3097 78.1242C30.2596 78.1152 30.2096 78.1057 30.1608 78.0962C30.1191 78.0878 30.0773 78.0801 30.0362 78.0712C30.0052 78.0652 29.9742 78.0587 29.9438 78.0521C29.9051 78.0438 29.867 78.036 29.8288 78.0276C29.8259 78.027 29.8235 78.0265 29.8205 78.0258C29.789 78.0192 29.7579 78.0121 29.7276 78.005C29.6983 77.9984 29.6692 77.9919 29.64 77.9847C29.326 78.1605 28.9321 78.3267 28.4698 78.4751C28.3906 78.5007 28.3095 78.5258 28.2267 78.5496C26.851 78.9541 25.0736 79.1758 23.1867 79.1758C21.1865 79.1758 19.3103 78.9268 17.9035 78.4751C17.2737 78.2725 16.7708 78.0377 16.4241 77.7911C16.0743 77.5427 15.8843 77.2828 15.8843 77.0332V78.1271C16.0362 78.2564 16.2245 78.3857 16.455 78.5138C16.7834 78.6961 17.1986 78.8743 17.7212 79.0423C19.1857 79.5124 21.1263 79.7716 23.1867 79.7716C25.1267 79.7716 26.96 79.5416 28.39 79.1227C28.4787 79.0965 28.5663 79.0697 28.6521 79.0423C29.5184 78.7634 30.0904 78.4565 30.4598 78.1515C30.4497 78.1498 30.4396 78.148 30.43 78.1462ZM30.43 78.1462C30.4258 78.1456 30.4222 78.1451 30.4181 78.1438C30.3817 78.1379 30.3454 78.1313 30.3097 78.1242C30.2596 78.1152 30.2096 78.1057 30.1608 78.0962C30.1191 78.0878 30.0773 78.0801 30.0362 78.0712C30.0052 78.0652 29.9742 78.0587 29.9438 78.0521C29.9051 78.0438 29.867 78.036 29.8288 78.0276C29.8259 78.027 29.8235 78.0265 29.8205 78.0258C29.789 78.0192 29.7579 78.0121 29.7276 78.005C29.6983 77.9984 29.6692 77.9919 29.64 77.9847C29.326 78.1605 28.9321 78.3267 28.4698 78.4751C28.3906 78.5007 28.3095 78.5258 28.2267 78.5496C26.851 78.9541 25.0736 79.1758 23.1867 79.1758C21.1865 79.1758 19.3103 78.9268 17.9035 78.4751C17.2737 78.2725 16.7708 78.0377 16.4241 77.7911C16.0743 77.5427 15.8843 77.2828 15.8843 77.0332V78.1271C16.0362 78.2564 16.2245 78.3857 16.455 78.5138C16.7834 78.6961 17.1986 78.8743 17.7212 79.0423C19.1857 79.5124 21.1263 79.7716 23.1867 79.7716C25.1267 79.7716 26.96 79.5416 28.39 79.1227C28.4787 79.0965 28.5663 79.0697 28.6521 79.0423C29.5184 78.7634 30.0904 78.4565 30.4598 78.1515C30.4497 78.1498 30.4396 78.148 30.43 78.1462ZM30.43 78.1462C30.4258 78.1456 30.4222 78.1451 30.4181 78.1438C30.3817 78.1379 30.3454 78.1313 30.3097 78.1242C30.2596 78.1152 30.2096 78.1057 30.1608 78.0962C30.1191 78.0878 30.0773 78.0801 30.0362 78.0712C30.0052 78.0652 29.9742 78.0587 29.9438 78.0521C29.9051 78.0438 29.867 78.036 29.8288 78.0276C29.8259 78.027 29.8235 78.0265 29.8205 78.0258C29.789 78.0192 29.7579 78.0121 29.7276 78.005C29.6983 77.9984 29.6692 77.9919 29.64 77.9847C29.326 78.1605 28.9321 78.3267 28.4698 78.4751C28.3906 78.5007 28.3095 78.5258 28.2267 78.5496C26.851 78.9541 25.0736 79.1758 23.1867 79.1758C21.1865 79.1758 19.3103 78.9268 17.9035 78.4751C17.2737 78.2725 16.7708 78.0377 16.4241 77.7911C16.0743 77.5427 15.8843 77.2828 15.8843 77.0332V78.1271C16.0362 78.2564 16.2245 78.3857 16.455 78.5138C16.7834 78.6961 17.1986 78.8743 17.7212 79.0423C19.1857 79.5124 21.1263 79.7716 23.1867 79.7716C25.1267 79.7716 26.96 79.5416 28.39 79.1227C28.4787 79.0965 28.5663 79.0697 28.6521 79.0423C29.5184 78.7634 30.0904 78.4565 30.4598 78.1515C30.4497 78.1498 30.4396 78.148 30.43 78.1462ZM30.43 78.1462C30.4258 78.1456 30.4222 78.1451 30.4181 78.1438C30.3817 78.1379 30.3454 78.1313 30.3097 78.1242C30.2596 78.1152 30.2096 78.1057 30.1608 78.0962C30.1191 78.0878 30.0773 78.0801 30.0362 78.0712C30.0052 78.0652 29.9742 78.0587 29.9438 78.0521C29.9051 78.0438 29.867 78.036 29.8288 78.0276C29.8259 78.027 29.8235 78.0265 29.8205 78.0258C29.789 78.0192 29.7579 78.0121 29.7276 78.005C29.6983 77.9984 29.6692 77.9919 29.64 77.9847C29.326 78.1605 28.9321 78.3267 28.4698 78.4751C28.3906 78.5007 28.3095 78.5258 28.2267 78.5496C26.851 78.9541 25.0736 79.1758 23.1867 79.1758C21.1865 79.1758 19.3103 78.9268 17.9035 78.4751C17.2737 78.2725 16.7708 78.0377 16.4241 77.7911C16.0743 77.5427 15.8843 77.2828 15.8843 77.0332V78.1271C16.0362 78.2564 16.2245 78.3857 16.455 78.5138C16.7834 78.6961 17.1986 78.8743 17.7212 79.0423C19.1857 79.5124 21.1263 79.7716 23.1867 79.7716C25.1267 79.7716 26.96 79.5416 28.39 79.1227C28.4787 79.0965 28.5663 79.0697 28.6521 79.0423C29.5184 78.7634 30.0904 78.4565 30.4598 78.1515C30.4497 78.1498 30.4396 78.148 30.43 78.1462ZM30.43 78.1462C30.4258 78.1456 30.4222 78.1451 30.4181 78.1438C30.3817 78.1379 30.3454 78.1313 30.3097 78.1242C30.2596 78.1152 30.2096 78.1057 30.1608 78.0962C30.1191 78.0878 30.0773 78.0801 30.0362 78.0712C30.0052 78.0652 29.9742 78.0587 29.9438 78.0521C29.9051 78.0438 29.867 78.036 29.8288 78.0276C29.8259 78.027 29.8235 78.0265 29.8205 78.0258C29.789 78.0192 29.7579 78.0121 29.7276 78.005C29.6983 77.9984 29.6692 77.9919 29.64 77.9847C29.326 78.1605 28.9321 78.3267 28.4698 78.4751C28.3906 78.5007 28.3095 78.5258 28.2267 78.5496C26.851 78.9541 25.0736 79.1758 23.1867 79.1758C21.1865 79.1758 19.3103 78.9268 17.9035 78.4751C17.2737 78.2725 16.7708 78.0377 16.4241 77.7911C16.0743 77.5427 15.8843 77.2828 15.8843 77.0332V78.1271C16.0362 78.2564 16.2245 78.3857 16.455 78.5138C16.7834 78.6961 17.1986 78.8743 17.7212 79.0423C19.1857 79.5124 21.1263 79.7716 23.1867 79.7716C25.1267 79.7716 26.96 79.5416 28.39 79.1227C28.4787 79.0965 28.5663 79.0697 28.6521 79.0423C29.5184 78.7634 30.0904 78.4565 30.4598 78.1515C30.4497 78.1498 30.4396 78.148 30.43 78.1462ZM30.43 78.1462C30.4258 78.1456 30.4222 78.1451 30.4181 78.1438C30.3817 78.1379 30.3454 78.1313 30.3097 78.1242C30.2596 78.1152 30.2096 78.1057 30.1608 78.0962C30.1191 78.0878 30.0773 78.0801 30.0362 78.0712C30.0052 78.0652 29.9742 78.0587 29.9438 78.0521C29.9051 78.0438 29.867 78.036 29.8288 78.0276C29.8259 78.027 29.8235 78.0265 29.8205 78.0258C29.789 78.0192 29.7579 78.0121 29.7276 78.005C29.6983 77.9984 29.6692 77.9919 29.64 77.9847C29.326 78.1605 28.9321 78.3267 28.4698 78.4751C28.3906 78.5007 28.3095 78.5258 28.2267 78.5496C26.851 78.9541 25.0736 79.1758 23.1867 79.1758C21.1865 79.1758 19.3103 78.9268 17.9035 78.4751C17.2737 78.2725 16.7708 78.0377 16.4241 77.7911C16.0743 77.5427 15.8843 77.2828 15.8843 77.0332V78.1271C16.0362 78.2564 16.2245 78.3857 16.455 78.5138C16.7834 78.6961 17.1986 78.8743 17.7212 79.0423C19.1857 79.5124 21.1263 79.7716 23.1867 79.7716C25.1267 79.7716 26.96 79.5416 28.39 79.1227C28.4787 79.0965 28.5663 79.0697 28.6521 79.0423C29.5184 78.7634 30.0904 78.4565 30.4598 78.1515C30.4497 78.1498 30.4396 78.148 30.43 78.1462ZM30.43 78.1462C30.4258 78.1456 30.4222 78.1451 30.4181 78.1438C30.3817 78.1379 30.3454 78.1313 30.3097 78.1242C30.2596 78.1152 30.2096 78.1057 30.1608 78.0962C30.1191 78.0878 30.0773 78.0801 30.0362 78.0712C30.0052 78.0652 29.9742 78.0587 29.9438 78.0521C29.9051 78.0438 29.867 78.036 29.8288 78.0276C29.8259 78.027 29.8235 78.0265 29.8205 78.0258C29.789 78.0192 29.7579 78.0121 29.7276 78.005C29.6983 77.9984 29.6692 77.9919 29.64 77.9847C29.326 78.1605 28.9321 78.3267 28.4698 78.4751C28.3906 78.5007 28.3095 78.5258 28.2267 78.5496C26.851 78.9541 25.0736 79.1758 23.1867 79.1758C21.1865 79.1758 19.3103 78.9268 17.9035 78.4751C17.2737 78.2725 16.7708 78.0377 16.4241 77.7911C16.0743 77.5427 15.8843 77.2828 15.8843 77.0332V78.1271C16.0362 78.2564 16.2245 78.3857 16.455 78.5138C16.7834 78.6961 17.1986 78.8743 17.7212 79.0423C19.1857 79.5124 21.1263 79.7716 23.1867 79.7716C25.1267 79.7716 26.96 79.5416 28.39 79.1227C28.4787 79.0965 28.5663 79.0697 28.6521 79.0423C29.5184 78.7634 30.0904 78.4565 30.4598 78.1515C30.4497 78.1498 30.4396 78.148 30.43 78.1462Z" fill="#150F1B"/>
<path d="M31.0847 92.2576V92.2659C31.0854 92.2689 31.0847 92.2713 31.0841 92.2742C31.0847 92.279 31.0841 92.2838 31.0835 92.288C31.0691 92.8469 30.6265 93.6328 28.6519 94.2661C28.3433 94.365 28.0132 94.455 27.6646 94.5348C27.4055 94.5943 27.1362 94.6486 26.8585 94.6969C26.8573 94.6975 26.8555 94.6975 26.8543 94.6981C26.6613 94.7314 26.464 94.7624 26.2627 94.7904C25.3034 94.9251 24.2614 94.9953 23.1865 94.9953C21.5611 94.9953 20.0096 94.8339 18.7083 94.5348C18.5921 94.508 18.4783 94.4806 18.3664 94.4514C18.2806 94.4294 18.1954 94.4067 18.1126 94.3835C17.9785 94.3459 17.848 94.3066 17.7211 94.2661C17.717 94.2649 17.7122 94.2631 17.708 94.262C15.7085 93.6173 15.2885 92.8165 15.2885 92.2576C15.2885 92.1361 15.3612 92.0318 15.4654 91.9853C15.466 91.9853 15.466 91.9853 15.466 91.9853C15.5029 91.9687 15.5435 91.9597 15.5864 91.9597C15.6859 91.9597 15.7741 92.0086 15.8271 92.0836H15.8277C15.8634 92.1325 15.8844 92.1927 15.8844 92.2576C15.8844 92.7545 16.6392 93.2932 17.9036 93.699C17.9649 93.7186 18.0269 93.7377 18.0901 93.7568C18.0979 93.7592 18.105 93.7616 18.1127 93.7634C18.2903 93.8164 18.475 93.8664 18.6663 93.9129C18.68 93.9165 18.6942 93.9201 18.7086 93.923C19.9914 94.2323 21.5471 94.3997 23.1868 94.3997C24.2664 94.3997 25.3102 94.327 26.2629 94.1893C26.3124 94.1822 26.3613 94.175 26.4095 94.1673C26.5615 94.1441 26.7116 94.1191 26.8588 94.0923C26.9231 94.0809 26.988 94.0685 27.0518 94.0566C27.5619 93.9571 28.0385 93.8378 28.4699 93.699C29.7342 93.2933 30.4891 92.7547 30.4891 92.2577C30.4891 92.2542 30.4891 92.2512 30.4898 92.2476C30.4945 92.0879 30.6262 91.9598 30.7871 91.9598C30.9513 91.9596 31.0847 92.0931 31.0847 92.2576Z" fill="#150F1B"/>
<path d="M15.8842 77.0326V92.2576C15.8842 92.4221 15.7513 92.5555 15.5862 92.5555C15.4218 92.5555 15.2883 92.4221 15.2883 92.2576V77.032C15.289 76.8676 15.4218 76.7347 15.5862 76.7347C15.7513 76.7347 15.8842 76.8681 15.8842 77.0326Z" fill="#150F1B"/>
<path d="M31.0853 77.6493V92.2577C31.0853 92.2607 31.0853 92.2631 31.0847 92.2661C31.0853 92.269 31.0846 92.2714 31.084 92.2744C31.0846 92.2791 31.084 92.2839 31.0834 92.2881C31.0685 92.4383 30.9416 92.5556 30.7873 92.5556C30.6222 92.5556 30.4894 92.4221 30.4894 92.2577V77.5528C30.6312 77.5784 30.7754 77.6022 30.9213 77.6249C30.9757 77.6332 31.0299 77.6415 31.0853 77.6493Z" fill="#150F1B"/>
<path d="M35.1612 90.835H30.7867C30.6222 90.835 30.4888 90.7017 30.4888 90.5371C30.4888 90.3725 30.6222 90.2392 30.7867 90.2392H35.1612C36.2598 90.2392 37.1537 89.345 37.1537 88.2458V81.7641C37.1537 80.6654 36.2598 79.7716 35.1612 79.7716H30.7867C30.6222 79.7716 30.4888 79.6383 30.4888 79.4737C30.4888 79.3091 30.6222 79.1758 30.7867 79.1758H35.1612C36.5884 79.1758 37.7495 80.3369 37.7495 81.7641V88.2458C37.7495 89.6735 36.5884 90.835 35.1612 90.835Z" fill="#150F1B"/>
<path d="M34.7761 89.1156H30.7868C30.6223 89.1156 30.4889 88.9822 30.4889 88.8177C30.4889 88.6531 30.6223 88.5197 30.7868 88.5197H34.7761C35.139 88.5197 35.4342 88.2241 35.4342 87.8607V82.1493C35.4342 81.7864 35.139 81.4912 34.7761 81.4912H30.7868C30.6223 81.4912 30.4889 81.3579 30.4889 81.1933C30.4889 81.0288 30.6223 80.8954 30.7868 80.8954H34.7761C35.4675 80.8954 36.03 81.4579 36.03 82.1493V87.8607C36.03 88.5526 35.4675 89.1156 34.7761 89.1156Z" fill="#150F1B"/>
<path d="M39.3005 77.2036C39.3553 77.3698 39.49 77.539 39.6955 77.7035C39.7319 77.7328 39.7706 77.7619 39.8111 77.7911C40.1579 78.0378 40.6608 78.2726 41.2905 78.4751C42.6973 78.9268 44.5735 79.1759 46.5736 79.1759C48.4606 79.1759 50.2379 78.9542 51.6137 78.5497C51.6965 78.5258 51.7775 78.5008 51.8567 78.4751C53.1211 78.0688 53.876 77.5302 53.876 77.0333V77.0326C53.8753 76.5358 53.1205 75.9971 51.8567 75.5908C51.1704 75.3704 50.3731 75.1982 49.5033 75.0802C48.5905 74.9556 47.5984 74.8907 46.5736 74.8907C44.9185 74.8907 43.3484 75.0605 42.0591 75.3757C41.9852 75.3929 41.9131 75.4114 41.8416 75.4305C41.7404 75.4573 41.6409 75.4847 41.5437 75.5133C41.5169 75.5211 41.4901 75.5288 41.4633 75.5371V74.9169C41.6551 74.862 41.8542 74.8108 42.0591 74.7632C43.3681 74.4587 44.9327 74.2949 46.5736 74.2949C47.4436 74.2949 48.292 74.3413 49.0922 74.4301C50.1872 74.551 51.193 74.7518 52.0391 75.0235C54.0489 75.6688 54.4712 76.4714 54.4719 77.032V77.0332C54.4719 77.3455 54.3408 77.7333 53.876 78.1272C53.5079 78.44 52.9287 78.7564 52.0391 79.0424C51.9533 79.0698 51.8658 79.0966 51.7769 79.1228C50.347 79.5417 48.5137 79.7717 46.5736 79.7717C44.5133 79.7717 42.5728 79.5125 41.1082 79.0424C40.5857 78.8743 40.1703 78.6962 39.8421 78.5139C39.6115 78.3858 39.4232 78.2565 39.2713 78.1273C39.1801 78.0498 39.1021 77.9729 39.0353 77.8973C38.8721 77.712 38.7761 77.5309 38.7249 77.3622C38.9132 77.3158 39.0955 77.2657 39.2713 77.2127L39.3005 77.2036Z" fill="#150F1B"/>
<path d="M54.4718 92.2576C54.4718 92.8177 54.0494 93.6209 52.0391 94.2662C51.7847 94.3478 51.516 94.4229 51.2347 94.4914H51.2341C50.9988 94.5492 50.7539 94.6023 50.5019 94.6505C50.4858 94.6535 50.4697 94.6565 50.4536 94.6594C50.2749 94.6928 50.092 94.7244 49.9061 94.753C48.8777 94.9114 47.745 94.9954 46.5736 94.9954C44.9327 94.9954 43.3681 94.831 42.0591 94.5265C41.9453 94.5003 41.8332 94.4723 41.7236 94.4437C41.6355 94.4211 41.5485 94.3972 41.4633 94.3728C41.3423 94.3388 41.2238 94.3031 41.1082 94.2662C41.0951 94.262 41.082 94.2579 41.0688 94.2531C39.0919 93.6102 38.6754 92.8142 38.6754 92.2577C38.6754 92.1415 38.7421 92.0403 38.8398 91.9914C38.8798 91.9712 38.9251 91.9598 38.9733 91.9598C39.0788 91.9598 39.1717 92.0146 39.2242 92.0981C39.2539 92.144 39.2712 92.1987 39.2712 92.2577C39.2712 92.7546 40.0261 93.2933 41.2904 93.699C41.341 93.7152 41.3924 93.7312 41.4441 93.7467C41.4506 93.7491 41.4567 93.7508 41.4632 93.7526C41.6413 93.8063 41.8267 93.8569 42.0185 93.9045C42.0316 93.9081 42.0453 93.9111 42.059 93.9141C43.3483 94.2292 44.9184 94.3997 46.5736 94.3997C47.7509 94.3997 48.8853 94.3133 49.906 94.15C49.9483 94.1434 49.9906 94.1363 50.0323 94.1292C50.1919 94.1029 50.3487 94.0743 50.5018 94.0439C50.5549 94.0332 50.6073 94.0225 50.6591 94.0118C51.0869 93.9217 51.4879 93.8175 51.8567 93.699C53.1211 93.2933 53.8759 92.7546 53.8759 92.2576C53.8759 92.0932 54.0094 91.9597 54.1739 91.9597C54.3384 91.9597 54.4718 92.0932 54.4718 92.2576Z" fill="#150F1B"/>
<path d="M39.2712 77.2125V92.2576C39.2712 92.4221 39.1378 92.5555 38.9733 92.5555C38.8089 92.5555 38.6754 92.4221 38.6754 92.2576V77.374C38.6921 77.3705 38.7081 77.3662 38.7248 77.3621C38.9132 77.3155 39.0955 77.2656 39.2712 77.2125Z" fill="#150F1B"/>
<path d="M54.4718 77.0319V92.2575C54.4718 92.4219 54.3389 92.5554 54.1739 92.5554C54.0095 92.5554 53.876 92.4219 53.876 92.2575V77.0325C53.876 76.868 54.0095 76.7346 54.1739 76.7346C54.3389 76.7346 54.4712 76.8675 54.4718 77.0319Z" fill="#150F1B"/>
<path d="M58.5482 90.835H54.1738C54.0093 90.835 53.8759 90.7017 53.8759 90.5371C53.8759 90.3725 54.0093 90.2392 54.1738 90.2392H58.5482C59.6469 90.2392 60.5407 89.345 60.5407 88.2458V81.7641C60.5407 80.6654 59.6469 79.7716 58.5482 79.7716H54.1738C54.0093 79.7716 53.8759 79.6383 53.8759 79.4737C53.8759 79.3091 54.0093 79.1758 54.1738 79.1758H58.5482C59.9755 79.1758 61.1366 80.3369 61.1366 81.7641V88.2458C61.1366 89.6735 59.9755 90.835 58.5482 90.835Z" fill="#150F1B"/>
<path d="M58.1631 89.1156H54.1738C54.0093 89.1156 53.8759 88.9822 53.8759 88.8177C53.8759 88.6531 54.0093 88.5197 54.1738 88.5197H58.1631C58.526 88.5197 58.8212 88.2241 58.8212 87.8607V82.1493C58.8212 81.7864 58.5259 81.4912 58.1631 81.4912H54.1738C54.0093 81.4912 53.8759 81.3579 53.8759 81.1933C53.8759 81.0288 54.0093 80.8954 54.1738 80.8954H58.1631C58.8545 80.8954 59.417 81.4579 59.417 82.1493V87.8607C59.417 88.5526 58.8545 89.1156 58.1631 89.1156Z" fill="#150F1B"/>
<path d="M39.8979 75.4146C38.403 77.4338 31.7375 76.8338 29.6658 76.297C27.5941 75.7601 27.6305 75.0308 27.6711 73.3816C27.7479 70.2357 30.4541 68.2164 31.8525 70.2357C33.9242 73.2279 36.494 72.4992 37.6832 71.9624C38.8724 71.425 39.2181 69.8907 38.4125 68.45C37.8566 67.4561 37.9401 66.364 38.3607 65.6627C38.5245 65.3886 38.7408 65.1741 38.9899 65.0484C39.0267 65.0293 39.0649 65.0132 39.1031 64.9983C40.0617 64.6325 40.0236 65.5941 40.2536 69.0082C40.4841 72.4224 41.0334 73.8803 39.8979 75.4146Z" fill="#150F1B"/>
<path d="M16.3801 97.7217C16.215 97.5812 16.0067 97.4922 15.791 97.47C15.2393 97.5489 14.917 98.0563 14.5924 98.6341C14.2628 99.221 14.0253 100.711 14.1879 100.846C14.2982 100.937 14.4726 100.903 14.5818 100.81C14.691 100.717 14.752 100.582 14.8147 100.453C14.9185 100.24 15.0407 100.028 15.227 99.8817C15.4134 99.7355 15.6775 99.6674 15.8923 99.767C16.0299 99.8309 16.1491 99.9597 16.3006 99.9518C16.4586 99.9436 16.5657 99.7899 16.6309 99.6458C16.9304 98.9831 16.8766 98.1443 16.3801 97.7217Z" fill="#150F1B"/>
<path d="M38.9899 65.0484C38.826 65.2921 38.6181 65.5024 38.3667 65.6591C38.3649 65.6603 38.3625 65.6615 38.3607 65.6627C38.5246 65.3886 38.7409 65.1741 38.9899 65.0484Z" fill="#150F1B"/>
<path d="M45.2622 33.9845C42.6001 34.4403 39.929 35.0588 37.5362 36.3123C35.1439 37.566 33.0324 39.5197 32.0439 42.0334C31.5405 43.3132 31.3075 44.7581 30.3875 45.7805C29.8411 46.3876 29.1018 46.7827 28.4797 47.3124C27.4489 48.19 26.7536 49.452 26.5623 50.7919C26.442 51.6356 26.5509 52.583 27.1563 53.1836C28.0114 54.032 29.5248 53.8038 30.4387 53.0185C31.3527 52.2333 31.8151 51.0588 32.2441 49.9327C32.5736 51.6249 31.7954 53.3396 30.8183 54.7589C29.9102 56.0775 28.8062 57.2786 28.0858 58.7021C28.0298 58.8111 27.9768 58.9219 27.9262 59.0339C27.8535 59.1948 27.7873 59.3598 27.7283 59.5291C27.5347 60.0808 27.4161 60.6695 27.3982 61.2504C27.3905 61.4941 27.4001 61.736 27.4293 61.9732C27.7576 62.1555 28.1728 62.3337 28.6954 62.5017C30.1599 62.9718 32.1006 63.231 34.1609 63.231C36.1009 63.231 37.9342 63.001 39.3642 62.5822C39.3219 62.3885 39.267 62.1973 39.2009 62.009C38.9918 61.4084 38.6736 60.8346 38.3239 60.3019C37.93 59.7037 37.4903 59.1329 37.0905 58.5395C36.9469 58.3268 36.8087 58.1105 36.6794 57.8895C36.5752 57.712 36.4768 57.5302 36.3868 57.3443C35.4752 55.4645 35.4567 53.2928 35.4562 51.2032C35.4556 49.6106 35.455 48.0173 35.4544 46.4247C35.4538 44.8214 35.4812 43.119 36.3457 41.7695C36.5423 41.4627 36.8051 41.1647 37.1596 41.0801C37.5779 40.9807 38.0111 41.2082 38.3167 41.5109C39.1032 42.2885 39.276 43.5177 39.0824 44.6068C38.8887 45.6959 38.3841 46.6999 37.9771 47.7289C37.6733 48.4975 37.4647 49.4872 38.0624 50.0585C38.6361 50.6079 39.6544 50.3636 40.1638 49.7541C40.6726 49.1446 40.796 48.3075 40.8514 47.5157C41.0075 45.273 40.7835 43.0011 40.1686 40.8389C39.4536 38.3275 40.3807 36.9887 41.0171 36.3529C42.6495 34.7203 44.0092 34.4248 45.2622 33.9845ZM28.4958 50.1497C28.3922 50.1497 28.3081 50.0658 28.3081 49.962C28.3081 49.8583 28.3921 49.775 28.4958 49.775C28.5995 49.775 28.6829 49.8584 28.6829 49.962C28.6829 50.0657 28.5995 50.1497 28.4958 50.1497ZM28.3081 49.5766C28.0614 49.5766 27.8618 49.377 27.8618 49.1303C27.8618 48.8836 28.0614 48.6834 28.3081 48.6834C28.5548 48.6834 28.755 48.8836 28.755 49.1303C28.755 49.377 28.5548 49.5766 28.3081 49.5766ZM29.2585 49.775C29.1018 49.775 28.9743 49.6474 28.9743 49.4902C28.9743 49.3329 29.1018 49.206 29.2585 49.206C29.4158 49.206 29.5433 49.3329 29.5433 49.4902C29.5432 49.6474 29.4157 49.775 29.2585 49.775ZM29.949 61.353C29.7024 61.353 29.5028 61.1528 29.5028 60.9061C29.5028 60.6594 29.7024 60.4592 29.949 60.4592C30.1957 60.4592 30.3959 60.6595 30.3959 60.9061C30.3959 61.1528 30.1957 61.353 29.949 61.353ZM30.8886 60.3818C30.7855 60.3865 30.6979 60.3067 30.6932 60.203C30.6884 60.0993 30.7688 60.0117 30.8719 60.0076C30.9756 60.0028 31.0631 60.0826 31.0674 60.1863C31.0722 60.29 30.9923 60.3776 30.8886 60.3818ZM37.6465 37.4242C37.5434 37.4242 37.4594 37.3402 37.4594 37.2365C37.4594 37.1328 37.5435 37.0488 37.6465 37.0488C37.7501 37.0488 37.8342 37.1328 37.8342 37.2365C37.8342 37.3401 37.7501 37.4242 37.6465 37.4242ZM38.5467 37.1346C38.3894 37.1346 38.262 37.007 38.262 36.8504C38.262 36.6931 38.3895 36.5655 38.5467 36.5655C38.7034 36.5655 38.8309 36.6931 38.8309 36.8504C38.8309 37.0071 38.7035 37.1346 38.5467 37.1346Z" fill="#150F1B"/>
<path d="M37.7496 68.1048C37.286 66.7783 37.2508 65.4793 38.3607 64.7413C39.4707 64.0032 37.6698 62.6156 36.548 64.1213C35.4262 65.6269 37.7496 68.1048 37.7496 68.1048Z" fill="#150F1B"/>
<path d="M27.9257 69.7921C27.9257 70.0001 28.0942 70.1687 28.3022 70.1687C28.5102 70.1687 28.6788 70.0001 28.6788 69.7921C28.6788 69.5841 28.5102 69.4155 28.3022 69.4155C28.0942 69.4155 27.9257 69.5841 27.9257 69.7921Z" fill="#150F1B"/>
<path d="M18.7963 87.6149C18.7963 87.8229 18.9649 87.9915 19.1728 87.9915C19.3808 87.9915 19.5494 87.8229 19.5494 87.6149C19.5494 87.4069 19.3808 87.2383 19.1728 87.2383C18.9649 87.2383 18.7963 87.4069 18.7963 87.6149Z" fill="#150F1B"/>
<path d="M47.0853 87.2154C47.2933 87.2154 47.4619 87.0468 47.4619 86.8389C47.4619 86.6309 47.2933 86.4623 47.0853 86.4623C46.8773 86.4623 46.7087 86.6309 46.7087 86.8389C46.7087 87.0468 46.8773 87.2154 47.0853 87.2154Z" fill="#150F1B"/>
<path d="M57.023 100.951C57.231 100.951 57.3996 100.783 57.3996 100.575C57.3996 100.367 57.231 100.198 57.023 100.198C56.8151 100.198 56.6465 100.367 56.6465 100.575C56.6465 100.783 56.8151 100.951 57.023 100.951Z" fill="#150F1B"/>
<path d="M60.4219 104.795C60.4219 105.003 60.5904 105.172 60.7984 105.172C61.0064 105.172 61.175 105.003 61.175 104.795C61.175 104.587 61.0064 104.419 60.7984 104.419C60.5904 104.419 60.4219 104.587 60.4219 104.795Z" fill="#150F1B"/>
<path d="M24.9963 85.4307C25.2043 85.4307 25.3729 85.2621 25.3729 85.0541C25.3729 84.8462 25.2043 84.6776 24.9963 84.6776C24.7883 84.6776 24.6198 84.8462 24.6198 85.0541C24.6198 85.2621 24.7883 85.4307 24.9963 85.4307Z" fill="#150F1B"/>
<path d="M51.6846 89.1156C51.6846 89.3236 51.8532 89.4921 52.0611 89.4921C52.2691 89.4921 52.4377 89.3236 52.4377 89.1156C52.4377 88.9076 52.2691 88.739 52.0611 88.739C51.8532 88.7389 51.6846 88.9076 51.6846 89.1156Z" fill="#150F1B"/>
<path d="M28.8372 69.0778C29.1918 69.0778 29.4794 68.7666 29.4794 68.3828C29.4794 67.999 29.1918 67.6878 28.8372 67.6878C28.4825 67.6878 28.1949 67.999 28.1949 68.3828C28.1949 68.7666 28.4825 69.0778 28.8372 69.0778Z" fill="#150F1B"/>
<path d="M20.4969 87.7526C20.8516 87.7526 21.1391 87.4414 21.1391 87.0576C21.1391 86.6737 20.8516 86.3625 20.4969 86.3625C20.1423 86.3625 19.8547 86.6737 19.8547 87.0576C19.8547 87.4414 20.1423 87.7526 20.4969 87.7526Z" fill="#150F1B"/>
<path d="M29.7629 82.2316C29.7334 81.6517 29.6246 80.9732 29.1092 80.7059C28.6093 80.4466 27.9755 80.7428 27.6307 81.188C27.0524 81.935 27.0534 82.9581 26.8824 83.8872C26.7114 84.8163 26.1595 85.8521 25.2173 85.9208C24.6501 85.9622 24.1333 85.632 23.6154 85.3969C23.0975 85.1619 22.4271 85.0378 22.0076 85.422C21.6072 85.7887 21.6444 86.4139 21.6338 86.9567C21.6232 87.4997 21.4198 88.1645 20.8837 88.2513C20.701 88.2809 20.516 88.2323 20.333 88.2039C19.3317 88.0483 18.2596 88.5618 17.7533 89.4395C17.2468 90.3173 17.3389 91.5024 17.9749 92.2915C18.9199 93.464 20.6475 93.561 22.1517 93.4873C23.4118 93.4257 24.6694 93.313 25.9203 93.1496C26.7022 93.0474 27.511 92.9142 28.1626 92.4702C29.0333 91.8768 29.4817 90.8063 29.5709 89.7564C29.6601 88.7065 29.5401 87.6764 29.6235 86.9226C29.7956 85.3661 29.8423 83.7956 29.7629 82.2316ZM26.2627 91.9408C26.0547 91.9408 25.8861 91.7723 25.8861 91.5643C25.8861 91.3563 26.0547 91.1877 26.2627 91.1877C26.4706 91.1877 26.6392 91.3563 26.6392 91.5643C26.6392 91.7723 26.4706 91.9408 26.2627 91.9408ZM27.8924 86.8617C28.1003 86.8617 28.2689 87.0303 28.2689 87.2383C28.2689 87.4463 28.1003 87.6149 27.8924 87.6149C27.6844 87.6149 27.5158 87.4463 27.5158 87.2383C27.5158 87.0303 27.6844 86.8617 27.8924 86.8617ZM27.8924 91.5643C27.5377 91.5643 27.2502 91.2531 27.2502 90.8693C27.2502 90.4855 27.5377 90.1743 27.8924 90.1743C28.2471 90.1743 28.5346 90.4854 28.5346 90.8693C28.5346 91.2531 28.2471 91.5643 27.8924 91.5643Z" fill="#150F1B"/>
<path d="M45.7353 87.3597C46.09 87.3597 46.3775 87.0485 46.3775 86.6647C46.3775 86.2808 46.09 85.9697 45.7353 85.9697C45.3807 85.9697 45.0931 86.2808 45.0931 86.6647C45.0931 87.0485 45.3807 87.3597 45.7353 87.3597Z" fill="#150F1B"/>
<path d="M52.7392 90.7115C52.4485 89.9847 51.6575 89.4912 50.877 89.5504C50.2838 89.5955 49.596 89.8964 49.1574 89.4944C48.8591 89.2212 48.8562 88.7541 48.6552 88.4031C48.3792 87.9213 47.7756 87.733 47.2214 87.6994C46.667 87.6658 46.1007 87.7434 45.5617 87.6099C45.0227 87.4765 44.4954 87.04 44.5099 86.4849C44.5228 85.9928 44.9403 85.6109 45.0947 85.1433C45.3409 84.398 44.8622 83.5835 44.2283 83.1205C43.5945 82.6575 42.8212 82.4345 42.1222 82.0774C41.4232 81.7204 40.4985 80.5467 40.3761 79.7714C40.1873 82.4784 40.5276 86.0337 40.6182 88.9296C40.6504 89.9599 40.4528 91.2556 41.0165 91.9595C41.7942 92.9306 43.2422 93.2914 44.4723 93.4774C46.1033 93.7241 48.0861 93.3183 49.7348 93.3751C50.5926 93.4046 51.5298 93.3822 52.193 92.8374C52.7977 92.3405 53.0299 91.4382 52.7392 90.7115ZM41.8366 89.4921C41.8366 89.2841 42.0052 89.1156 42.2132 89.1156C42.4212 89.1156 42.5898 89.2841 42.5898 89.4921C42.5898 89.7001 42.4212 89.8687 42.2132 89.8687C42.0052 89.8687 41.8366 89.7001 41.8366 89.4921ZM42.7012 91.9597C42.3466 91.9597 42.059 91.6485 42.059 91.2647C42.059 90.8808 42.3465 90.5697 42.7012 90.5697C43.0559 90.5697 43.3434 90.8808 43.3434 91.2647C43.3434 91.6485 43.0559 91.9597 42.7012 91.9597Z" fill="#150F1B"/>
<path d="M55.7977 100.575C56.1524 100.575 56.4399 100.263 56.4399 99.8796C56.4399 99.4957 56.1524 99.1846 55.7977 99.1846C55.443 99.1846 55.1555 99.4957 55.1555 99.8796C55.1555 100.263 55.443 100.575 55.7977 100.575Z" fill="#150F1B"/>
<path d="M63.2206 106.411C62.2621 105.444 60.7494 105.07 59.4502 105.478C58.9606 105.632 58.506 105.885 58.0126 106.027C57.5192 106.168 56.9494 106.181 56.5323 105.882C56.115 105.583 55.9695 104.898 56.3473 104.55C56.9032 104.039 57.4788 105.226 58.2286 105.317C59.1275 105.425 60.0482 104.781 60.0728 103.891C60.1148 102.378 57.9447 101.337 57.0555 101.3C56.5817 101.28 56.089 101.324 55.6501 101.145C54.7927 100.794 54.4818 99.7704 54.175 98.8961C53.8681 98.0219 52.8173 96.8732 51.8918 96.9164C51.6281 99.6689 51.7225 102.267 51.6885 104.904C51.6685 106.459 51.6811 107.773 52.8637 108.782C53.8868 109.654 55.2766 109.968 56.809 110.015C58.6391 110.072 60.4579 109.695 62.2667 109.411C62.7277 109.339 63.218 109.247 63.5545 108.924C64.234 108.271 63.8838 107.081 63.2206 106.411ZM53.018 107.502C52.6633 107.502 52.3758 107.191 52.3758 106.807C52.3758 106.423 52.6633 106.112 53.018 106.112C53.3727 106.112 53.6602 106.423 53.6602 106.807C53.6602 107.191 53.3727 107.502 53.018 107.502ZM54.2434 107.878C54.0354 107.878 53.8668 107.71 53.8668 107.502C53.8668 107.294 54.0354 107.125 54.2434 107.125C54.4514 107.125 54.62 107.294 54.62 107.502C54.62 107.71 54.4513 107.878 54.2434 107.878Z" fill="#150F1B"/>
<path d="M13.2021 103.166C13.5568 103.166 13.8443 102.854 13.8443 102.471C13.8443 102.087 13.5568 101.776 13.2021 101.776C12.8475 101.776 12.5599 102.087 12.5599 102.471C12.5599 102.854 12.8475 103.166 13.2021 103.166Z" fill="#150F1B"/>
<path d="M13.1913 101.303C13.4143 101.303 13.5951 101.122 13.5951 100.899C13.5951 100.676 13.4143 100.496 13.1913 100.496C12.9683 100.496 12.7876 100.676 12.7876 100.899C12.7876 101.122 12.9683 101.303 13.1913 101.303Z" fill="#150F1B"/>
<path d="M28.3523 98.5196C28.3523 98.7426 28.5331 98.9234 28.756 98.9234C28.979 98.9234 29.1598 98.7427 29.1598 98.5196C29.1598 98.2966 28.979 98.1159 28.756 98.1159C28.533 98.116 28.3523 98.2967 28.3523 98.5196Z" fill="#150F1B"/>
<path d="M39.8663 99.5884C40.0893 99.5884 40.27 99.4076 40.27 99.1846C40.27 98.9617 40.0893 98.7809 39.8663 98.7809C39.6433 98.7809 39.4625 98.9617 39.4625 99.1846C39.4625 99.4076 39.6433 99.5884 39.8663 99.5884Z" fill="#150F1B"/>
<path d="M5.19279 105.381C5.41578 105.381 5.59655 105.201 5.59655 104.978C5.59655 104.755 5.41578 104.574 5.19279 104.574C4.96981 104.574 4.78906 104.755 4.78906 104.978C4.78906 105.201 4.96981 105.381 5.19279 105.381Z" fill="#150F1B"/>
<path d="M12.0798 101.58C12.0798 101.713 12.1873 101.82 12.32 101.82C12.4525 101.82 12.56 101.713 12.56 101.58C12.56 101.447 12.4526 101.34 12.32 101.34C12.1873 101.34 12.0798 101.447 12.0798 101.58Z" fill="#150F1B"/>
<path d="M40.2639 106.712C40.2182 105.146 40.1724 103.58 40.1265 102.013C40.102 101.172 40.0036 100.193 39.2937 99.7402C38.5946 99.2943 37.6127 99.6349 37.0786 100.269C36.5445 100.904 33.6502 103.03 32.7278 101.894C31.9633 100.954 31.8368 99.3814 30.6881 98.994C29.9398 98.7416 29.0969 99.1983 28.6646 99.8592C28.2322 100.52 28.1207 101.335 28.0505 102.122C27.9179 103.607 27.8476 104.907 27.9233 106.397C28.0408 108.705 28.4265 109.102 31.2236 109.786C32.3515 110.062 35.8664 110.052 37.9723 109.563C38.5659 109.425 39.229 109.409 39.6751 108.993C40.2691 108.441 40.2877 107.523 40.2639 106.712ZM30.0405 108.002C29.6858 108.002 29.3983 107.69 29.3983 107.307C29.3983 106.923 29.6858 106.612 30.0405 106.612C30.3952 106.612 30.6827 106.923 30.6827 107.307C30.6826 107.69 30.3951 108.002 30.0405 108.002ZM37.9786 104.249C38.2016 104.249 38.3824 104.43 38.3824 104.653C38.3824 104.876 38.2017 105.057 37.9786 105.057C37.7557 105.057 37.5749 104.876 37.5749 104.653C37.5749 104.43 37.7557 104.249 37.9786 104.249ZM37.1073 105.574C36.9747 105.574 36.8672 105.466 36.8672 105.334C36.8672 105.201 36.9747 105.094 37.1073 105.094C37.2399 105.094 37.3474 105.201 37.3474 105.334C37.3473 105.466 37.2398 105.574 37.1073 105.574ZM37.9895 106.919C37.6349 106.919 37.3473 106.608 37.3473 106.224C37.3473 105.84 37.6348 105.529 37.9895 105.529C38.3442 105.529 38.6317 105.84 38.6317 106.224C38.6317 106.608 38.3442 106.919 37.9895 106.919Z" fill="#150F1B"/>
<path d="M16.8436 102.02C16.832 101.338 16.4542 100.538 15.7726 100.505C15.1772 100.476 14.7301 101.055 14.5351 101.619C14.3402 102.182 14.2714 102.81 13.9061 103.281C13.4469 103.873 12.6275 104.064 11.8787 104.035C11.1298 104.007 10.3964 103.8 9.64764 103.771C7.48829 103.685 5.37696 105.264 4.84873 107.36C4.75324 107.739 4.71633 108.177 4.95604 108.486C5.12157 108.699 5.38619 108.805 5.64 108.897C8.16158 109.806 10.8946 110.122 13.5571 109.813C14.163 109.743 14.775 109.638 15.3235 109.371C15.8721 109.104 16.3562 108.656 16.5465 108.076C16.7707 107.394 16.8552 102.703 16.8436 102.02ZM15.12 106.075C15.3429 106.075 15.5238 106.255 15.5238 106.478C15.5238 106.701 15.3429 106.882 15.12 106.882C14.8971 106.882 14.7162 106.702 14.7162 106.478C14.7162 106.255 14.8971 106.075 15.12 106.075ZM14.2486 107.399C14.116 107.399 14.0085 107.292 14.0085 107.159C14.0085 107.026 14.116 106.919 14.2486 106.919C14.3812 106.919 14.4887 107.026 14.4887 107.159C14.4887 107.292 14.3812 107.399 14.2486 107.399ZM15.1309 108.745C14.7763 108.745 14.4887 108.433 14.4887 108.05C14.4887 107.666 14.7762 107.355 15.1309 107.355C15.4856 107.355 15.7731 107.666 15.7731 108.05C15.7731 108.433 15.4856 108.745 15.1309 108.745Z" fill="#150F1B"/>
<path d="M29.5603 98.116C29.5603 98.2486 29.6678 98.3561 29.8004 98.3561C29.933 98.3561 30.0405 98.2486 30.0405 98.116C30.0405 97.9833 29.933 97.8759 29.8004 97.8759C29.6678 97.8759 29.5603 97.9833 29.5603 98.116Z" fill="#150F1B"/>
<path d="M4.71265 105.947C4.71265 106.079 4.82012 106.187 4.95274 106.187C5.08529 106.187 5.19284 106.079 5.19284 105.947C5.19284 105.814 5.08537 105.707 4.95274 105.707C4.82012 105.707 4.71265 105.814 4.71265 105.947Z" fill="#150F1B"/>
<path d="M27.0121 48.0607C27.0121 48.0607 27.9603 46.7332 28.9357 46.1643C29.911 45.5953 30.8592 44.3491 31.1031 42.6423C31.1031 42.6423 30.7511 43.9536 29.0576 44.8548C26.9783 45.9614 27.0121 48.0607 27.0121 48.0607Z" fill="#150F1B"/>
<path d="M36.865 42.1957C36.865 42.4424 37.0649 42.6424 37.3116 42.6424C37.5583 42.6424 37.7582 42.4424 37.7582 42.1957C37.7582 41.949 37.5583 41.7491 37.3116 41.7491C37.0649 41.7491 36.865 41.949 36.865 42.1957Z" fill="#150F1B"/>
<path d="M37.9775 42.5559C37.9775 42.713 38.1049 42.8404 38.2621 42.8404C38.4192 42.8404 38.5465 42.713 38.5465 42.5559C38.5465 42.3988 38.4191 42.2714 38.2621 42.2714C38.105 42.2714 37.9775 42.3988 37.9775 42.5559Z" fill="#150F1B"/>
<path d="M37.4991 43.2153C37.6026 43.2153 37.6866 43.1314 37.6866 43.0278C37.6866 42.9243 37.6026 42.8404 37.4991 42.8404C37.3956 42.8404 37.3116 42.9243 37.3116 43.0278C37.3116 43.1314 37.3956 43.2153 37.4991 43.2153Z" fill="#150F1B"/>
<path d="M39.2501 60.9062C39.2501 61.1345 39.4353 61.3197 39.6637 61.3197C39.8921 61.3197 40.0772 61.1345 40.0772 60.9062C40.0772 60.6777 39.892 60.4926 39.6637 60.4926C39.4353 60.4926 39.2501 60.6777 39.2501 60.9062Z" fill="#150F1B"/>
<path d="M38.6753 60.2223C38.6753 60.3716 38.7785 60.4926 38.906 60.4926C39.0334 60.4926 39.1367 60.3716 39.1367 60.2223C39.1367 60.0729 39.0335 59.9519 38.906 59.9519C38.7786 59.9519 38.6753 60.0729 38.6753 60.2223Z" fill="#150F1B"/>
<path d="M30.7871 53.1189C30.7871 53.292 30.9274 53.4323 31.1005 53.4323C31.2735 53.4323 31.4138 53.292 31.4138 53.1189C31.4138 52.9459 31.2735 52.8056 31.1005 52.8056C30.9274 52.8057 30.7871 52.9459 30.7871 53.1189Z" fill="#150F1B"/>
<path d="M30.4147 54.7244C30.6719 54.7244 30.8804 54.5159 30.8804 54.2587C30.8804 54.0015 30.6719 53.7931 30.4147 53.7931C30.1576 53.7931 29.9491 54.0015 29.9491 54.2587C29.9491 54.5159 30.1576 54.7244 30.4147 54.7244Z" fill="#150F1B"/>
<path d="M29.2374 53.9793C29.2374 54.0822 29.3059 54.1656 29.3903 54.1656C29.4746 54.1656 29.5431 54.0822 29.5431 53.9793C29.5431 53.8764 29.4746 53.793 29.3903 53.793C29.3059 53.793 29.2374 53.8765 29.2374 53.9793Z" fill="#150F1B"/>
<path d="M37.2426 50.3517C37.2426 50.4633 37.333 50.5538 37.4446 50.5538C37.5563 50.5538 37.6468 50.4633 37.6468 50.3517C37.6468 50.2401 37.5563 50.1496 37.4446 50.1496C37.333 50.1497 37.2426 50.2401 37.2426 50.3517Z" fill="#150F1B"/>
<path d="M37.5945 50.9775C37.5945 51.2115 37.8076 51.4012 38.0704 51.4012C38.3332 51.4012 38.5463 51.2115 38.5463 50.9775C38.5463 50.7435 38.3332 50.5538 38.0704 50.5538C37.8076 50.5538 37.5945 50.7435 37.5945 50.9775Z" fill="#150F1B"/>
</svg>
