<svg width="53" height="102" viewBox="0 0 53 102" fill="none" xmlns="http://www.w3.org/2000/svg">
<path d="M10.5126 84.0859C8.8002 84.0859 7.40698 82.6923 7.40698 80.9793C7.40698 79.2669 8.8002 77.8737 10.5126 77.8737C12.2251 77.8737 13.6183 79.2669 13.6183 80.9793C13.6183 82.6923 12.2251 84.0859 10.5126 84.0859Z" fill="white"/>
<path d="M11.1249 80.9794C11.1249 81.3185 10.8506 81.5927 10.5124 81.5927C10.1741 81.5927 9.8999 81.3185 9.8999 80.9794C9.8999 80.6411 10.1741 80.3669 10.5124 80.3669C10.8506 80.3669 11.1249 80.6411 11.1249 80.9794Z" fill="white"/>
<path d="M19.2747 94.2872C17.6199 94.2872 16.2737 92.9414 16.2737 91.2871C16.2737 89.6323 17.6199 88.2862 19.2747 88.2862C20.9289 88.2862 22.2748 89.6323 22.2748 91.2871C22.2748 92.9414 20.9289 94.2872 19.2747 94.2872Z" fill="white"/>
<path d="M19.7816 91.2871C19.7816 91.5672 19.5546 91.7941 19.2746 91.7941C18.9938 91.7941 18.7668 91.5673 18.7668 91.2871C18.7668 91.0062 18.9937 90.7793 19.2746 90.7793C19.5546 90.7793 19.7816 91.0062 19.7816 91.2871Z" fill="white"/>
<path d="M15.4554 93.2723C13.9151 93.2723 12.5644 92.6228 11.6519 91.4431C10.4068 89.8334 10.1101 87.4499 10.8163 84.7313C11.3013 82.865 11.2934 82.1245 11.2933 82.1172C11.2933 82.1177 11.2943 82.1662 11.3048 82.254L15.9818 80.7879C16.7171 82.1708 16.4808 83.5915 16.2725 84.8449C16.109 85.8282 15.9546 86.7571 16.27 87.5325C16.2983 87.6019 16.3227 87.648 16.3396 87.6765C16.4035 87.6902 16.5407 87.709 16.812 87.709C16.9499 87.709 17.0964 87.7046 17.2514 87.7001C17.4201 87.6952 17.5947 87.69 17.7749 87.69C18.2977 87.69 18.9857 87.7303 19.6718 88.0441L26.2026 91.0317L19.2254 92.7335C19.17 92.7469 17.8491 93.066 16.0114 93.2449C15.8255 93.263 15.6385 93.2723 15.4562 93.2723C15.4559 93.2724 15.4556 93.2723 15.4554 93.2723Z" fill="white"/>
<path d="M18.6344 90.3114C18.6344 90.3114 17.4518 90.5998 15.7698 90.7635C13.3331 91.0012 12.4123 88.503 13.2292 85.3583C13.8849 82.8352 13.7802 81.9584 13.7802 81.9584C14.534 83.3762 12.9051 85.8785 13.9605 88.4723C15.016 91.0652 17.5789 89.8286 18.6344 90.3114Z" fill="white"/>
<path d="M29.7898 80.3628C28.2533 80.3628 27.0032 79.1127 27.0032 77.5763C27.0032 76.0398 28.2533 74.7897 29.7898 74.7897C31.3263 74.7897 32.5764 76.0398 32.5764 77.5763C32.5764 79.1127 31.3263 80.3628 29.7898 80.3628Z" fill="white"/>
<path d="M30.0834 77.5761C30.0834 77.7382 29.9521 77.8695 29.79 77.8695C29.6279 77.8695 29.4966 77.7382 29.4966 77.5761C29.4966 77.414 29.6279 77.2827 29.79 77.2827C29.9521 77.2827 30.0834 77.4141 30.0834 77.5761Z" fill="white"/>
<path d="M28.904 81.3077C27.2497 81.3077 25.9038 79.9618 25.9038 78.3076C25.9038 76.6537 27.2497 75.3082 28.904 75.3082C30.5583 75.3082 31.9042 76.6537 31.9042 78.3076C31.9042 79.9617 30.5583 81.3077 28.904 81.3077Z" fill="white"/>
<path d="M29.4111 78.3075C29.4111 78.5876 29.1841 78.8145 28.9041 78.8145C28.6241 78.8145 28.3972 78.5876 28.3972 78.3075C28.3972 78.0283 28.6241 77.8014 28.9041 77.8014C29.1842 77.8014 29.4111 78.0283 29.4111 78.3075Z" fill="white"/>
<path d="M24.1983 102C20.6919 100.813 18.1843 97.5455 17.9585 93.87C17.9408 93.5814 17.9357 93.3074 17.9308 93.0424C17.9255 92.7599 17.9181 92.3666 17.8849 92.1204C17.6832 92.0767 17.382 92.0376 17.1622 92.0091C16.2322 91.8883 14.9587 91.723 13.838 90.8473C12.2753 89.6255 11.6671 87.6498 12.0301 84.9748C12.044 84.8729 12.0582 84.772 12.0725 84.6705C12.15 84.1196 12.2943 83.0943 12.1408 82.8432C12.1383 82.8391 11.8999 82.4779 10.2787 82.3312L10.0121 82.3077C8.48918 82.1751 6.40346 81.9937 4.78928 80.5376C3.75468 79.6044 3.11606 78.3219 2.9427 76.829C2.79941 75.5952 2.99728 74.272 3.4999 73.1032C4.37045 71.0774 5.93695 69.6166 7.19556 68.4427L7.9157 67.771L35.4569 67.8202L35.9506 69.6656C36.9463 73.387 34.8287 77.5347 31.2301 78.9115C31.0835 78.9675 30.9423 79.0176 30.8055 79.066C30.9058 79.3546 31.003 79.6903 31.0563 80.0627C31.3475 82.0981 30.2944 83.9809 27.9259 85.6589C27.2124 86.1645 26.7797 86.5328 26.6374 86.7556C26.6981 86.9269 26.8613 87.2354 26.9749 87.4502C27.3656 88.1883 27.9006 89.1992 27.9116 90.4766C27.9241 92.0087 27.1943 93.1658 26.6614 94.0108C26.513 94.2459 26.373 94.4681 26.276 94.6549C25.7536 95.6609 25.9696 97.0782 26.7674 97.8819L24.1983 102Z" fill="white"/>
<path d="M30.3392 76.5831C29.4516 76.9221 28.309 77.1756 28.0671 78.0948C27.8627 78.8726 28.4743 79.6198 28.5882 80.4159C28.7793 81.7515 27.5851 82.8452 26.4848 83.6247C25.3836 84.405 24.1304 85.3633 24.1254 86.7121C24.1196 88.0601 25.4069 89.1505 25.4186 90.4984C25.4277 91.6129 24.5767 92.5171 24.0631 93.5069C23.0442 95.4691 23.4406 98.0694 24.998 99.6385C22.4133 98.7634 20.6075 96.3276 20.447 93.7172C20.3748 92.5363 20.5517 91.1783 19.7224 90.3348C18.6328 89.2253 16.5984 89.8403 15.3734 88.8829C14.3603 88.0909 14.3279 86.5842 14.5008 85.3102C14.6744 84.0361 14.9388 82.6399 14.2681 81.5429C13.5226 80.3229 11.9278 79.9772 10.5033 79.8484C9.07973 79.7205 7.52059 79.644 6.45937 78.6866C5.23106 77.5788 5.13718 75.6075 5.79037 74.0883C6.44364 72.5683 7.68683 71.394 8.89603 70.2663L33.5422 70.3104C34.207 72.7951 32.7418 75.6639 30.3392 76.5831Z" fill="white"/>
<path d="M8.36504 70.9027C7.23985 70.9027 6.20534 70.2433 5.72966 69.2228L0.26274 57.3963C-0.0582956 56.6899 -0.0860142 55.902 0.184439 55.1768L9.42744 30.3431C9.84744 29.2117 10.9424 28.4503 12.1513 28.4503H29.8248C31.0337 28.4503 32.1286 29.2117 32.5494 30.3449L34.3011 35.0511C35.9296 35.4303 38.9733 36.3512 42.1454 38.4079C44.8173 40.1401 47.0081 42.3166 48.6569 44.8768C50.7056 48.0565 51.8991 51.8034 52.2038 56.0128C52.3583 58.1391 52.1576 60.043 51.6072 61.6708C51.0083 63.4423 50.0007 64.9024 48.6123 66.0107C46.691 67.5437 44.0155 68.3538 40.8746 68.3538C40.4432 68.3538 39.9969 68.3385 39.548 68.3084C38.5223 68.2401 37.5902 68.1046 36.8282 67.9628L36.2488 69.2158C35.7779 70.239 34.7417 70.9027 33.611 70.9027L8.36504 70.9027Z" fill="white"/>
<path d="M47.0571 64.0622C45.5728 65.2465 43.4511 65.8606 40.8748 65.8606C40.4975 65.8606 40.1111 65.8473 39.7155 65.8208C37.4043 65.667 35.6117 65.126 35.5369 65.1027C35.4969 65.0911 35.4612 65.072 35.4288 65.0496L33.9861 68.1694C33.9188 68.3157 33.7725 68.4096 33.6113 68.4096H8.36513C8.20391 68.4096 8.05765 68.3157 7.98952 68.1694L2.53278 56.3649C2.48706 56.2644 2.48212 56.1506 2.52111 56.0466L11.7642 31.2128C11.824 31.0515 11.9786 30.9435 12.1515 30.9435H29.8249C29.9978 30.9435 30.1524 31.0515 30.2122 31.2128L32.4952 37.346C32.575 37.297 32.6705 37.2737 32.7703 37.2878C32.9306 37.3111 36.7594 37.887 40.7892 40.4999C43.1619 42.0382 45.104 43.9646 46.5609 46.2268C48.381 49.0516 49.443 52.4049 49.7173 56.1929C49.9791 59.7972 49.0841 62.4441 47.0571 64.0622Z" fill="white"/>
<path d="M8.41846 32.4991L20.9882 -6.10352e-05L33.558 32.4991H8.41846Z" fill="white"/>
<path d="M29.9204 30.006H12.0559L20.9882 6.91144L29.9204 30.006Z" fill="white"/>
<path d="M18.2105 93.878C16.6688 93.878 15.4146 92.6238 15.4146 91.0821C15.4146 89.5404 16.6688 88.2862 18.2105 88.2862C19.7521 88.2862 21.0064 89.5404 21.0064 91.0821C21.0064 92.6238 19.7521 93.878 18.2105 93.878Z" fill="white"/>
<path d="M18.2107 90.7794C18.0435 90.7794 17.908 90.915 17.908 91.0821C17.908 91.2493 18.0435 91.3848 18.2107 91.3848C18.3778 91.3848 18.5134 91.2493 18.5134 91.0821C18.5134 90.915 18.3778 90.7794 18.2107 90.7794Z" fill="white"/>
<path d="M11.9736 85.4456C13.819 85.4456 15.3151 83.9013 15.3151 81.9964C15.3151 80.0914 13.819 78.5471 11.9736 78.5471C10.1281 78.5471 8.63208 80.0914 8.63208 81.9964C8.63208 83.9013 10.1281 85.4456 11.9736 85.4456Z" fill="white"/>
<path d="M11.9736 82.9524C12.4421 82.9524 12.8219 82.5244 12.8219 81.9963C12.8219 81.4683 12.4421 81.0403 11.9736 81.0403C11.505 81.0403 11.1252 81.4683 11.1252 81.9963C11.1252 82.5244 11.505 82.9524 11.9736 82.9524Z" fill="white"/>
<path d="M33.6112 68.4092H8.36518C8.20395 68.4092 8.05746 68.3155 7.9898 68.1691L2.53306 56.3647C2.48678 56.2647 2.48239 56.1503 2.52084 56.047L11.7639 31.213C11.8242 31.0512 11.9787 30.9437 12.1515 30.9437H29.8248C29.9976 30.9437 30.1521 31.0512 30.2124 31.213L39.4555 56.047C39.494 56.1503 39.4896 56.2647 39.4433 56.3647L33.9865 68.1691C33.9189 68.3155 33.7724 68.4092 33.6112 68.4092ZM8.6296 67.5821H33.3467L38.6203 56.174L29.5375 31.7708H12.4389L3.35608 56.174L8.6296 67.5821Z" fill="#150F1B"/>
<path d="M20.988 6.91174L12.0557 30.0062H29.9205L20.988 6.91174Z" fill="#150F1B"/>
<path d="M40.8748 65.8605C40.498 65.8605 40.1114 65.8474 39.7156 65.821C37.4044 65.6668 35.6122 65.1261 35.537 65.1031C35.3187 65.0365 35.1956 64.8054 35.2623 64.5871C35.3288 64.3687 35.56 64.2455 35.7784 64.3121C35.8481 64.3331 42.801 66.4023 46.5428 63.4144C48.3427 61.977 49.1335 59.5676 48.893 56.2531C48.6289 52.612 47.6141 49.3951 45.8768 46.6918C44.4876 44.5299 42.6338 42.6861 40.3667 41.2113C36.4863 38.6869 32.6897 38.1119 32.6518 38.1063C32.4258 38.0734 32.2692 37.8637 32.3019 37.6378C32.3347 37.4118 32.544 37.255 32.7702 37.2878C32.9312 37.311 36.7592 37.8869 40.7897 40.4998C43.1621 42.0378 45.1039 43.9648 46.5613 46.227C48.381 49.0518 49.4431 52.4049 49.718 56.1932C49.9794 59.7971 49.0842 62.4446 47.0571 64.0622C45.5726 65.2464 43.4511 65.8605 40.8748 65.8605Z" fill="#150F1B"/>
<path d="M39.6662 61.9513C38.8974 61.9514 38.0604 61.8782 37.1558 61.7316C36.9304 61.6951 36.7772 61.4826 36.8137 61.2572C36.8502 61.0317 37.0624 60.8783 37.288 60.9151C40.5468 61.4433 42.8088 60.9758 44.0108 59.5258C45.4018 57.848 45.3626 54.8204 43.8977 50.7701C42.8316 47.8228 40.8913 45.5276 38.1308 43.9483C36.0584 42.7626 34.2751 42.4486 34.2573 42.4456C34.0323 42.4072 33.8808 42.1938 33.919 41.9688C33.9572 41.7437 34.1703 41.5925 34.3953 41.6301C34.4727 41.6432 36.3171 41.9643 38.5127 43.214C40.5413 44.3686 43.2572 46.568 44.6754 50.4888C46.2457 54.8302 46.2361 58.1377 44.6476 60.0536C43.6007 61.3165 41.9303 61.9513 39.6662 61.9513Z" fill="#150F1B"/>
<path d="M20.4436 50.8674C16.8735 50.8674 13.969 47.963 13.969 44.393C13.969 40.8229 16.8734 37.9184 20.4436 37.9184C24.0136 37.9184 26.9181 40.8228 26.9181 44.393C26.9182 47.963 24.0136 50.8674 20.4436 50.8674ZM20.4436 38.7455C17.3295 38.7455 14.7961 41.2789 14.7961 44.393C14.7961 47.507 17.3295 50.0404 20.4436 50.0404C23.5576 50.0404 26.091 47.507 26.091 44.393C26.0911 41.2789 23.5576 38.7455 20.4436 38.7455Z" fill="#150F1B"/>
<path d="M31.6663 44.3929C29.8701 43.983 28.4153 42.3677 28.1949 40.5385C28.1115 39.8471 28.276 39.0115 28.9116 38.7266C29.421 38.4983 30.0509 38.7458 30.3988 39.1824C30.7467 39.6191 30.8614 40.1979 30.8847 40.7558C30.9079 41.3136 30.8512 41.8741 30.9063 42.4297C30.9613 42.9853 31.1464 43.5567 31.6663 44.3929Z" fill="#150F1B"/>
<path d="M17.0396 58.9488C17.5781 58.8217 17.9116 58.282 17.7844 57.7435C17.6573 57.205 17.1176 56.8715 16.5791 56.9986C16.0406 57.1258 15.7071 57.6654 15.8343 58.204C15.9614 58.7425 16.5011 59.076 17.0396 58.9488Z" fill="#150F1B"/>
<path d="M15.7305 56.0491C15.7305 56.3466 15.9716 56.5878 16.2691 56.5878C16.5666 56.5878 16.8077 56.3466 16.8077 56.0491C16.8077 55.7517 16.5666 55.5105 16.2691 55.5105C15.9716 55.5105 15.7305 55.7517 15.7305 56.0491Z" fill="#150F1B"/>
<path d="M28.6406 44.3929C28.6406 44.6903 28.8818 44.9315 29.1793 44.9315C29.4767 44.9315 29.7179 44.6903 29.7179 44.3929C29.7179 44.0954 29.4767 43.8542 29.1793 43.8542C28.8818 43.8542 28.6406 44.0954 28.6406 44.3929Z" fill="#150F1B"/>
<path d="M23.62 42.05L19.8345 48.2933C20.022 48.3224 20.2139 48.3377 20.4092 48.3394L23.9274 42.5369C23.8365 42.3668 23.7338 42.2041 23.62 42.05Z" fill="#150F1B"/>
<path d="M21.3213 48.2409C23.0785 47.8417 24.3907 46.271 24.3907 44.3929C24.3907 44.0466 24.3457 43.7109 24.262 43.3909L21.3213 48.2409Z" fill="#150F1B"/>
<path d="M18.4014 47.7715L22.4948 41.0202C21.897 40.6558 21.1947 40.4457 20.4433 40.4457C18.2634 40.4457 16.4961 42.2129 16.4961 44.3929C16.4962 45.8255 17.2595 47.0797 18.4014 47.7715Z" fill="#150F1B"/>
<path d="M35.2544 54.677C34.737 51.5858 33.228 48.763 31.7415 46.0038C31.4245 45.4155 31.0104 44.7577 30.3469 44.678C29.5917 44.5872 29.9207 46.4068 28.753 47.5044C27.486 48.6952 24.6539 51.1492 25.0845 52.8338C25.7681 55.5082 28.484 53.0805 28.433 54.4195C28.399 55.313 27.7423 56.1483 26.8821 56.3923C26.0219 56.6363 25.0244 56.2701 24.5264 55.5275C24.259 55.1287 24.1334 54.6523 23.9032 54.2309C23.673 53.8095 23.2655 53.3175 22.7969 53.422C20.2469 53.9906 21.2611 57.802 21.5289 58.2087C21.9706 58.8797 21.8091 59.8358 21.2736 60.4345C20.7382 61.0333 19.9056 61.3042 19.1023 61.3048C17.1889 61.3061 15.3987 59.7373 15.1489 57.8403C14.8936 55.9012 16.0708 53.9509 15.6703 52.0365C15.2178 49.8735 12.6738 48.5482 10.5238 49.0593C8.37392 49.5705 6.77736 51.5636 6.31358 53.7243C5.84988 55.8849 6.37356 58.1601 7.31991 60.1571C8.1427 61.8934 9.34416 64.673 10.2056 65.4132C11.6823 66.6822 26.351 66.1544 28.1749 66.0487C31.4229 65.8606 32.5092 65.0098 33.1512 63.3444C34.2785 60.42 35.7717 57.7682 35.2544 54.677ZM26.7642 52.9643C26.6792 52.9643 26.6102 52.8954 26.6102 52.8103C26.6102 52.7253 26.6792 52.6563 26.7642 52.6563C26.8493 52.6563 26.9183 52.7253 26.9183 52.8103C26.9182 52.8955 26.8493 52.9643 26.7642 52.9643ZM26.5047 52.04C26.2763 52.04 26.0912 51.8548 26.0912 51.6265C26.0912 51.3981 26.2763 51.213 26.5047 51.213C26.7331 51.213 26.9182 51.3982 26.9182 51.6265C26.9182 51.8549 26.7331 52.04 26.5047 52.04ZM27.9255 52.6564C27.7876 52.6564 27.6759 52.5447 27.6759 52.4069C27.6759 52.2691 27.7876 52.1574 27.9255 52.1574C28.0633 52.1574 28.1749 52.2691 28.1749 52.4069C28.1749 52.5447 28.0632 52.6564 27.9255 52.6564ZM8.00473 54.8289C7.68151 54.8289 7.41951 54.5669 7.41951 54.2436C7.41951 53.9204 7.68151 53.6584 8.00473 53.6584C8.32796 53.6584 8.58996 53.9204 8.58996 54.2436C8.58996 54.5669 8.32788 54.8289 8.00473 54.8289ZM9.2372 54.6485C9.12538 54.6485 9.03479 54.5579 9.03479 54.446C9.03479 54.3342 9.12546 54.2436 9.2372 54.2436C9.34901 54.2436 9.43968 54.3343 9.43968 54.446C9.4396 54.5579 9.34901 54.6485 9.2372 54.6485ZM9.4396 53.7741C9.21597 53.7741 9.0347 53.5929 9.0347 53.3692C9.0347 53.1456 9.21597 52.9643 9.4396 52.9643C9.66323 52.9643 9.8445 53.1456 9.8445 53.3692C9.8445 53.5929 9.66323 53.7741 9.4396 53.7741ZM10.1169 62.954C9.93478 62.954 9.78719 62.7747 9.78719 62.5535C9.78719 62.3324 9.93478 62.1531 10.1169 62.1531C10.299 62.1531 10.4466 62.3323 10.4466 62.5535C10.4466 62.7747 10.299 62.954 10.1169 62.954ZM11.149 64.408C10.8606 64.408 10.6267 64.1742 10.6267 63.8857C10.6267 63.5974 10.8605 63.3636 11.149 63.3636C11.4374 63.3636 11.6712 63.5974 11.6712 63.8857C11.6712 64.1742 11.4374 64.408 11.149 64.408ZM30.9401 63.8706C30.5388 63.8706 30.2137 63.5454 30.2137 63.1442C30.2137 62.743 30.5389 62.4178 30.9401 62.4178C31.3412 62.4178 31.6665 62.7431 31.6665 63.1442C31.6665 63.5454 31.3413 63.8706 30.9401 63.8706ZM32.3211 62.1882C32.0958 62.1882 31.9133 62.0056 31.9133 61.7804C31.9133 61.5552 32.0959 61.3726 32.3211 61.3726C32.5462 61.3726 32.7288 61.5552 32.7288 61.7804C32.7288 62.0056 32.5463 62.1882 32.3211 62.1882Z" fill="#150F1B"/>
<path d="M13.7799 81.9585C14.5338 83.3758 12.9055 85.8787 13.9609 88.4719C15.0163 91.0653 17.5795 89.8289 18.6349 90.3114C18.6349 90.3114 17.4523 90.5997 15.7702 90.7637C13.3332 91.0014 12.4126 88.5026 13.2294 85.3586C13.8849 82.8351 13.7799 81.9585 13.7799 81.9585Z" fill="#150F1B"/>
<path d="M18.7668 91.2868C18.7668 91.5671 18.994 91.7942 19.2742 91.7942C19.5545 91.7942 19.7816 91.5671 19.7816 91.2868C19.7816 91.0066 19.5545 90.7794 19.2742 90.7794C18.994 90.7794 18.7668 91.0066 18.7668 91.2868Z" fill="#150F1B"/>
<path d="M18.2107 91.3848C18.3779 91.3848 18.5134 91.2493 18.5134 91.0821C18.5134 90.9149 18.3779 90.7794 18.2107 90.7794C18.0435 90.7794 17.908 90.9149 17.908 91.0821C17.908 91.2493 18.0435 91.3848 18.2107 91.3848Z" fill="#150F1B"/>
<path d="M28.3972 78.3079C28.3972 78.5878 28.6241 78.8147 28.9041 78.8147C29.184 78.8147 29.4109 78.5878 29.4109 78.3079C29.4109 78.0279 29.184 77.801 28.9041 77.801C28.6241 77.801 28.3972 78.0279 28.3972 78.3079Z" fill="#150F1B"/>
<path d="M29.7902 77.8693C29.9523 77.8693 30.0836 77.738 30.0836 77.5759C30.0836 77.4139 29.9523 77.2825 29.7902 77.2825C29.6282 77.2825 29.4968 77.4139 29.4968 77.5759C29.4968 77.738 29.6282 77.8693 29.7902 77.8693Z" fill="#150F1B"/>
<path d="M11.9736 82.9524C12.4421 82.9524 12.8219 82.5244 12.8219 81.9963C12.8219 81.4683 12.4421 81.0403 11.9736 81.0403C11.505 81.0403 11.1252 81.4683 11.1252 81.9963C11.1252 82.5244 11.505 82.9524 11.9736 82.9524Z" fill="#150F1B"/>
<path d="M10.9443 81.4126C11.1835 81.1733 11.1835 80.7853 10.9443 80.5461C10.705 80.3068 10.3171 80.3068 10.0778 80.5461C9.83851 80.7853 9.83851 81.1733 10.0778 81.4126C10.3171 81.6518 10.705 81.6518 10.9443 81.4126Z" fill="#150F1B"/>
<path d="M33.5418 70.3099L8.89615 70.2659C7.68647 71.3941 6.44374 72.5681 5.7904 74.0878C5.13705 75.6075 5.23125 77.5784 6.45932 78.6865C7.5207 79.6442 9.07976 79.72 10.5035 79.8486C11.9273 79.9772 13.5227 80.3227 14.2682 81.5425C14.9388 82.6396 14.6743 84.0362 14.501 85.3103C14.3277 86.5843 14.3604 88.0911 15.3735 88.8829C16.5985 89.8404 18.6327 89.2255 19.7225 90.3345C20.5517 91.1783 20.3744 92.5364 20.447 93.7172C20.6074 96.3272 22.4134 98.7636 24.9981 99.6389C23.4403 98.0695 23.0437 95.4689 24.063 93.5065C24.5768 92.5174 25.4275 91.6131 25.4182 90.4986C25.4069 89.1506 24.1195 88.0604 24.125 86.7124C24.1304 85.3633 25.3834 84.4048 26.4843 83.6249C27.5853 82.845 28.7791 81.7516 28.5879 80.4161C28.4738 79.6197 27.8621 78.8725 28.0671 78.0944C28.3092 77.1754 29.4516 76.9224 30.3392 76.583C32.7417 75.6639 34.2066 72.7947 33.5418 70.3099ZM19.4445 72.0268C19.7829 72.0268 20.0572 72.3011 20.0572 72.6395C20.0572 72.9779 19.7829 73.2522 19.4445 73.2522C19.1062 73.2522 18.8318 72.9779 18.8318 72.6395C18.8318 72.3011 19.1061 72.0268 19.4445 72.0268ZM16.9739 82.0614C16.8192 81.2964 16.8451 80.4799 16.608 79.76C16.259 78.6953 15.2959 78.0499 14.216 77.7695C13.8498 77.6674 13.468 77.5955 13.0781 77.5205C12.4809 77.3945 11.7949 77.3149 11.2833 76.8937C10.0474 75.7037 11.9331 73.9805 12.8685 73.2536C12.2858 73.9376 11.0697 75.2229 11.3274 76.1604C11.547 76.8224 12.5816 76.8353 13.1741 76.9468C13.9842 77.061 14.8195 77.2055 15.562 77.6057C16.3327 78.0114 16.9658 78.7179 17.2294 79.5576C17.5177 80.5035 17.4185 81.4522 17.6208 82.3901C17.9876 84.1702 19.1225 85.6725 20.5285 86.7986C18.7526 85.834 17.3274 84.0889 16.9739 82.0614ZM21.3768 74.2097C20.9083 74.2097 20.5285 73.8299 20.5285 73.3613C20.5285 72.8928 20.9083 72.513 21.3768 72.513C21.8454 72.513 22.2251 72.8929 22.2251 73.3613C22.2251 73.8298 21.8453 74.2097 21.3768 74.2097ZM22.417 72.2653C22.417 72.0586 22.5845 71.8911 22.7912 71.8911C22.9978 71.8911 23.1654 72.0586 23.1654 72.2653C23.1654 72.4719 22.9978 72.6395 22.7912 72.6395C22.5845 72.6395 22.417 72.4719 22.417 72.2653ZM24.6937 90.6924C24.6937 91.0206 24.4276 91.2868 24.0994 91.2868C23.771 91.2868 23.505 91.0206 23.505 90.6924C23.505 90.3642 23.7711 90.098 24.0994 90.098C24.4277 90.0979 24.6937 90.3641 24.6937 90.6924ZM24.2914 89.0749C24.2914 89.2718 24.1318 89.4314 23.9349 89.4314C23.7381 89.4314 23.5785 89.2718 23.5785 89.0749C23.5785 88.8781 23.7381 88.7185 23.9349 88.7185C24.1318 88.7185 24.2914 88.8781 24.2914 89.0749ZM24.4157 77.4386C24.4914 78.1845 24.8319 78.8854 24.8649 79.6833C24.9934 81.3021 24.1545 82.8702 22.9239 83.8796C23.77 82.678 24.4282 81.2374 24.2399 79.7398C24.1866 79.2406 24.0436 78.7886 23.9088 78.2964C23.0822 75.6035 25.9195 74.6446 28.0617 74.5381C26.7549 75.0041 24.2998 75.7131 24.4157 77.4386Z" fill="#150F1B"/>
</svg>
