<svg width="77" height="90" viewBox="0 0 77 90" fill="none" xmlns="http://www.w3.org/2000/svg">
<path d="M30.4493 89.9519C22.8455 89.9519 15.6455 88.7808 10.1754 86.6545C7.2038 85.4992 4.84628 84.103 3.16804 82.5046C1.242 80.6701 0.195353 78.5307 0.133753 76.3079C0.106292 75.9483 0.136999 75.5894 0.22541 75.237L7.36829 46.7351L4.43122 42.3703C3.12091 41.3732 2.27845 40.2132 1.921 38.9134C1.7965 38.5567 1.73184 38.1807 1.73184 37.8039V34.5141C1.73184 33.2272 2.21768 31.3305 4.53225 29.6033C5.89414 28.587 7.75134 27.7303 10.164 27.0103L1.60094 12.1199C1.09125 11.2864 0.832881 10.3901 0.832881 9.45465C0.832881 6.66157 3.05866 4.90346 4.92588 3.92036C6.4093 3.1394 8.3641 2.45103 10.7361 1.87464C15.7107 0.665734 22.2707 0 29.2076 0C36.1451 0 42.7054 0.665736 47.6801 1.87455C50.0519 2.45113 52.0064 3.1394 53.4895 3.92036C55.3566 4.90346 57.5823 6.66157 57.5823 9.45456C57.5823 10.4357 57.2846 11.4058 56.72 12.2691C56.72 12.2691 48.0666 27.3267 48.0608 27.3369C49.5063 27.8274 50.7383 28.376 51.7444 28.9786C54.8345 30.8291 55.4832 33.0102 55.4832 34.5139V37.527C55.4832 38.0036 55.422 38.4527 55.3098 38.8759C56.0765 38.6003 56.895 38.3433 57.7642 38.1161C58.6256 37.8913 59.513 37.7773 60.4024 37.7773C63.2794 37.7773 66.0686 38.9819 68.0549 41.0821C72.3414 45.6133 74.9605 51.716 76.4028 56.0376C77.6215 59.6939 76.7492 63.722 74.1266 66.551C71.355 69.5403 66.8666 73.6284 60.7325 76.8463C60.5304 78.8686 59.5095 80.8051 57.7495 82.4874C56.0697 84.093 53.7058 85.495 50.7233 86.6543C45.2543 88.7808 38.0541 89.9519 30.4493 89.9519Z" fill="white"/>
<path d="M71.9602 64.5429C69.0752 67.6544 64.2543 71.9898 57.5912 75.1082L57.8029 75.955C57.8127 75.9954 57.8147 76.0357 57.8137 76.0761C57.8137 76.084 57.8157 76.0908 57.8157 76.0987C57.8157 79.0842 54.9168 81.855 49.653 83.9011C44.517 85.8979 37.6974 86.9978 30.4493 86.9978C23.2022 86.9978 16.3826 85.8979 11.2456 83.9011C6.00038 81.8619 3.10348 79.1029 3.08483 76.1282C3.075 76.0721 3.07593 76.013 3.09077 75.9549L10.5534 46.1771L6.5853 40.2801C5.38892 39.4776 4.88776 38.6879 4.73812 38.0036C4.70565 37.9435 4.68589 37.8765 4.68589 37.8036V34.5139C4.68589 33.2309 5.89211 30.8215 13.9722 29.0935C14.2046 29.0433 14.4428 28.994 14.685 28.9458L12.9264 25.8884C12.9235 25.8845 12.9215 25.8796 12.9186 25.8747L4.13844 10.6066C3.91292 10.2472 3.78693 9.86326 3.78693 9.4546C3.78693 7.09838 7.94515 5.59278 11.4337 4.74504C16.1866 3.59003 22.4993 2.95398 29.2077 2.95398C35.9172 2.95398 42.2297 3.59003 46.9826 4.74504C50.4703 5.59288 54.6284 7.09838 54.6284 9.4546C54.6284 9.90361 54.4777 10.3211 54.209 10.71L45.4978 25.8677C45.4968 25.8707 45.4948 25.8736 45.4929 25.8766L43.6359 29.1082L43.6092 29.1712C49.3626 30.4552 52.5292 32.3507 52.5292 34.5139V37.527C52.5292 38.5284 51.8449 39.8577 49.077 41.1357L50.0489 45.0133C51.195 44.1261 54.1284 42.1194 58.511 40.9743C61.1696 40.2801 64.0044 41.0983 65.9087 43.1119C69.8247 47.2514 72.2528 52.9338 73.6008 56.9729C74.478 59.6049 73.8498 62.5047 71.9602 64.5429Z" fill="white"/>
<path d="M28.607 41.3136C17.6107 41.3136 8.09 39.2539 5.45426 36.3048C4.9442 35.7342 4.68555 35.1317 4.68555 34.5141C4.68555 33.2315 5.89195 30.8217 13.9719 29.0932C14.391 29.0027 14.8296 28.915 15.2749 28.8324C15.5064 28.7897 15.7291 28.9425 15.772 29.1741C15.8148 29.4057 15.6619 29.6283 15.4303 29.6712C14.9931 29.7522 14.5628 29.8384 14.1511 29.9272C8.83829 31.0638 5.53849 32.8213 5.53849 34.5141C5.53849 34.9156 5.72413 35.3268 6.09021 35.7363C8.53669 38.4738 18.0064 40.4606 28.607 40.4606C39.2082 40.4606 48.6781 38.4738 51.1245 35.7363C51.4907 35.3267 51.6763 34.9155 51.6763 34.514C51.6763 32.8579 48.4839 31.1229 43.3448 29.9863C43.1858 29.9516 43.0243 29.9165 42.8611 29.8824C42.6634 29.8452 42.5135 29.6717 42.5135 29.4633C42.5135 29.2277 42.7041 29.0368 42.9396 29.0368H42.9405C42.9698 29.0368 42.9991 29.0398 43.0279 29.0458C43.1963 29.081 43.363 29.1171 43.528 29.1532C49.333 30.4371 52.5294 32.3409 52.5294 34.514C52.5294 35.1315 52.2707 35.7341 51.7606 36.3047C49.1251 39.2539 39.6039 41.3136 28.607 41.3136Z" fill="#150F1B"/>
<path d="M28.607 44.3266C22.2946 44.3266 16.3548 43.6584 11.8818 42.4451C5.93398 40.8317 4.68555 38.8802 4.68555 37.5272C4.68555 37.2917 4.87656 37.1006 5.11202 37.1006C5.34757 37.1006 5.53849 37.2917 5.53849 37.5272C5.53849 38.9758 7.99333 40.5066 12.1051 41.6219C16.5074 42.8159 22.3679 43.4736 28.607 43.4736C34.8462 43.4736 40.7069 42.8159 45.1093 41.6219C49.2213 40.5065 51.6762 38.9758 51.6762 37.5272C51.6762 37.2917 51.8672 37.1006 52.1028 37.1006C52.3384 37.1006 52.5293 37.2917 52.5293 37.5272C52.5293 38.8803 51.2808 40.8318 45.3326 42.4451C40.8596 43.6584 34.9196 44.3266 28.607 44.3266Z" fill="#150F1B"/>
<path d="M28.607 41.3137C17.6107 41.3137 8.08986 39.2539 5.45421 36.3048C5.29724 36.1292 5.31236 35.8595 5.48798 35.7025C5.66369 35.5455 5.93319 35.5607 6.09025 35.7363C8.53674 38.4737 18.0064 40.4606 28.607 40.4606C39.2081 40.4606 48.6782 38.4738 51.1246 35.7363C51.2816 35.5607 51.5512 35.5455 51.7269 35.7025C51.9025 35.8595 51.9176 36.1291 51.7607 36.3048C49.1251 39.2539 39.6039 41.3137 28.607 41.3137Z" fill="#150F1B"/>
<path d="M5.11202 38.23C4.87647 38.23 4.68555 38.039 4.68555 37.8035V34.5141C4.68555 34.2786 4.87656 34.0876 5.11202 34.0876C5.34757 34.0876 5.53849 34.2786 5.53849 34.5141V37.8035C5.53849 38.039 5.34757 38.23 5.11202 38.23Z" fill="#150F1B"/>
<path d="M52.1031 37.9535C51.8675 37.9535 51.6765 37.7626 51.6765 37.5271V34.5141C51.6765 34.2786 51.8674 34.0876 52.1031 34.0876C52.3386 34.0876 52.5296 34.2786 52.5296 34.5141V37.5271C52.5296 37.7626 52.3386 37.9535 52.1031 37.9535Z" fill="#150F1B"/>
<path d="M30.4496 86.998C23.2026 86.998 16.3826 85.8983 11.2461 83.9016C5.98243 81.8553 3.0835 79.0842 3.0835 76.0989C3.0835 75.8634 3.27451 75.6724 3.50997 75.6724C3.74552 75.6724 3.93653 75.8634 3.93653 76.0989C3.93653 77.3883 4.60245 78.6541 5.91573 79.8612C7.23337 81.0721 9.13074 82.164 11.5551 83.1065C16.5954 85.0659 23.3056 86.145 30.4495 86.145C37.5938 86.145 44.3041 85.0659 49.3443 83.1065C51.7686 82.164 53.6659 81.0721 54.9834 79.8612C56.2967 78.6542 56.9625 77.3883 56.9625 76.0989C56.9625 75.8634 57.1534 75.6724 57.389 75.6724C57.6245 75.6724 57.8155 75.8634 57.8155 76.0989C57.8155 79.0843 54.9168 81.8554 49.6533 83.9016C44.5171 85.8983 37.6969 86.998 30.4496 86.998Z" fill="#150F1B"/>
<path d="M57.3888 76.485C57.1978 76.485 57.0239 76.3557 56.9754 76.162L48.1616 40.9908C48.1043 40.7623 48.2431 40.5307 48.4716 40.4734C48.7002 40.4163 48.9317 40.555 48.9889 40.7835L57.8027 75.9547C57.8601 76.1832 57.7212 76.4148 57.4928 76.4721C57.458 76.4808 57.4231 76.485 57.3888 76.485Z" fill="#150F1B"/>
<path d="M3.50508 76.4849C3.47076 76.4849 3.43588 76.4808 3.40109 76.472C3.17259 76.4148 3.03371 76.1831 3.09104 75.9547L11.5692 42.1224C11.6264 41.8938 11.8582 41.7553 12.0866 41.8124C12.3151 41.8696 12.4539 42.1013 12.3966 42.3298L3.91838 76.162C3.86996 76.3556 3.6961 76.4849 3.50508 76.4849Z" fill="#150F1B"/>
<path d="M29.2078 15.9545C22.4987 15.9545 16.1863 15.3185 11.4336 14.1636C7.94524 13.3159 3.78711 11.8109 3.78711 9.45447C3.78711 7.09807 7.94524 5.59303 11.4336 4.74537C16.1863 3.59046 22.4987 2.95441 29.2078 2.95441C35.9169 2.95441 42.2293 3.59046 46.982 4.74537C50.4703 5.59303 54.6285 7.09807 54.6285 9.45447C54.6285 11.8109 50.4703 13.3159 46.982 14.1636C42.2293 15.3185 35.9169 15.9545 29.2078 15.9545ZM29.2078 3.80736C22.5645 3.80736 16.3237 4.43486 11.635 5.57419C7.25501 6.63847 4.64015 8.08906 4.64015 9.45438C4.64015 10.8197 7.25501 12.2703 11.635 13.3346C16.3237 14.4739 22.5646 15.1014 29.2078 15.1014C35.851 15.1014 42.0919 14.4739 46.7806 13.3346C51.1606 12.2702 53.7754 10.8197 53.7754 9.45438C53.7754 8.08906 51.1606 6.63847 46.7806 5.57419C42.0919 4.43486 35.851 3.80736 29.2078 3.80736Z" fill="#150F1B"/>
<path d="M29.2077 36.4471C26.0814 36.4471 23.1374 36.1501 20.9181 35.6108C18.4513 35.0113 17.2004 34.2023 17.2004 33.2064C17.2004 32.9709 17.3915 32.7798 17.6269 32.7798C17.8625 32.7798 18.0535 32.9709 18.0535 33.2064C18.0535 33.5149 18.6993 34.1937 21.1195 34.7819C23.2748 35.3056 26.1472 35.594 29.2076 35.594C32.2684 35.594 35.1411 35.3056 37.2966 34.7819C39.717 34.1938 40.3628 33.5149 40.3628 33.2064C40.3628 32.9709 40.5537 32.7798 40.7893 32.7798C41.0248 32.7798 41.2158 32.9709 41.2158 33.2064C41.2158 34.2024 39.965 35.0113 37.498 35.6108C35.2786 36.1501 32.3344 36.4471 29.2077 36.4471Z" fill="#150F1B"/>
<path d="M40.7889 33.633C40.7169 33.633 40.6439 33.6148 40.5769 33.5763C40.3727 33.4589 40.3022 33.1982 40.4196 32.9939L42.5701 29.2508C42.5742 29.2435 42.5786 29.2365 42.5831 29.2295L44.75 25.458C44.7516 25.4551 44.7532 25.4522 44.7547 25.4496L53.4897 10.2495C53.607 10.0453 53.8676 9.97484 54.072 10.0923C54.2763 10.2096 54.3467 10.4703 54.2293 10.6746L45.4981 25.8679C45.4966 25.8708 45.495 25.8737 45.4934 25.8764L43.3105 29.6758C43.3064 29.683 43.302 29.6901 43.2975 29.6969L41.1592 33.4188C41.0803 33.5562 40.9366 33.633 40.7889 33.633Z" fill="#150F1B"/>
<path d="M17.6271 33.633C17.4794 33.633 17.3358 33.5563 17.2569 33.4191L12.9267 25.8887C12.9238 25.8842 12.921 25.8795 12.9183 25.8749L4.06735 10.4828C3.9499 10.2786 4.02031 10.0179 4.22441 9.90041C4.42879 9.78296 4.68938 9.85337 4.80674 10.0576L13.6503 25.4366C13.6532 25.4412 13.656 25.4458 13.6587 25.4505L17.9963 32.9938C18.1137 33.198 18.0433 33.4588 17.8391 33.5762C17.7723 33.6147 17.6991 33.633 17.6271 33.633Z" fill="#150F1B"/>
<path d="M17.1263 24.5699C16.98 24.5699 16.8377 24.4946 16.7582 24.3594L12.3065 16.7848C12.1871 16.5818 12.255 16.3203 12.458 16.201C12.6612 16.0816 12.9225 16.1496 13.0419 16.3526L17.4936 23.9272C17.613 24.1303 17.5451 24.3918 17.342 24.5111C17.2742 24.5509 17.1997 24.5699 17.1263 24.5699Z" fill="#150F1B"/>
<path d="M57.092 75.298C56.9303 75.298 56.7758 75.2056 56.704 75.049C56.6059 74.8348 56.7 74.5817 56.9142 74.4837C63.6171 71.414 68.4562 67.0681 71.3355 63.9629C73.0129 62.1538 73.5706 59.579 72.7912 57.2431C71.4707 53.2861 69.0973 47.7241 65.2889 43.6981C63.5987 41.9112 61.0838 41.1842 58.7266 41.8001C53.3163 43.2139 50.1168 46.0586 50.0851 46.0872C49.9101 46.2449 49.6406 46.231 49.4828 46.0564C49.325 45.8817 49.3386 45.6123 49.5132 45.4543C49.6483 45.3321 52.8871 42.4444 58.511 40.9748C61.1698 40.2798 64.0045 41.0988 65.9088 43.1119C69.8243 47.2513 72.2528 52.9344 73.6005 56.973C74.4786 59.6046 73.8504 62.5051 71.961 64.5428C69.0291 67.7048 64.1002 72.1309 57.2695 75.2592C57.2118 75.2855 57.1514 75.298 57.092 75.298Z" fill="#150F1B"/>
<path d="M56.1827 71.6701C56.0092 71.6701 55.8462 71.5635 55.7825 71.3913C55.7008 71.1704 55.8138 70.925 56.0347 70.8434C63.1578 68.2104 66.8943 64.0009 68.4876 61.726C69.2422 60.6487 69.4836 59.3049 69.1502 58.039C68.3882 55.1454 66.5377 49.7934 62.7061 46.4608C61.6846 45.5724 60.3354 45.1996 59.0048 45.4382C55.0894 46.14 50.909 49.3059 50.8671 49.3378C50.6801 49.4808 50.4124 49.445 50.2693 49.2579C50.1262 49.0708 50.1621 48.8031 50.3492 48.66C50.5262 48.5247 54.7329 45.3372 58.8543 44.5986C60.4411 44.3142 62.0487 44.7585 63.2659 45.8172C65.3652 47.6431 68.2333 51.2079 69.9751 57.8217C70.3725 59.3307 70.085 60.9321 69.1862 62.2154C67.5358 64.5718 63.6711 68.9301 56.3304 71.6435C56.2817 71.6615 56.2317 71.6701 56.1827 71.6701Z" fill="#150F1B"/>
<path d="M29.6987 27.9846C29.3368 27.9926 28.9732 27.997 28.6079 27.997C26.743 27.997 24.9705 27.8885 23.3369 27.7183L31.5801 35.9615C33.6415 35.8572 35.502 35.6199 37.0022 35.2879L29.6987 27.9846Z" fill="#150F1B"/>
<path d="M37.5012 27.2787L41.7523 31.5297L42.9395 29.4633H42.9403C43.1075 29.4983 43.273 29.5341 43.4368 29.5699L44.176 27.8577L42.6193 26.301C41.3056 26.6038 39.5432 26.9665 37.5012 27.2787Z" fill="#150F1B"/>
<path d="M44.5399 27.0153L45.1233 25.664L45.1242 25.6623C45.1242 25.6623 44.5697 25.8269 43.5933 26.0686L44.5399 27.0153Z" fill="#150F1B"/>
<path d="M21.9704 27.5582C18.4296 27.0976 15.6849 26.3852 14.2942 25.9776L24.0421 35.7255C25.5972 35.9142 27.3512 36.0205 29.2075 36.0205C29.6162 36.0205 30.0198 36.0153 30.4175 36.0053L21.9704 27.5582Z" fill="#150F1B"/>
<path d="M36.4476 27.4314C34.7224 27.6678 32.8325 27.8586 30.8662 27.9457L37.9678 35.0473C39.7255 34.5539 40.789 33.9103 40.789 33.2064L41.312 32.296L36.4476 27.4314Z" fill="#150F1B"/>
<path d="M13.9873 26.8771L15.3527 29.2517L17.6269 33.2064C17.6269 34.1672 19.6091 35.0155 22.6335 35.5232L13.9873 26.8771Z" fill="#150F1B"/>
<path d="M7.14063 39.5805L6.43286 40.0566L10.6765 46.3643L11.3843 45.8882L7.14063 39.5805Z" fill="#150F1B"/>
<path d="M53.4233 74.8189L45.8004 44.3384C45.8004 44.3384 40.8241 46.3481 32.8811 46.4438C32.8811 46.4438 42.1121 58.6933 31.0701 65.0516C31.8647 65.5636 32.6257 66.1258 33.363 66.7162C33.707 67.0013 34.126 67.3524 34.4683 67.6289C36.6058 69.3681 39.3916 70.2859 42.1042 69.4872C42.8315 69.2749 43.5427 68.9676 44.1641 68.5303L44.1883 68.5605C43.5772 69.0322 42.875 69.3726 42.1459 69.6213C39.3775 70.5695 36.4507 69.7333 34.1608 68.0351C33.7992 67.7688 33.3708 67.4408 33.0128 67.1699C31.9533 66.3977 30.8436 65.6703 29.6697 65.0821C27.7808 64.3929 22.7054 62.903 17.1866 64.3394C9.68465 66.292 9.01725 73.2878 9.01929 75.7357C9.01976 76.3179 9.24899 76.8772 9.66368 77.2858C11.3302 78.9285 16.7767 82.9049 30.4496 82.9049C43.5932 82.9049 50.2383 78.9452 52.6516 77.0663C53.3315 76.537 53.6324 75.6549 53.4233 74.8189ZM34.3931 65.4918C34.1223 65.4918 33.9028 65.2724 33.9028 65.0016C33.9028 64.7307 34.1223 64.5112 34.3931 64.5112C34.6639 64.5112 34.8834 64.7307 34.8834 65.0016C34.8835 65.2723 34.6639 65.4918 34.3931 65.4918ZM36.2565 66.7667C35.769 66.7667 35.3738 66.3715 35.3738 65.8841C35.3738 65.3967 35.769 65.0015 36.2565 65.0015C36.7439 65.0015 37.1391 65.3967 37.1391 65.8841C37.1391 66.3715 36.7439 66.7667 36.2565 66.7667ZM12.039 71.0108C12.4214 71.0108 12.7314 71.3208 12.7314 71.7032C12.7314 72.0856 12.4214 72.3956 12.039 72.3956C11.6566 72.3956 11.3467 72.0856 11.3467 71.7032C11.3467 71.3208 11.6566 71.0108 12.039 71.0108ZM12.7313 76.0988C12.0599 76.0988 11.5156 75.5545 11.5156 74.8831C11.5156 74.2118 12.0599 73.6675 12.7313 73.6675C13.4027 73.6675 13.947 74.2118 13.947 74.8831C13.947 75.5545 13.4027 76.0988 12.7313 76.0988ZM14.0472 73.0807C13.858 73.0807 13.7045 72.9273 13.7045 72.7381C13.7045 72.5488 13.8579 72.3955 14.0472 72.3955C14.2363 72.3955 14.3898 72.5488 14.3898 72.7381C14.3898 72.9273 14.2363 73.0807 14.0472 73.0807ZM49.3727 76.8118C48.7435 76.8118 48.2333 76.3016 48.2333 75.6723C48.2333 75.0431 48.7435 74.5329 49.3727 74.5329C50.002 74.5329 50.5121 75.0431 50.5121 75.6723C50.5121 76.3016 50.002 76.8118 49.3727 76.8118ZM50.7612 73.3725C50.4349 73.3725 50.1704 73.1079 50.1704 72.7817C50.1704 72.4553 50.4349 72.1908 50.7612 72.1908C51.0876 72.1908 51.3521 72.4554 51.3521 72.7817C51.3522 73.1079 51.0876 73.3725 50.7612 73.3725Z" fill="#150F1B"/>
</svg>
